# Blender 5.0.1
# www.blender.org
o Floor_Lamp_Finial
v -3.135168 2.677823 0.711047
v -3.140583 2.738052 0.715123
v -3.141539 2.677823 0.715843
v -3.141539 2.738556 0.715843
v -3.137933 2.688313 0.713129
v -3.139597 2.689625 0.714381
v -3.140082 2.698068 0.714746
v -3.138902 2.698935 0.713858
v -3.139581 2.701708 0.714369
v -3.139581 2.708171 0.714369
v -3.135235 2.725060 0.711097
v -3.134734 2.730699 0.710720
v -3.140243 2.693846 0.714868
v -3.138870 2.701474 0.713834
v -3.138038 2.716615 0.713208
v -3.136087 2.720838 0.711739
v -3.139230 2.712393 0.714105
v -3.135243 2.728434 0.711103
v -3.134714 2.729012 0.710705
v -3.137658 2.734627 0.712922
v -3.139120 2.736592 0.714023
v -3.136196 2.730747 0.711821
v -3.139629 2.704939 0.714406
v -3.136830 2.732687 0.712298
v -3.135454 2.722890 0.711262
v -3.134934 2.722949 0.710871
v -3.134931 2.724005 0.710869
v -3.135309 2.723978 0.711153
v -3.136626 2.677823 0.709561
v -3.140801 2.738052 0.714900
v -3.141539 2.677823 0.715843
v -3.141539 2.738556 0.715843
v -3.138758 2.688313 0.712288
v -3.140042 2.689625 0.713929
v -3.140415 2.698068 0.714406
v -3.139506 2.698935 0.713244
v -3.140029 2.701708 0.713913
v -3.140029 2.708171 0.713913
v -3.136678 2.725060 0.709628
v -3.136292 2.730699 0.709134
v -3.140540 2.693846 0.714566
v -3.139481 2.701474 0.713212
v -3.138839 2.716615 0.712391
v -3.137335 2.720838 0.710468
v -3.139758 2.712393 0.713566
v -3.136684 2.728434 0.709635
v -3.136276 2.729012 0.709114
v -3.138547 2.734627 0.712017
v -3.139674 2.736592 0.713459
v -3.137419 2.730747 0.710575
v -3.140066 2.704939 0.713960
v -3.137908 2.732687 0.711201
v -3.136847 2.722890 0.709844
v -3.136446 2.722949 0.709331
v -3.136444 2.724005 0.709328
v -3.136735 2.723978 0.709701
v -3.138420 2.677823 0.708504
v -3.141071 2.738052 0.714742
v -3.141539 2.677823 0.715843
v -3.141539 2.738556 0.715843
v -3.139774 2.688313 0.711689
v -3.140588 2.689625 0.713606
v -3.140826 2.698068 0.714165
v -3.140248 2.698935 0.712806
v -3.140580 2.701708 0.713588
v -3.140580 2.708171 0.713588
v -3.138453 2.725060 0.708581
v -3.138207 2.730699 0.708004
v -3.140904 2.693846 0.714351
v -3.140232 2.701474 0.712769
v -3.139825 2.716615 0.711810
v -3.138870 2.720838 0.709563
v -3.140408 2.712393 0.713183
v -3.138457 2.728434 0.708591
v -3.138198 2.729012 0.707981
v -3.139639 2.734627 0.711373
v -3.140355 2.736592 0.713057
v -3.138923 2.730747 0.709689
v -3.140604 2.704939 0.713643
v -3.139234 2.732687 0.710419
v -3.138560 2.722890 0.708834
v -3.138305 2.722949 0.708235
v -3.138304 2.724005 0.708231
v -3.138489 2.723978 0.708667
v -3.140426 2.677823 0.707947
v -3.141372 2.738052 0.714658
v -3.141539 2.677823 0.715843
v -3.141539 2.738556 0.715843
v -3.140909 2.688313 0.711374
v -3.141200 2.689625 0.713436
v -3.141284 2.698068 0.714037
v -3.141078 2.698935 0.712575
v -3.141197 2.701708 0.713416
v -3.141197 2.708171 0.713416
v -3.140437 2.725060 0.708030
v -3.140350 2.730699 0.707409
v -3.141312 2.693846 0.714237
v -3.141073 2.701474 0.712535
v -3.140927 2.716615 0.711504
v -3.140586 2.720838 0.709086
v -3.141135 2.712393 0.712981
v -3.140439 2.728434 0.708040
v -3.140346 2.729012 0.707384
v -3.140861 2.734627 0.711034
v -3.141116 2.736592 0.712846
v -3.140605 2.730747 0.709221
v -3.141205 2.704939 0.713476
v -3.140716 2.732687 0.710007
v -3.140476 2.722890 0.708302
v -3.140385 2.722949 0.707657
v -3.140384 2.724005 0.707653
v -3.140450 2.723978 0.708122
v -3.142507 2.677823 0.707928
v -3.141684 2.738052 0.714655
v -3.141539 2.677823 0.715843
v -3.141539 2.738556 0.715843
v -3.142087 2.688313 0.711363
v -3.141834 2.689625 0.713431
v -3.141760 2.698068 0.714033
v -3.141940 2.698935 0.712568
v -3.141836 2.701708 0.713411
v -3.141836 2.708171 0.713411
v -3.142497 2.725060 0.708011
v -3.142573 2.730699 0.707389
v -3.141736 2.693846 0.714234
v -3.141945 2.701474 0.712527
v -3.142071 2.716615 0.711494
v -3.142368 2.720838 0.709070
v -3.141890 2.712393 0.712974
v -3.142496 2.728434 0.708021
v -3.142576 2.729012 0.707364
v -3.142129 2.734627 0.711022
v -3.141906 2.736592 0.712838
v -3.142351 2.730747 0.709205
v -3.141829 2.704939 0.713471
v -3.142255 2.732687 0.709993
v -3.142464 2.722890 0.708283
v -3.142543 2.722949 0.707637
v -3.142543 2.724005 0.707633
v -3.142486 2.723978 0.708103
v -3.144523 2.677823 0.708448
v -3.141987 2.738052 0.714733
v -3.141539 2.677823 0.715843
v -3.141539 2.738556 0.715843
v -3.143228 2.688313 0.711658
v -3.142448 2.689625 0.713589
v -3.142221 2.698068 0.714152
v -3.142774 2.698935 0.712783
v -3.142456 2.701708 0.713570
v -3.142456 2.708171 0.713570
v -3.144492 2.725060 0.708526
v -3.144726 2.730699 0.707945
v -3.142146 2.693846 0.714339
v -3.142789 2.701474 0.712745
v -3.143179 2.716615 0.711780
v -3.144092 2.720838 0.709515
v -3.142621 2.712393 0.713163
v -3.144488 2.728434 0.708535
v -3.144736 2.729012 0.707921
v -3.143357 2.734627 0.711339
v -3.142672 2.736592 0.713036
v -3.144041 2.730747 0.709642
v -3.142433 2.704939 0.713627
v -3.143744 2.732687 0.710378
v -3.144389 2.722890 0.708780
v -3.144633 2.722949 0.708177
v -3.144634 2.724005 0.708173
v -3.144457 2.723978 0.708612
v -3.146335 2.677823 0.709472
v -3.142259 2.738052 0.714887
v -3.141539 2.677823 0.715843
v -3.141539 2.738556 0.715843
v -3.144254 2.688313 0.712237
v -3.143001 2.689625 0.713901
v -3.142636 2.698068 0.714386
v -3.143524 2.698935 0.713207
v -3.143013 2.701708 0.713885
v -3.143013 2.708171 0.713885
v -3.146285 2.725060 0.709540
v -3.146662 2.730699 0.709039
v -3.142514 2.693846 0.714548
v -3.143548 2.701474 0.713174
v -3.144175 2.716615 0.712343
v -3.145643 2.720838 0.710392
v -3.143278 2.712393 0.713534
v -3.146279 2.728434 0.709548
v -3.146677 2.729012 0.709019
v -3.144460 2.734627 0.711963
v -3.143360 2.736592 0.713425
v -3.145561 2.730747 0.710501
v -3.142977 2.704939 0.713934
v -3.145084 2.732687 0.711135
v -3.146120 2.722890 0.709759
v -3.146511 2.722949 0.709239
v -3.146514 2.724005 0.709236
v -3.146229 2.723978 0.709614
v -3.147821 2.677823 0.710931
v -3.142482 2.738052 0.715106
v -3.141539 2.677823 0.715843
v -3.141539 2.738556 0.715843
v -3.145094 2.688313 0.713063
v -3.143454 2.689625 0.714346
v -3.142976 2.698068 0.714720
v -3.144139 2.698935 0.713810
v -3.143470 2.701708 0.714334
v -3.143470 2.708171 0.714334
v -3.147755 2.725060 0.710983
v -3.148248 2.730699 0.710597
v -3.142817 2.693846 0.714844
v -3.144171 2.701474 0.713785
v -3.144991 2.716615 0.713144
v -3.146914 2.720838 0.711640
v -3.143816 2.712393 0.714063
v -3.147747 2.728434 0.710989
v -3.148268 2.729012 0.710581
v -3.145365 2.734627 0.712851
v -3.143924 2.736592 0.713979
v -3.146807 2.730747 0.711724
v -3.143422 2.704939 0.714371
v -3.146182 2.732687 0.712213
v -3.147539 2.722890 0.711152
v -3.148051 2.722949 0.710751
v -3.148054 2.724005 0.710748
v -3.147681 2.723978 0.711040
v -3.148878 2.677823 0.712724
v -3.142641 2.738052 0.715375
v -3.141539 2.677823 0.715843
v -3.141539 2.738556 0.715843
v -3.145693 2.688313 0.714078
v -3.143776 2.689625 0.714893
v -3.143218 2.698068 0.715130
v -3.144576 2.698935 0.714553
v -3.143795 2.701708 0.714885
v -3.143795 2.708171 0.714885
v -3.148801 2.725060 0.712757
v -3.149378 2.730699 0.712512
v -3.143031 2.693846 0.715209
v -3.144614 2.701474 0.714537
v -3.145572 2.716615 0.714129
v -3.147819 2.720838 0.713174
v -3.144199 2.712393 0.714713
v -3.148792 2.728434 0.712761
v -3.149401 2.729012 0.712502
v -3.146009 2.734627 0.713943
v -3.144325 2.736592 0.714659
v -3.147694 2.730747 0.713228
v -3.143739 2.704939 0.714908
v -3.146963 2.732687 0.713538
v -3.148548 2.722890 0.712864
v -3.149148 2.722949 0.712610
v -3.149151 2.724005 0.712608
v -3.148715 2.723978 0.712793
v -3.149436 2.677823 0.714730
v -3.142724 2.738052 0.715676
v -3.141539 2.677823 0.715843
v -3.141539 2.738556 0.715843
v -3.146008 2.688313 0.715213
v -3.143946 2.689625 0.715504
v -3.143345 2.698068 0.715589
v -3.144807 2.698935 0.715383
v -3.143966 2.701708 0.715501
v -3.143966 2.708171 0.715501
v -3.149352 2.725060 0.714742
v -3.149973 2.730699 0.714654
v -3.143145 2.693846 0.715617
v -3.144847 2.701474 0.715377
v -3.145878 2.716615 0.715232
v -3.148296 2.720838 0.714891
v -3.144401 2.712393 0.715440
v -3.149342 2.728434 0.714743
v -3.149998 2.729012 0.714651
v -3.146349 2.734627 0.715165
v -3.144536 2.736592 0.715421
v -3.148161 2.730747 0.714910
v -3.143906 2.704939 0.715510
v -3.147375 2.732687 0.715021
v -3.149081 2.722890 0.714780
v -3.149725 2.722949 0.714689
v -3.149729 2.724005 0.714689
v -3.149260 2.723978 0.714755
v -3.149455 2.677823 0.716812
v -3.142727 2.738052 0.715989
v -3.141539 2.677823 0.715843
v -3.141539 2.738556 0.715843
v -3.146019 2.688313 0.716391
v -3.143952 2.689625 0.716138
v -3.143349 2.698068 0.716065
v -3.144815 2.698935 0.716244
v -3.143972 2.701708 0.716141
v -3.143972 2.708171 0.716141
v -3.149371 2.725060 0.716802
v -3.149993 2.730699 0.716878
v -3.143149 2.693846 0.716040
v -3.144855 2.701474 0.716249
v -3.145889 2.716615 0.716376
v -3.148312 2.720838 0.716672
v -3.144408 2.712393 0.716194
v -3.149361 2.728434 0.716800
v -3.150018 2.729012 0.716881
v -3.146360 2.734627 0.716433
v -3.144544 2.736592 0.716211
v -3.148177 2.730747 0.716655
v -3.143911 2.704939 0.716134
v -3.147389 2.732687 0.716559
v -3.149099 2.722890 0.716768
v -3.149745 2.722949 0.716847
v -3.149749 2.724005 0.716848
v -3.149279 2.723978 0.716790
v -3.148934 2.677823 0.718828
v -3.142649 2.738052 0.716291
v -3.141539 2.677823 0.715843
v -3.141539 2.738556 0.715843
v -3.145725 2.688313 0.717532
v -3.143793 2.689625 0.716753
v -3.143230 2.698068 0.716526
v -3.144599 2.698935 0.717078
v -3.143812 2.701708 0.716760
v -3.143812 2.708171 0.716760
v -3.148856 2.725060 0.718796
v -3.149437 2.730699 0.719031
v -3.143043 2.693846 0.716450
v -3.144637 2.701474 0.717093
v -3.145602 2.716615 0.717483
v -3.147867 2.720838 0.718397
v -3.144220 2.712393 0.716925
v -3.148847 2.728434 0.718792
v -3.149461 2.729012 0.719040
v -3.146043 2.734627 0.717661
v -3.144346 2.736592 0.716976
v -3.147740 2.730747 0.718346
v -3.143755 2.704939 0.716738
v -3.147004 2.732687 0.718049
v -3.148602 2.722890 0.718693
v -3.149205 2.722949 0.718937
v -3.149209 2.724005 0.718938
v -3.148770 2.723978 0.718761
v -3.147910 2.677823 0.720640
v -3.142495 2.738052 0.716563
v -3.141539 2.677823 0.715843
v -3.141539 2.738556 0.715843
v -3.145145 2.688313 0.718558
v -3.143481 2.689625 0.717305
v -3.142996 2.698068 0.716940
v -3.144175 2.698935 0.717828
v -3.143497 2.701708 0.717317
v -3.143497 2.708171 0.717317
v -3.147843 2.725060 0.720589
v -3.148343 2.730699 0.720966
v -3.142834 2.693846 0.716819
v -3.144208 2.701474 0.717853
v -3.145040 2.716615 0.718479
v -3.146991 2.720838 0.719948
v -3.143848 2.712393 0.717582
v -3.147835 2.728434 0.720583
v -3.148364 2.729012 0.720982
v -3.145419 2.734627 0.718765
v -3.143957 2.736592 0.717664
v -3.146881 2.730747 0.719866
v -3.143448 2.704939 0.717281
v -3.146247 2.732687 0.719388
v -3.147624 2.722890 0.720424
v -3.148144 2.722949 0.720816
v -3.148147 2.724005 0.720818
v -3.147768 2.723978 0.720533
v -3.146451 2.677823 0.722125
v -3.142276 2.738052 0.716786
v -3.141539 2.677823 0.715843
v -3.141539 2.738556 0.715843
v -3.144319 2.688313 0.719399
v -3.143036 2.689625 0.717758
v -3.142663 2.698068 0.717280
v -3.143572 2.698935 0.718443
v -3.143049 2.701708 0.717774
v -3.143049 2.708171 0.717774
v -3.146399 2.725060 0.722059
v -3.146786 2.730699 0.722553
v -3.142538 2.693846 0.717121
v -3.143597 2.701474 0.718475
v -3.144238 2.716615 0.719295
v -3.145742 2.720838 0.721219
v -3.143320 2.712393 0.718121
v -3.146393 2.728434 0.722051
v -3.146801 2.729012 0.722573
v -3.144531 2.734627 0.719670
v -3.143404 2.736592 0.718228
v -3.145658 2.730747 0.721111
v -3.143011 2.704939 0.717726
v -3.145169 2.732687 0.720486
v -3.146230 2.722890 0.721843
v -3.146631 2.722949 0.722356
v -3.146634 2.724005 0.722359
v -3.146342 2.723978 0.721986
v -3.144658 2.677823 0.723183
v -3.142007 2.738052 0.716945
v -3.141539 2.677823 0.715843
v -3.141539 2.738556 0.715843
v -3.143304 2.688313 0.719997
v -3.142490 2.689625 0.718080
v -3.142252 2.698068 0.717522
v -3.142830 2.698935 0.718881
v -3.142498 2.701708 0.718099
v -3.142498 2.708171 0.718099
v -3.144625 2.725060 0.723105
v -3.144870 2.730699 0.723682
v -3.142173 2.693846 0.717336
v -3.142845 2.701474 0.718918
v -3.143253 2.716615 0.719876
v -3.144208 2.720838 0.722124
v -3.142669 2.712393 0.718504
v -3.144621 2.728434 0.723096
v -3.144880 2.729012 0.723706
v -3.143439 2.734627 0.720314
v -3.142723 2.736592 0.718629
v -3.144155 2.730747 0.721998
v -3.142474 2.704939 0.718043
v -3.143844 2.732687 0.721268
v -3.144518 2.722890 0.722853
v -3.144772 2.722949 0.723452
v -3.144774 2.724005 0.723455
v -3.144589 2.723978 0.723020
v -3.142652 2.677823 0.723740
v -3.141706 2.738052 0.717029
v -3.141539 2.677823 0.715843
v -3.141539 2.738556 0.715843
v -3.142169 2.688313 0.720313
v -3.141878 2.689625 0.718250
v -3.141793 2.698068 0.717649
v -3.141999 2.698935 0.719111
v -3.141881 2.701708 0.718270
v -3.141881 2.708171 0.718270
v -3.142640 2.725060 0.723657
v -3.142728 2.730699 0.724277
v -3.141765 2.693846 0.717449
v -3.142005 2.701474 0.719151
v -3.142151 2.716615 0.720183
v -3.142491 2.720838 0.722600
v -3.141943 2.712393 0.718706
v -3.142639 2.728434 0.723647
v -3.142731 2.729012 0.724302
v -3.142217 2.734627 0.720653
v -3.141961 2.736592 0.718841
v -3.142473 2.730747 0.722465
v -3.141873 2.704939 0.718210
v -3.142362 2.732687 0.721679
v -3.142602 2.722890 0.723385
v -3.142693 2.722949 0.724030
v -3.142694 2.724005 0.724033
v -3.142627 2.723978 0.723565
v -3.140570 2.677823 0.723759
v -3.141393 2.738052 0.717032
v -3.141539 2.677823 0.715843
v -3.141539 2.738556 0.715843
v -3.140991 2.688313 0.720323
v -3.141244 2.689625 0.718256
v -3.141317 2.698068 0.717654
v -3.141138 2.698935 0.719119
v -3.141241 2.701708 0.718276
v -3.141241 2.708171 0.718276
v -3.140581 2.725060 0.723676
v -3.140504 2.730699 0.724298
v -3.141342 2.693846 0.717453
v -3.141133 2.701474 0.719159
v -3.141007 2.716615 0.720193
v -3.140710 2.720838 0.722617
v -3.141188 2.712393 0.718713
v -3.140582 2.728434 0.723665
v -3.140501 2.729012 0.724323
v -3.140949 2.734627 0.720665
v -3.141171 2.736592 0.718848
v -3.140727 2.730747 0.722481
v -3.141248 2.704939 0.718216
v -3.140823 2.732687 0.721693
v -3.140614 2.722890 0.723403
v -3.140535 2.722949 0.724049
v -3.140534 2.724005 0.724053
v -3.140592 2.723978 0.723583
v -3.138555 2.677823 0.723239
v -3.141091 2.738052 0.716954
v -3.141539 2.677823 0.715843
v -3.141539 2.738556 0.715843
v -3.139850 2.688313 0.720029
v -3.140629 2.689625 0.718097
v -3.140856 2.698068 0.717535
v -3.140304 2.698935 0.718904
v -3.140622 2.701708 0.718116
v -3.140622 2.708171 0.718116
v -3.138586 2.725060 0.723161
v -3.138351 2.730699 0.723742
v -3.140932 2.693846 0.717347
v -3.140289 2.701474 0.718941
v -3.139899 2.716615 0.719907
v -3.138985 2.720838 0.722171
v -3.140457 2.712393 0.718524
v -3.138590 2.728434 0.723151
v -3.138342 2.729012 0.723765
v -3.139721 2.734627 0.720348
v -3.140406 2.736592 0.718651
v -3.139036 2.730747 0.722045
v -3.140644 2.704939 0.718060
v -3.139333 2.732687 0.721309
v -3.138689 2.722890 0.722906
v -3.138445 2.722949 0.723510
v -3.138444 2.724005 0.723513
v -3.138621 2.723978 0.723074
v -3.136742 2.677823 0.722214
v -3.140819 2.738052 0.716800
v -3.141539 2.677823 0.715843
v -3.141539 2.738556 0.715843
v -3.138824 2.688313 0.719449
v -3.140077 2.689625 0.717785
v -3.140442 2.698068 0.717301
v -3.139554 2.698935 0.718480
v -3.140065 2.701708 0.717801
v -3.140065 2.708171 0.717801
v -3.136793 2.725060 0.722147
v -3.136416 2.730699 0.722648
v -3.140563 2.693846 0.717139
v -3.139529 2.701474 0.718512
v -3.138903 2.716615 0.719344
v -3.137434 2.720838 0.721295
v -3.139800 2.712393 0.718153
v -3.136799 2.728434 0.722139
v -3.136401 2.729012 0.722668
v -3.138617 2.734627 0.719724
v -3.139718 2.736592 0.718262
v -3.137516 2.730747 0.721186
v -3.140101 2.704939 0.717753
v -3.137994 2.732687 0.720552
v -3.136958 2.722890 0.721928
v -3.136566 2.722949 0.722448
v -3.136564 2.724005 0.722451
v -3.136849 2.723978 0.722073
v -3.135257 2.677823 0.720756
v -3.140596 2.738052 0.716581
v -3.141539 2.677823 0.715843
v -3.141539 2.738556 0.715843
v -3.137983 2.688313 0.718624
v -3.139624 2.689625 0.717341
v -3.140102 2.698068 0.716967
v -3.138939 2.698935 0.717876
v -3.139608 2.701708 0.717353
v -3.139608 2.708171 0.717353
v -3.135323 2.725060 0.720704
v -3.134829 2.730699 0.721090
v -3.140261 2.693846 0.716842
v -3.138907 2.701474 0.717901
v -3.138087 2.716615 0.718543
v -3.136163 2.720838 0.720047
v -3.139262 2.712393 0.717624
v -3.135331 2.728434 0.720698
v -3.134809 2.729012 0.721106
v -3.137712 2.734627 0.718835
v -3.139154 2.736592 0.717708
v -3.136271 2.730747 0.719963
v -3.139656 2.704939 0.717316
v -3.136896 2.732687 0.719474
v -3.135539 2.722890 0.720535
v -3.135026 2.722949 0.720936
v -3.135023 2.724005 0.720938
v -3.135396 2.723978 0.720647
v -3.134199 2.677823 0.718962
v -3.140437 2.738052 0.716312
v -3.141539 2.677823 0.715843
v -3.141539 2.738556 0.715843
v -3.137385 2.688313 0.717609
v -3.139302 2.689625 0.716794
v -3.139860 2.698068 0.716557
v -3.138502 2.698935 0.717134
v -3.139283 2.701708 0.716802
v -3.139283 2.708171 0.716802
v -3.134277 2.725060 0.718930
v -3.133700 2.730699 0.719175
v -3.140046 2.693846 0.716478
v -3.138464 2.701474 0.717150
v -3.137506 2.716615 0.717557
v -3.135259 2.720838 0.718512
v -3.138878 2.712393 0.716974
v -3.134286 2.728434 0.718926
v -3.133677 2.729012 0.719185
v -3.137069 2.734627 0.717743
v -3.138753 2.736592 0.717027
v -3.135384 2.730747 0.718459
v -3.139339 2.704939 0.716778
v -3.136115 2.732687 0.718149
v -3.134529 2.722890 0.718822
v -3.133930 2.722949 0.719077
v -3.133927 2.724005 0.719078
v -3.134362 2.723978 0.718893
v -3.133642 2.677823 0.716957
v -3.140353 2.738052 0.716010
v -3.141539 2.677823 0.715843
v -3.141539 2.738556 0.715843
v -3.137069 2.688313 0.716473
v -3.139132 2.689625 0.716183
v -3.139733 2.698068 0.716098
v -3.138271 2.698935 0.716304
v -3.139112 2.701708 0.716185
v -3.139112 2.708171 0.716185
v -3.133725 2.725060 0.716945
v -3.133105 2.730699 0.717032
v -3.139933 2.693846 0.716070
v -3.138231 2.701474 0.716310
v -3.137200 2.716615 0.716455
v -3.134782 2.720838 0.716796
v -3.138676 2.712393 0.716247
v -3.133735 2.728434 0.716943
v -3.133080 2.729012 0.717036
v -3.136729 2.734627 0.716521
v -3.138541 2.736592 0.716266
v -3.134917 2.730747 0.716777
v -3.139172 2.704939 0.716177
v -3.135703 2.732687 0.716666
v -3.133997 2.722890 0.716907
v -3.133353 2.722949 0.716997
v -3.133349 2.724005 0.716998
v -3.133817 2.723978 0.716932
v -3.133623 2.677823 0.714875
v -3.140351 2.738052 0.715698
v -3.141539 2.677823 0.715843
v -3.141539 2.738556 0.715843
v -3.137059 2.688313 0.715295
v -3.139126 2.689625 0.715548
v -3.139728 2.698068 0.715622
v -3.138263 2.698935 0.715443
v -3.139106 2.701708 0.715546
v -3.139106 2.708171 0.715546
v -3.133707 2.725060 0.714885
v -3.133084 2.730699 0.714809
v -3.139929 2.693846 0.715646
v -3.138223 2.701474 0.715438
v -3.137189 2.716615 0.715311
v -3.134765 2.720838 0.715015
v -3.138669 2.712393 0.715492
v -3.133717 2.728434 0.714886
v -3.133059 2.729012 0.714806
v -3.136718 2.734627 0.715253
v -3.138534 2.736592 0.715476
v -3.134901 2.730747 0.715031
v -3.139166 2.704939 0.715553
v -3.135689 2.732687 0.715128
v -3.133979 2.722890 0.714918
v -3.133333 2.722949 0.714839
v -3.133329 2.724005 0.714839
v -3.133799 2.723978 0.714896
v -3.134144 2.677823 0.712859
v -3.140429 2.738052 0.715395
v -3.141539 2.677823 0.715843
v -3.141539 2.738556 0.715843
v -3.137353 2.688313 0.714154
v -3.139285 2.689625 0.714934
v -3.139847 2.698068 0.715161
v -3.138479 2.698935 0.714608
v -3.139266 2.701708 0.714926
v -3.139266 2.708171 0.714926
v -3.134222 2.725060 0.712891
v -3.133640 2.730699 0.712656
v -3.140035 2.693846 0.715236
v -3.138441 2.701474 0.714593
v -3.137475 2.716615 0.714203
v -3.135211 2.720838 0.713290
v -3.138858 2.712393 0.714762
v -3.134231 2.728434 0.712894
v -3.133617 2.729012 0.712647
v -3.137034 2.734627 0.714026
v -3.138731 2.736592 0.714710
v -3.135337 2.730747 0.713341
v -3.139322 2.704939 0.714949
v -3.136073 2.732687 0.713638
v -3.134476 2.722890 0.712993
v -3.133872 2.722949 0.712750
v -3.133869 2.724005 0.712748
v -3.134308 2.723978 0.712925
v -3.135168 2.681412 0.711047
v -3.136626 2.681412 0.709561
v -3.138420 2.681412 0.708504
v -3.140426 2.681412 0.707947
v -3.142507 2.681412 0.707928
v -3.144523 2.681412 0.708448
v -3.146335 2.681412 0.709472
v -3.147821 2.681412 0.710931
v -3.148878 2.681412 0.712724
v -3.149436 2.681412 0.714730
v -3.149455 2.681412 0.716812
v -3.148934 2.681412 0.718828
v -3.147910 2.681412 0.720640
v -3.146451 2.681412 0.722125
v -3.144658 2.681412 0.723183
v -3.142652 2.681412 0.723740
v -3.140570 2.681412 0.723759
v -3.138555 2.681412 0.723239
v -3.136742 2.681412 0.722214
v -3.135257 2.681412 0.720756
v -3.134199 2.681412 0.718962
v -3.133642 2.681412 0.716957
v -3.133623 2.681412 0.714875
v -3.134144 2.681412 0.712859
v -3.141539 2.677823 0.715843
v -3.141539 2.677823 0.715843
v -3.141539 2.677823 0.715843
v -3.141539 2.677823 0.715843
v -3.141539 2.677823 0.715843
v -3.141539 2.677823 0.715843
v -3.141539 2.677823 0.715843
v -3.141539 2.677823 0.715843
v -3.141539 2.677823 0.715843
v -3.141539 2.677823 0.715843
v -3.141539 2.677823 0.715843
v -3.141539 2.677823 0.715843
v -3.141539 2.677823 0.715843
v -3.141539 2.677823 0.715843
v -3.141539 2.677823 0.715843
v -3.141539 2.677823 0.715843
v -3.141539 2.677823 0.715843
v -3.141539 2.677823 0.715843
v -3.141539 2.677823 0.715843
v -3.141539 2.677823 0.715843
v -3.141539 2.677823 0.715843
v -3.141539 2.677823 0.715843
v -3.141539 2.677823 0.715843
v -3.141539 2.677823 0.715843
v -3.137933 2.683068 0.713129
v -3.137353 2.683068 0.714154
v -3.137059 2.683068 0.715295
v -3.137069 2.683068 0.716473
v -3.137385 2.683068 0.717609
v -3.137983 2.683068 0.718624
v -3.138824 2.683068 0.719449
v -3.139850 2.683068 0.720029
v -3.140991 2.683068 0.720323
v -3.142169 2.683068 0.720313
v -3.143304 2.683068 0.719997
v -3.144319 2.683068 0.719399
v -3.145145 2.683068 0.718558
v -3.145725 2.683068 0.717532
v -3.146019 2.683068 0.716391
v -3.146008 2.683068 0.715213
v -3.145693 2.683068 0.714078
v -3.145094 2.683068 0.713063
v -3.144254 2.683068 0.712237
v -3.143228 2.683068 0.711658
v -3.142087 2.683068 0.711363
v -3.140909 2.683068 0.711374
v -3.139774 2.683068 0.711689
v -3.138758 2.683068 0.712288
v -3.136626 2.677823 0.709561
v -3.135168 2.677823 0.711047
v -3.141539 2.677823 0.715843
v -3.141539 2.677823 0.715843
v -3.141539 2.677823 0.715843
v -3.141539 2.677823 0.715843
v -3.141539 2.738556 0.715843
v -3.141539 2.738556 0.715843
v -3.138758 2.688313 0.712288
v -3.137933 2.688313 0.713129
v -3.140042 2.689625 0.713929
v -3.139597 2.689625 0.714381
v -3.140415 2.698068 0.714406
v -3.140082 2.698068 0.714746
v -3.139506 2.698935 0.713244
v -3.138902 2.698935 0.713858
v -3.140029 2.701708 0.713913
v -3.139581 2.701708 0.714369
v -3.136292 2.730699 0.709134
v -3.134734 2.730699 0.710720
v -3.139481 2.701474 0.713212
v -3.138870 2.701474 0.713834
v -3.136684 2.728434 0.709635
v -3.135243 2.728434 0.711103
v -3.136276 2.729012 0.709114
v -3.134714 2.729012 0.710705
v -3.137419 2.730747 0.710575
v -3.136196 2.730747 0.711821
v -3.136847 2.722890 0.709844
v -3.135454 2.722890 0.711262
v -3.136446 2.722949 0.709331
v -3.134934 2.722949 0.710871
v -3.136444 2.724005 0.709328
v -3.134931 2.724005 0.710869
v -3.136735 2.723978 0.709701
v -3.135309 2.723978 0.711153
v -3.138420 2.677823 0.708504
v -3.141539 2.677823 0.715843
v -3.141539 2.677823 0.715843
v -3.141539 2.738556 0.715843
v -3.139774 2.688313 0.711689
v -3.140588 2.689625 0.713606
v -3.140826 2.698068 0.714165
v -3.140248 2.698935 0.712806
v -3.140580 2.701708 0.713588
v -3.138207 2.730699 0.708004
v -3.140232 2.701474 0.712769
v -3.138457 2.728434 0.708591
v -3.138198 2.729012 0.707981
v -3.138923 2.730747 0.709689
v -3.138560 2.722890 0.708834
v -3.138305 2.722949 0.708235
v -3.138304 2.724005 0.708231
v -3.138489 2.723978 0.708667
v -3.140426 2.677823 0.707947
v -3.141539 2.677823 0.715843
v -3.141539 2.677823 0.715843
v -3.141539 2.738556 0.715843
v -3.140909 2.688313 0.711374
v -3.141200 2.689625 0.713436
v -3.141284 2.698068 0.714037
v -3.141078 2.698935 0.712575
v -3.141197 2.701708 0.713416
v -3.140350 2.730699 0.707409
v -3.141073 2.701474 0.712535
v -3.140439 2.728434 0.708040
v -3.140346 2.729012 0.707384
v -3.140605 2.730747 0.709221
v -3.140476 2.722890 0.708302
v -3.140385 2.722949 0.707657
v -3.140384 2.724005 0.707653
v -3.140450 2.723978 0.708122
v -3.142507 2.677823 0.707928
v -3.141539 2.677823 0.715843
v -3.141539 2.677823 0.715843
v -3.141539 2.738556 0.715843
v -3.142087 2.688313 0.711363
v -3.141834 2.689625 0.713431
v -3.141760 2.698068 0.714033
v -3.141940 2.698935 0.712568
v -3.141836 2.701708 0.713411
v -3.142573 2.730699 0.707389
v -3.141945 2.701474 0.712527
v -3.142496 2.728434 0.708021
v -3.142576 2.729012 0.707364
v -3.142351 2.730747 0.709205
v -3.142464 2.722890 0.708283
v -3.142543 2.722949 0.707637
v -3.142543 2.724005 0.707633
v -3.142486 2.723978 0.708103
v -3.144523 2.677823 0.708448
v -3.141539 2.677823 0.715843
v -3.141539 2.677823 0.715843
v -3.141539 2.738556 0.715843
v -3.143228 2.688313 0.711658
v -3.142448 2.689625 0.713589
v -3.142221 2.698068 0.714152
v -3.142774 2.698935 0.712783
v -3.142456 2.701708 0.713570
v -3.144726 2.730699 0.707945
v -3.142789 2.701474 0.712745
v -3.144488 2.728434 0.708535
v -3.144736 2.729012 0.707921
v -3.144041 2.730747 0.709642
v -3.144389 2.722890 0.708780
v -3.144633 2.722949 0.708177
v -3.144634 2.724005 0.708173
v -3.144457 2.723978 0.708612
v -3.146335 2.677823 0.709472
v -3.141539 2.677823 0.715843
v -3.141539 2.677823 0.715843
v -3.141539 2.738556 0.715843
v -3.144254 2.688313 0.712237
v -3.143001 2.689625 0.713901
v -3.142636 2.698068 0.714386
v -3.143524 2.698935 0.713207
v -3.143013 2.701708 0.713885
v -3.146662 2.730699 0.709039
v -3.143548 2.701474 0.713174
v -3.146279 2.728434 0.709548
v -3.146677 2.729012 0.709019
v -3.145561 2.730747 0.710501
v -3.146120 2.722890 0.709759
v -3.146511 2.722949 0.709239
v -3.146514 2.724005 0.709236
v -3.146229 2.723978 0.709614
v -3.147821 2.677823 0.710931
v -3.141539 2.677823 0.715843
v -3.141539 2.677823 0.715843
v -3.141539 2.738556 0.715843
v -3.145094 2.688313 0.713063
v -3.143454 2.689625 0.714346
v -3.142976 2.698068 0.714720
v -3.144139 2.698935 0.713810
v -3.143470 2.701708 0.714334
v -3.148248 2.730699 0.710597
v -3.144171 2.701474 0.713785
v -3.147747 2.728434 0.710989
v -3.148268 2.729012 0.710581
v -3.146807 2.730747 0.711724
v -3.147539 2.722890 0.711152
v -3.148051 2.722949 0.710751
v -3.148054 2.724005 0.710748
v -3.147681 2.723978 0.711040
v -3.148878 2.677823 0.712724
v -3.141539 2.677823 0.715843
v -3.141539 2.677823 0.715843
v -3.141539 2.738556 0.715843
v -3.145693 2.688313 0.714078
v -3.143776 2.689625 0.714893
v -3.143218 2.698068 0.715130
v -3.144576 2.698935 0.714553
v -3.143795 2.701708 0.714885
v -3.149378 2.730699 0.712512
v -3.144614 2.701474 0.714537
v -3.148792 2.728434 0.712761
v -3.149401 2.729012 0.712502
v -3.147694 2.730747 0.713228
v -3.148548 2.722890 0.712864
v -3.149148 2.722949 0.712610
v -3.149151 2.724005 0.712608
v -3.148715 2.723978 0.712793
v -3.149436 2.677823 0.714730
v -3.141539 2.677823 0.715843
v -3.141539 2.677823 0.715843
v -3.141539 2.738556 0.715843
v -3.146008 2.688313 0.715213
v -3.143946 2.689625 0.715504
v -3.143345 2.698068 0.715589
v -3.144807 2.698935 0.715383
v -3.143966 2.701708 0.715501
v -3.149973 2.730699 0.714654
v -3.144847 2.701474 0.715377
v -3.149342 2.728434 0.714743
v -3.149998 2.729012 0.714651
v -3.148161 2.730747 0.714910
v -3.149081 2.722890 0.714780
v -3.149725 2.722949 0.714689
v -3.149729 2.724005 0.714689
v -3.149260 2.723978 0.714755
v -3.149455 2.677823 0.716812
v -3.141539 2.677823 0.715843
v -3.141539 2.677823 0.715843
v -3.141539 2.738556 0.715843
v -3.146019 2.688313 0.716391
v -3.143952 2.689625 0.716138
v -3.143349 2.698068 0.716065
v -3.144815 2.698935 0.716244
v -3.143972 2.701708 0.716141
v -3.149993 2.730699 0.716878
v -3.144855 2.701474 0.716249
v -3.149361 2.728434 0.716800
v -3.150018 2.729012 0.716881
v -3.148177 2.730747 0.716655
v -3.149099 2.722890 0.716768
v -3.149745 2.722949 0.716847
v -3.149749 2.724005 0.716848
v -3.149279 2.723978 0.716790
v -3.148934 2.677823 0.718828
v -3.141539 2.677823 0.715843
v -3.141539 2.677823 0.715843
v -3.141539 2.738556 0.715843
v -3.145725 2.688313 0.717532
v -3.143793 2.689625 0.716753
v -3.143230 2.698068 0.716526
v -3.144599 2.698935 0.717078
v -3.143812 2.701708 0.716760
v -3.149437 2.730699 0.719031
v -3.144637 2.701474 0.717093
v -3.148847 2.728434 0.718792
v -3.149461 2.729012 0.719040
v -3.147740 2.730747 0.718346
v -3.148602 2.722890 0.718693
v -3.149205 2.722949 0.718937
v -3.149209 2.724005 0.718938
v -3.148770 2.723978 0.718761
v -3.147910 2.677823 0.720640
v -3.141539 2.677823 0.715843
v -3.141539 2.677823 0.715843
v -3.141539 2.738556 0.715843
v -3.145145 2.688313 0.718558
v -3.143481 2.689625 0.717305
v -3.142996 2.698068 0.716940
v -3.144175 2.698935 0.717828
v -3.143497 2.701708 0.717317
v -3.148343 2.730699 0.720966
v -3.144208 2.701474 0.717853
v -3.147835 2.728434 0.720583
v -3.148364 2.729012 0.720982
v -3.146881 2.730747 0.719866
v -3.147624 2.722890 0.720424
v -3.148144 2.722949 0.720816
v -3.148147 2.724005 0.720818
v -3.147768 2.723978 0.720533
v -3.146451 2.677823 0.722125
v -3.141539 2.677823 0.715843
v -3.141539 2.677823 0.715843
v -3.141539 2.738556 0.715843
v -3.144319 2.688313 0.719399
v -3.143036 2.689625 0.717758
v -3.142663 2.698068 0.717280
v -3.143572 2.698935 0.718443
v -3.143049 2.701708 0.717774
v -3.146786 2.730699 0.722553
v -3.143597 2.701474 0.718475
v -3.146393 2.728434 0.722051
v -3.146801 2.729012 0.722573
v -3.145658 2.730747 0.721111
v -3.146230 2.722890 0.721843
v -3.146631 2.722949 0.722356
v -3.146634 2.724005 0.722359
v -3.146342 2.723978 0.721986
v -3.144658 2.677823 0.723183
v -3.141539 2.677823 0.715843
v -3.141539 2.677823 0.715843
v -3.141539 2.738556 0.715843
v -3.143304 2.688313 0.719997
v -3.142490 2.689625 0.718080
v -3.142252 2.698068 0.717522
v -3.142830 2.698935 0.718881
v -3.142498 2.701708 0.718099
v -3.144870 2.730699 0.723682
v -3.142845 2.701474 0.718918
v -3.144621 2.728434 0.723096
v -3.144880 2.729012 0.723706
v -3.144155 2.730747 0.721998
v -3.144518 2.722890 0.722853
v -3.144772 2.722949 0.723452
v -3.144774 2.724005 0.723455
v -3.144589 2.723978 0.723020
v -3.142652 2.677823 0.723740
v -3.141539 2.677823 0.715843
v -3.141539 2.677823 0.715843
v -3.141539 2.738556 0.715843
v -3.142169 2.688313 0.720313
v -3.141878 2.689625 0.718250
v -3.141793 2.698068 0.717649
v -3.141999 2.698935 0.719111
v -3.141881 2.701708 0.718270
v -3.142728 2.730699 0.724277
v -3.142005 2.701474 0.719151
v -3.142639 2.728434 0.723647
v -3.142731 2.729012 0.724302
v -3.142473 2.730747 0.722465
v -3.142602 2.722890 0.723385
v -3.142693 2.722949 0.724030
v -3.142694 2.724005 0.724033
v -3.142627 2.723978 0.723565
v -3.140570 2.677823 0.723759
v -3.141539 2.677823 0.715843
v -3.141539 2.677823 0.715843
v -3.141539 2.738556 0.715843
v -3.140991 2.688313 0.720323
v -3.141244 2.689625 0.718256
v -3.141317 2.698068 0.717654
v -3.141138 2.698935 0.719119
v -3.141241 2.701708 0.718276
v -3.140504 2.730699 0.724298
v -3.141133 2.701474 0.719159
v -3.140582 2.728434 0.723665
v -3.140501 2.729012 0.724323
v -3.140727 2.730747 0.722481
v -3.140614 2.722890 0.723403
v -3.140535 2.722949 0.724049
v -3.140534 2.724005 0.724053
v -3.140592 2.723978 0.723583
v -3.138555 2.677823 0.723239
v -3.141539 2.677823 0.715843
v -3.141539 2.677823 0.715843
v -3.141539 2.738556 0.715843
v -3.139850 2.688313 0.720029
v -3.140629 2.689625 0.718097
v -3.140856 2.698068 0.717535
v -3.140304 2.698935 0.718904
v -3.140622 2.701708 0.718116
v -3.138351 2.730699 0.723742
v -3.140289 2.701474 0.718941
v -3.138590 2.728434 0.723151
v -3.138342 2.729012 0.723765
v -3.139036 2.730747 0.722045
v -3.138689 2.722890 0.722906
v -3.138445 2.722949 0.723510
v -3.138444 2.724005 0.723513
v -3.138621 2.723978 0.723074
v -3.136742 2.677823 0.722214
v -3.141539 2.677823 0.715843
v -3.141539 2.677823 0.715843
v -3.141539 2.738556 0.715843
v -3.138824 2.688313 0.719449
v -3.140077 2.689625 0.717785
v -3.140442 2.698068 0.717301
v -3.139554 2.698935 0.718480
v -3.140065 2.701708 0.717801
v -3.136416 2.730699 0.722648
v -3.139529 2.701474 0.718512
v -3.136799 2.728434 0.722139
v -3.136401 2.729012 0.722668
v -3.137516 2.730747 0.721186
v -3.136958 2.722890 0.721928
v -3.136566 2.722949 0.722448
v -3.136564 2.724005 0.722451
v -3.136849 2.723978 0.722073
v -3.135257 2.677823 0.720756
v -3.141539 2.677823 0.715843
v -3.141539 2.677823 0.715843
v -3.141539 2.738556 0.715843
v -3.137983 2.688313 0.718624
v -3.139624 2.689625 0.717341
v -3.140102 2.698068 0.716967
v -3.138939 2.698935 0.717876
v -3.139608 2.701708 0.717353
v -3.134829 2.730699 0.721090
v -3.138907 2.701474 0.717901
v -3.135331 2.728434 0.720698
v -3.134809 2.729012 0.721106
v -3.136271 2.730747 0.719963
v -3.135539 2.722890 0.720535
v -3.135026 2.722949 0.720936
v -3.135023 2.724005 0.720938
v -3.135396 2.723978 0.720647
v -3.134199 2.677823 0.718962
v -3.141539 2.677823 0.715843
v -3.141539 2.677823 0.715843
v -3.141539 2.738556 0.715843
v -3.137385 2.688313 0.717609
v -3.139302 2.689625 0.716794
v -3.139860 2.698068 0.716557
v -3.138502 2.698935 0.717134
v -3.139283 2.701708 0.716802
v -3.133700 2.730699 0.719175
v -3.138464 2.701474 0.717150
v -3.134286 2.728434 0.718926
v -3.133677 2.729012 0.719185
v -3.135384 2.730747 0.718459
v -3.134529 2.722890 0.718822
v -3.133930 2.722949 0.719077
v -3.133927 2.724005 0.719078
v -3.134362 2.723978 0.718893
v -3.133642 2.677823 0.716957
v -3.141539 2.677823 0.715843
v -3.141539 2.677823 0.715843
v -3.141539 2.738556 0.715843
v -3.137069 2.688313 0.716473
v -3.139132 2.689625 0.716183
v -3.139733 2.698068 0.716098
v -3.138271 2.698935 0.716304
v -3.139112 2.701708 0.716185
v -3.133105 2.730699 0.717032
v -3.138231 2.701474 0.716310
v -3.133735 2.728434 0.716943
v -3.133080 2.729012 0.717036
v -3.134917 2.730747 0.716777
v -3.133997 2.722890 0.716907
v -3.133353 2.722949 0.716997
v -3.133349 2.724005 0.716998
v -3.133817 2.723978 0.716932
v -3.133623 2.677823 0.714875
v -3.141539 2.677823 0.715843
v -3.141539 2.677823 0.715843
v -3.141539 2.738556 0.715843
v -3.137059 2.688313 0.715295
v -3.139126 2.689625 0.715548
v -3.139728 2.698068 0.715622
v -3.138263 2.698935 0.715443
v -3.139106 2.701708 0.715546
v -3.133084 2.730699 0.714809
v -3.138223 2.701474 0.715438
v -3.133717 2.728434 0.714886
v -3.133059 2.729012 0.714806
v -3.134901 2.730747 0.715031
v -3.133979 2.722890 0.714918
v -3.133333 2.722949 0.714839
v -3.133329 2.724005 0.714839
v -3.133799 2.723978 0.714896
v -3.134144 2.677823 0.712859
v -3.141539 2.677823 0.715843
v -3.141539 2.677823 0.715843
v -3.141539 2.738556 0.715843
v -3.137353 2.688313 0.714154
v -3.139285 2.689625 0.714934
v -3.139847 2.698068 0.715161
v -3.138479 2.698935 0.714608
v -3.139266 2.701708 0.714926
v -3.133640 2.730699 0.712656
v -3.138441 2.701474 0.714593
v -3.134231 2.728434 0.712894
v -3.133617 2.729012 0.712647
v -3.135337 2.730747 0.713341
v -3.134476 2.722890 0.712993
v -3.133872 2.722949 0.712750
v -3.133869 2.724005 0.712748
v -3.134308 2.723978 0.712925
v -3.137933 2.683068 0.713129
v -3.137353 2.683068 0.714154
v -3.137059 2.683068 0.715295
v -3.137069 2.683068 0.716473
v -3.137385 2.683068 0.717609
v -3.137983 2.683068 0.718624
v -3.138824 2.683068 0.719449
v -3.139850 2.683068 0.720029
v -3.140991 2.683068 0.720323
v -3.142169 2.683068 0.720313
v -3.143304 2.683068 0.719997
v -3.144319 2.683068 0.719399
v -3.145145 2.683068 0.718558
v -3.145725 2.683068 0.717532
v -3.146019 2.683068 0.716391
v -3.146008 2.683068 0.715213
v -3.145693 2.683068 0.714078
v -3.145094 2.683068 0.713063
v -3.144254 2.683068 0.712237
v -3.143228 2.683068 0.711658
v -3.142087 2.683068 0.711363
v -3.140909 2.683068 0.711374
v -3.139774 2.683068 0.711689
v -3.138758 2.683068 0.712288
v -3.141539 2.677823 0.715843
v -3.141539 2.677823 0.715843
v -3.141539 2.677823 0.715843
v -3.141539 2.677823 0.715843
v -3.141539 2.677823 0.715843
v -3.141539 2.677823 0.715843
v -3.141539 2.677823 0.715843
v -3.141539 2.677823 0.715843
v -3.141539 2.677823 0.715843
v -3.141539 2.677823 0.715843
v -3.141539 2.677823 0.715843
v -3.141539 2.677823 0.715843
v -3.141539 2.677823 0.715843
v -3.141539 2.677823 0.715843
v -3.141539 2.677823 0.715843
v -3.141539 2.677823 0.715843
v -3.141539 2.677823 0.715843
v -3.141539 2.677823 0.715843
v -3.141539 2.677823 0.715843
v -3.141539 2.677823 0.715843
v -3.141539 2.677823 0.715843
v -3.141539 2.677823 0.715843
v -3.141539 2.677823 0.715843
v -3.141539 2.677823 0.715843
v -3.141539 2.677823 0.715843
v -3.141539 2.677823 0.715843
v -3.141539 2.677823 0.715843
v -3.141539 2.677823 0.715843
v -3.141539 2.677823 0.715843
v -3.141539 2.677823 0.715843
v -3.141539 2.677823 0.715843
v -3.141539 2.677823 0.715843
v -3.141539 2.677823 0.715843
v -3.141539 2.677823 0.715843
v -3.141539 2.677823 0.715843
v -3.141539 2.677823 0.715843
v -3.141539 2.677823 0.715843
v -3.141539 2.677823 0.715843
v -3.141539 2.677823 0.715843
v -3.141539 2.677823 0.715843
v -3.141539 2.677823 0.715843
v -3.141539 2.677823 0.715843
v -3.141539 2.677823 0.715843
v -3.141539 2.677823 0.715843
v -3.141539 2.677823 0.715843
v -3.141539 2.677823 0.715843
v -3.141539 2.677823 0.715843
v -3.141539 2.677823 0.715843
v -3.135168 2.681412 0.711047
v -3.134144 2.681412 0.712859
v -3.133623 2.681412 0.714875
v -3.133642 2.681412 0.716957
v -3.134199 2.681412 0.718962
v -3.135257 2.681412 0.720756
v -3.136742 2.681412 0.722214
v -3.138555 2.681412 0.723239
v -3.140570 2.681412 0.723759
v -3.142652 2.681412 0.723740
v -3.144658 2.681412 0.723183
v -3.146451 2.681412 0.722125
v -3.147910 2.681412 0.720640
v -3.148934 2.681412 0.718828
v -3.149455 2.681412 0.716812
v -3.149436 2.681412 0.714730
v -3.148878 2.681412 0.712724
v -3.147821 2.681412 0.710931
v -3.146335 2.681412 0.709472
v -3.144523 2.681412 0.708448
v -3.142507 2.681412 0.707928
v -3.140426 2.681412 0.707947
v -3.138420 2.681412 0.708504
v -3.136626 2.681412 0.709561
vn 0.7989 -0.0000 -0.6015
vn 0.4147 0.8547 -0.3122
vn 0.6015 -0.0000 0.7989
vn 0.4257 0.8462 -0.3205
vn 0.7846 0.1882 -0.5907
vn 0.4046 -0.8622 -0.3046
vn 0.7988 -0.0159 -0.6014
vn 0.7988 0.0188 -0.6014
vn 0.7974 -0.0615 -0.6003
vn 0.7982 -0.0412 -0.6010
vn 0.0211 0.9996 -0.0159
vn 0.7969 0.0714 -0.5999
vn 0.7244 -0.4216 -0.5454
vn 0.7216 -0.4292 -0.5432
vn 0.7790 -0.2220 -0.5865
vn 0.5252 -0.7535 -0.3954
vn 0.6529 0.5763 -0.4916
vn 0.5455 0.7306 -0.4107
vn 0.7394 0.3786 -0.5567
vn 0.7236 0.4238 -0.5448
vn 0.0718 -0.9960 -0.0540
vn 0.7989 -0.0036 -0.6015
vn -0.0448 0.9984 0.0337
vn 0.6160 -0.0000 -0.7877
vn 0.3197 0.8547 -0.4089
vn 0.7877 -0.0000 0.6160
vn 0.3282 0.8462 -0.4198
vn 0.6050 0.1882 -0.7737
vn 0.3120 -0.8622 -0.3990
vn 0.6159 -0.0159 -0.7876
vn 0.6159 0.0188 -0.7876
vn 0.6148 -0.0615 -0.7863
vn 0.6155 -0.0412 -0.7871
vn 0.0163 0.9996 -0.0209
vn 0.6144 0.0714 -0.7857
vn 0.5586 -0.4216 -0.7143
vn 0.5564 -0.4292 -0.7115
vn 0.6006 -0.2220 -0.7681
vn 0.4050 -0.7535 -0.5179
vn 0.5034 0.5763 -0.6438
vn 0.4206 0.7306 -0.5379
vn 0.5701 0.3786 -0.7291
vn 0.5579 0.4238 -0.7135
vn 0.0553 -0.9960 -0.0708
vn 0.6160 -0.0036 -0.7877
vn -0.0345 0.9984 0.0442
vn 0.3911 -0.0000 -0.9203
vn 0.2030 0.8547 -0.4777
vn 0.9203 -0.0000 0.3911
vn 0.2084 0.8462 -0.4904
vn 0.3841 0.1882 -0.9039
vn 0.1981 -0.8622 -0.4661
vn 0.3911 -0.0159 -0.9202
vn 0.3911 0.0188 -0.9202
vn 0.3904 -0.0615 -0.9186
vn 0.3908 -0.0412 -0.9196
vn 0.0104 0.9996 -0.0244
vn 0.3901 0.0714 -0.9180
vn 0.3547 -0.4216 -0.8346
vn 0.3533 -0.4292 -0.8313
vn 0.3814 -0.2220 -0.8974
vn 0.2571 -0.7535 -0.6051
vn 0.3197 0.5763 -0.7522
vn 0.2671 0.7306 -0.6284
vn 0.3620 0.3786 -0.8518
vn 0.3543 0.4238 -0.8336
vn 0.0351 -0.9960 -0.0827
vn 0.3911 -0.0036 -0.9203
vn -0.0219 0.9984 0.0516
vn 0.1396 -0.0000 -0.9902
vn 0.0725 0.8547 -0.5140
vn 0.9902 -0.0000 0.1396
vn 0.0744 0.8462 -0.5276
vn 0.1371 0.1882 -0.9725
vn 0.0707 -0.8622 -0.5015
vn 0.1396 -0.0159 -0.9901
vn 0.1396 0.0188 -0.9900
vn 0.1393 -0.0615 -0.9883
vn 0.1395 -0.0412 -0.9894
vn 0.0037 0.9996 -0.0262
vn 0.1392 0.0714 -0.9877
vn 0.1266 -0.4216 -0.8979
vn 0.1261 -0.4292 -0.8944
vn 0.1361 -0.2220 -0.9655
vn 0.0918 -0.7535 -0.6510
vn 0.1141 0.5763 -0.8093
vn 0.0953 0.7306 -0.6761
vn 0.1292 0.3786 -0.9165
vn 0.1264 0.4238 -0.8969
vn 0.0125 -0.9960 -0.0890
vn 0.1396 -0.0036 -0.9902
vn -0.0078 0.9984 0.0555
vn -0.1214 -0.0000 -0.9926
vn -0.0630 0.8547 -0.5152
vn 0.9926 -0.0000 -0.1214
vn -0.0647 0.8462 -0.5289
vn -0.1193 0.1882 -0.9749
vn -0.0615 -0.8622 -0.5027
vn -0.1214 -0.0159 -0.9925
vn -0.1214 0.0188 -0.9924
vn -0.1212 -0.0615 -0.9907
vn -0.1213 -0.0412 -0.9918
vn -0.0032 0.9996 -0.0263
vn -0.1211 0.0714 -0.9901
vn -0.1101 -0.4216 -0.9001
vn -0.1097 -0.4292 -0.8965
vn -0.1184 -0.2220 -0.9678
vn -0.0798 -0.7535 -0.6526
vn -0.0993 0.5763 -0.8112
vn -0.0829 0.7306 -0.6777
vn -0.1124 0.3786 -0.9187
vn -0.1100 0.4238 -0.8990
vn -0.0109 -0.9960 -0.0892
vn -0.1214 -0.0036 -0.9926
vn 0.0068 0.9984 0.0556
vn -0.3742 -0.0000 -0.9273
vn -0.1942 0.8547 -0.4813
vn 0.9273 -0.0000 -0.3742
vn -0.1994 0.8462 -0.4941
vn -0.3675 0.1882 -0.9108
vn -0.1895 -0.8622 -0.4697
vn -0.3742 -0.0159 -0.9272
vn -0.3741 0.0188 -0.9272
vn -0.3735 -0.0615 -0.9256
vn -0.3739 -0.0412 -0.9266
vn -0.0099 0.9996 -0.0245
vn -0.3733 0.0714 -0.9250
vn -0.3393 -0.4216 -0.8409
vn -0.3380 -0.4292 -0.8376
vn -0.3649 -0.2220 -0.9042
vn -0.2460 -0.7535 -0.6097
vn -0.3058 0.5763 -0.7579
vn -0.2555 0.7306 -0.6332
vn -0.3463 0.3786 -0.8583
vn -0.3389 0.4238 -0.8399
vn -0.0336 -0.9960 -0.0833
vn -0.3742 -0.0036 -0.9273
vn 0.0210 0.9984 0.0520
vn -0.6015 -0.0000 -0.7989
vn -0.3122 0.8547 -0.4147
vn -0.3205 0.8462 -0.4257
vn -0.5907 0.1882 -0.7846
vn -0.3046 -0.8622 -0.4046
vn -0.6014 -0.0159 -0.7988
vn -0.6014 0.0188 -0.7988
vn -0.6003 -0.0615 -0.7974
vn -0.6010 -0.0412 -0.7982
vn -0.0159 0.9996 -0.0211
vn -0.5999 0.0714 -0.7969
vn -0.5454 -0.4216 -0.7244
vn -0.5433 -0.4292 -0.7216
vn -0.5865 -0.2220 -0.7790
vn -0.3954 -0.7535 -0.5252
vn -0.4916 0.5763 -0.6529
vn -0.4107 0.7306 -0.5455
vn -0.5567 0.3786 -0.7394
vn -0.5448 0.4238 -0.7236
vn -0.0540 -0.9960 -0.0718
vn -0.6015 -0.0036 -0.7989
vn 0.0337 0.9984 0.0448
vn -0.7877 -0.0000 -0.6160
vn -0.4089 0.8547 -0.3197
vn -0.4198 0.8462 -0.3282
vn -0.7737 0.1882 -0.6050
vn -0.3990 -0.8622 -0.3120
vn -0.7876 -0.0159 -0.6159
vn -0.7876 0.0188 -0.6159
vn -0.7863 -0.0615 -0.6148
vn -0.7871 -0.0412 -0.6155
vn -0.0208 0.9996 -0.0163
vn -0.7857 0.0714 -0.6144
vn -0.7143 -0.4216 -0.5586
vn -0.7115 -0.4292 -0.5564
vn -0.7681 -0.2220 -0.6006
vn -0.5179 -0.7535 -0.4050
vn -0.6438 0.5763 -0.5034
vn -0.5379 0.7306 -0.4206
vn -0.7291 0.3786 -0.5701
vn -0.7135 0.4238 -0.5579
vn -0.0708 -0.9960 -0.0553
vn -0.7877 -0.0036 -0.6160
vn 0.0442 0.9984 0.0345
vn -0.9203 -0.0000 -0.3911
vn -0.4777 0.8547 -0.2030
vn -0.4904 0.8462 -0.2084
vn -0.9039 0.1882 -0.3841
vn -0.4661 -0.8622 -0.1981
vn -0.9202 -0.0159 -0.3911
vn -0.9202 0.0188 -0.3911
vn -0.9186 -0.0615 -0.3904
vn -0.9196 -0.0412 -0.3908
vn -0.0244 0.9996 -0.0104
vn -0.9180 0.0714 -0.3901
vn -0.8346 -0.4216 -0.3547
vn -0.8313 -0.4292 -0.3533
vn -0.8974 -0.2220 -0.3814
vn -0.6051 -0.7535 -0.2571
vn -0.7522 0.5763 -0.3197
vn -0.6284 0.7306 -0.2671
vn -0.8518 0.3786 -0.3620
vn -0.8336 0.4238 -0.3543
vn -0.0827 -0.9960 -0.0351
vn -0.9203 -0.0036 -0.3911
vn 0.0516 0.9984 0.0219
vn -0.9902 -0.0000 -0.1396
vn -0.5140 0.8548 -0.0725
vn -0.5276 0.8462 -0.0744
vn -0.9725 0.1882 -0.1371
vn -0.5015 -0.8622 -0.0707
vn -0.9901 -0.0159 -0.1396
vn -0.9900 0.0188 -0.1396
vn -0.9883 -0.0615 -0.1393
vn -0.9894 -0.0412 -0.1395
vn -0.0262 0.9996 -0.0037
vn -0.9877 0.0714 -0.1392
vn -0.8979 -0.4216 -0.1266
vn -0.8944 -0.4292 -0.1261
vn -0.9655 -0.2220 -0.1361
vn -0.6510 -0.7535 -0.0918
vn -0.8093 0.5763 -0.1141
vn -0.6761 0.7306 -0.0953
vn -0.9165 0.3786 -0.1292
vn -0.8969 0.4238 -0.1264
vn -0.0890 -0.9960 -0.0125
vn -0.9902 -0.0036 -0.1396
vn 0.0555 0.9984 0.0078
vn -0.9926 -0.0000 0.1214
vn -0.5152 0.8547 0.0630
vn -0.5289 0.8462 0.0647
vn -0.9749 0.1882 0.1193
vn -0.5027 -0.8622 0.0615
vn -0.9925 -0.0159 0.1214
vn -0.9924 0.0188 0.1214
vn -0.9907 -0.0615 0.1212
vn -0.9918 -0.0412 0.1213
vn -0.0263 0.9996 0.0032
vn -0.9901 0.0714 0.1211
vn -0.9001 -0.4216 0.1101
vn -0.8965 -0.4292 0.1097
vn -0.9678 -0.2220 0.1184
vn -0.6526 -0.7535 0.0798
vn -0.8112 0.5763 0.0993
vn -0.6777 0.7306 0.0829
vn -0.9187 0.3786 0.1124
vn -0.8990 0.4238 0.1100
vn -0.0892 -0.9960 0.0109
vn -0.9926 -0.0036 0.1214
vn 0.0556 0.9984 -0.0068
vn -0.9273 -0.0000 0.3742
vn -0.4813 0.8547 0.1942
vn -0.4941 0.8462 0.1994
vn -0.9108 0.1882 0.3675
vn -0.4697 -0.8622 0.1895
vn -0.9272 -0.0159 0.3742
vn -0.9272 0.0188 0.3741
vn -0.9256 -0.0615 0.3735
vn -0.9266 -0.0412 0.3739
vn -0.0245 0.9996 0.0099
vn -0.9250 0.0714 0.3733
vn -0.8409 -0.4216 0.3393
vn -0.8376 -0.4292 0.3380
vn -0.9042 -0.2220 0.3649
vn -0.6097 -0.7535 0.2460
vn -0.7579 0.5763 0.3058
vn -0.6332 0.7306 0.2555
vn -0.8583 0.3786 0.3463
vn -0.8399 0.4238 0.3389
vn -0.0833 -0.9960 0.0336
vn -0.9273 -0.0036 0.3742
vn 0.0520 0.9984 -0.0210
vn -0.7989 -0.0000 0.6015
vn -0.4147 0.8547 0.3122
vn -0.4257 0.8462 0.3205
vn -0.7846 0.1882 0.5907
vn -0.4046 -0.8622 0.3046
vn -0.7988 -0.0159 0.6014
vn -0.7988 0.0188 0.6014
vn -0.7974 -0.0615 0.6003
vn -0.7982 -0.0412 0.6010
vn -0.0211 0.9996 0.0159
vn -0.7969 0.0714 0.5999
vn -0.7244 -0.4216 0.5454
vn -0.7216 -0.4292 0.5433
vn -0.7790 -0.2220 0.5865
vn -0.5252 -0.7535 0.3954
vn -0.6529 0.5763 0.4916
vn -0.5455 0.7306 0.4107
vn -0.7394 0.3786 0.5567
vn -0.7236 0.4238 0.5448
vn -0.0718 -0.9960 0.0540
vn -0.7989 -0.0036 0.6015
vn 0.0448 0.9984 -0.0337
vn -0.6160 -0.0000 0.7877
vn -0.3197 0.8547 0.4089
vn -0.3282 0.8462 0.4198
vn -0.6050 0.1882 0.7737
vn -0.3120 -0.8622 0.3990
vn -0.6159 -0.0159 0.7876
vn -0.6159 0.0188 0.7876
vn -0.6148 -0.0615 0.7863
vn -0.6155 -0.0412 0.7871
vn -0.0163 0.9996 0.0209
vn -0.6144 0.0714 0.7857
vn -0.5586 -0.4216 0.7143
vn -0.5564 -0.4292 0.7115
vn -0.6006 -0.2220 0.7681
vn -0.4050 -0.7535 0.5179
vn -0.5034 0.5763 0.6438
vn -0.4206 0.7306 0.5379
vn -0.5701 0.3786 0.7291
vn -0.5579 0.4238 0.7135
vn -0.0553 -0.9960 0.0708
vn -0.6160 -0.0036 0.7877
vn 0.0345 0.9984 -0.0442
vn -0.3911 -0.0000 0.9203
vn -0.2030 0.8547 0.4777
vn -0.2084 0.8462 0.4904
vn -0.3841 0.1882 0.9039
vn -0.1981 -0.8622 0.4661
vn -0.3911 -0.0159 0.9202
vn -0.3911 0.0188 0.9202
vn -0.3904 -0.0615 0.9186
vn -0.3908 -0.0412 0.9196
vn -0.0104 0.9996 0.0244
vn -0.3901 0.0714 0.9180
vn -0.3547 -0.4216 0.8346
vn -0.3533 -0.4292 0.8313
vn -0.3814 -0.2220 0.8974
vn -0.2571 -0.7535 0.6051
vn -0.3196 0.5763 0.7522
vn -0.2671 0.7306 0.6284
vn -0.3620 0.3786 0.8518
vn -0.3543 0.4238 0.8336
vn -0.0351 -0.9960 0.0827
vn -0.3911 -0.0036 0.9203
vn 0.0219 0.9984 -0.0516
vn -0.1396 -0.0000 0.9902
vn -0.0725 0.8547 0.5140
vn -0.0744 0.8462 0.5276
vn -0.1371 0.1882 0.9725
vn -0.0707 -0.8622 0.5015
vn -0.1396 -0.0159 0.9901
vn -0.1396 0.0188 0.9900
vn -0.1393 -0.0615 0.9883
vn -0.1395 -0.0412 0.9894
vn -0.0037 0.9996 0.0262
vn -0.1392 0.0714 0.9877
vn -0.1266 -0.4216 0.8979
vn -0.1261 -0.4292 0.8944
vn -0.1361 -0.2220 0.9655
vn -0.0918 -0.7535 0.6510
vn -0.1141 0.5763 0.8093
vn -0.0953 0.7306 0.6761
vn -0.1292 0.3786 0.9165
vn -0.1264 0.4238 0.8969
vn -0.0125 -0.9960 0.0890
vn -0.1396 -0.0036 0.9902
vn 0.0078 0.9984 -0.0555
vn 0.1214 -0.0000 0.9926
vn 0.0630 0.8547 0.5152
vn 0.0647 0.8462 0.5289
vn 0.1193 0.1882 0.9749
vn 0.0615 -0.8622 0.5027
vn 0.1214 -0.0159 0.9925
vn 0.1214 0.0188 0.9924
vn 0.1212 -0.0615 0.9907
vn 0.1213 -0.0412 0.9918
vn 0.0032 0.9996 0.0263
vn 0.1211 0.0714 0.9901
vn 0.1101 -0.4216 0.9001
vn 0.1097 -0.4292 0.8965
vn 0.1184 -0.2220 0.9678
vn 0.0798 -0.7535 0.6526
vn 0.0993 0.5763 0.8112
vn 0.0829 0.7306 0.6777
vn 0.1124 0.3786 0.9187
vn 0.1100 0.4238 0.8990
vn 0.0109 -0.9960 0.0892
vn 0.1214 -0.0036 0.9926
vn -0.0068 0.9984 -0.0556
vn 0.3742 -0.0000 0.9273
vn 0.1942 0.8547 0.4813
vn 0.1994 0.8462 0.4941
vn 0.3675 0.1882 0.9108
vn 0.1895 -0.8622 0.4697
vn 0.3742 -0.0159 0.9272
vn 0.3741 0.0188 0.9272
vn 0.3735 -0.0615 0.9256
vn 0.3739 -0.0412 0.9266
vn 0.0099 0.9996 0.0245
vn 0.3733 0.0714 0.9250
vn 0.3393 -0.4216 0.8409
vn 0.3380 -0.4292 0.8376
vn 0.3649 -0.2220 0.9042
vn 0.2460 -0.7535 0.6097
vn 0.3058 0.5763 0.7579
vn 0.2555 0.7306 0.6332
vn 0.3463 0.3786 0.8583
vn 0.3389 0.4238 0.8399
vn 0.0336 -0.9960 0.0833
vn 0.3742 -0.0036 0.9273
vn -0.0210 0.9984 -0.0520
vn 0.3122 0.8547 0.4147
vn 0.3205 0.8462 0.4257
vn 0.5907 0.1882 0.7846
vn 0.3046 -0.8622 0.4046
vn 0.6014 -0.0159 0.7988
vn 0.6014 0.0188 0.7988
vn 0.6003 -0.0615 0.7974
vn 0.6010 -0.0412 0.7982
vn 0.0159 0.9996 0.0211
vn 0.5999 0.0714 0.7969
vn 0.5454 -0.4216 0.7244
vn 0.5433 -0.4292 0.7216
vn 0.5865 -0.2220 0.7790
vn 0.3954 -0.7535 0.5252
vn 0.4916 0.5763 0.6529
vn 0.4107 0.7306 0.5455
vn 0.5567 0.3786 0.7394
vn 0.5448 0.4238 0.7236
vn 0.0540 -0.9960 0.0718
vn 0.6015 -0.0036 0.7989
vn -0.0337 0.9984 -0.0448
vn 0.4089 0.8547 0.3197
vn 0.4197 0.8462 0.3282
vn 0.7737 0.1882 0.6050
vn 0.3990 -0.8622 0.3120
vn 0.7876 -0.0159 0.6159
vn 0.7876 0.0188 0.6159
vn 0.7863 -0.0615 0.6148
vn 0.7871 -0.0412 0.6155
vn 0.0208 0.9996 0.0163
vn 0.7857 0.0714 0.6144
vn 0.7143 -0.4216 0.5586
vn 0.7115 -0.4292 0.5564
vn 0.7681 -0.2220 0.6006
vn 0.5179 -0.7535 0.4050
vn 0.6438 0.5763 0.5034
vn 0.5379 0.7306 0.4206
vn 0.7291 0.3786 0.5701
vn 0.7135 0.4238 0.5579
vn 0.0708 -0.9960 0.0553
vn 0.7877 -0.0036 0.6160
vn -0.0442 0.9984 -0.0345
vn 0.4777 0.8547 0.2030
vn 0.4904 0.8462 0.2084
vn 0.9039 0.1882 0.3841
vn 0.4661 -0.8622 0.1981
vn 0.9202 -0.0159 0.3911
vn 0.9202 0.0188 0.3911
vn 0.9186 -0.0615 0.3904
vn 0.9196 -0.0412 0.3908
vn 0.0244 0.9996 0.0104
vn 0.9180 0.0714 0.3901
vn 0.8346 -0.4216 0.3547
vn 0.8313 -0.4292 0.3533
vn 0.8974 -0.2220 0.3814
vn 0.6051 -0.7535 0.2571
vn 0.7522 0.5763 0.3196
vn 0.6284 0.7306 0.2671
vn 0.8518 0.3786 0.3620
vn 0.8336 0.4238 0.3543
vn 0.0827 -0.9960 0.0351
vn 0.9203 -0.0036 0.3911
vn -0.0516 0.9984 -0.0219
vn 0.5140 0.8547 0.0725
vn 0.5276 0.8462 0.0744
vn 0.9725 0.1882 0.1371
vn 0.5015 -0.8622 0.0707
vn 0.9901 -0.0159 0.1396
vn 0.9900 0.0188 0.1396
vn 0.9883 -0.0615 0.1393
vn 0.9894 -0.0412 0.1395
vn 0.0262 0.9996 0.0037
vn 0.9877 0.0714 0.1392
vn 0.8979 -0.4216 0.1266
vn 0.8944 -0.4292 0.1261
vn 0.9655 -0.2220 0.1361
vn 0.6510 -0.7535 0.0918
vn 0.8093 0.5763 0.1141
vn 0.6761 0.7306 0.0953
vn 0.9165 0.3786 0.1292
vn 0.8969 0.4238 0.1264
vn 0.0890 -0.9960 0.0125
vn 0.9902 -0.0036 0.1396
vn -0.0555 0.9984 -0.0078
vn 0.5152 0.8547 -0.0630
vn 0.5289 0.8462 -0.0647
vn 0.9749 0.1882 -0.1193
vn 0.5027 -0.8622 -0.0615
vn 0.9925 -0.0159 -0.1214
vn 0.9924 0.0188 -0.1214
vn 0.9907 -0.0615 -0.1212
vn 0.9918 -0.0412 -0.1213
vn 0.0263 0.9996 -0.0032
vn 0.9901 0.0714 -0.1211
vn 0.9001 -0.4216 -0.1101
vn 0.8965 -0.4292 -0.1097
vn 0.9678 -0.2220 -0.1184
vn 0.6526 -0.7535 -0.0798
vn 0.8112 0.5763 -0.0993
vn 0.6777 0.7306 -0.0829
vn 0.9187 0.3786 -0.1124
vn 0.8990 0.4238 -0.1100
vn 0.0892 -0.9960 -0.0109
vn 0.9926 -0.0036 -0.1214
vn -0.0556 0.9984 0.0068
vn 0.4813 0.8547 -0.1942
vn 0.4941 0.8462 -0.1994
vn 0.9108 0.1882 -0.3675
vn 0.4697 -0.8622 -0.1895
vn 0.9272 -0.0159 -0.3742
vn 0.9272 0.0188 -0.3741
vn 0.9256 -0.0615 -0.3735
vn 0.9266 -0.0412 -0.3739
vn 0.0245 0.9996 -0.0099
vn 0.9250 0.0714 -0.3733
vn 0.8409 -0.4216 -0.3393
vn 0.8376 -0.4292 -0.3380
vn 0.9042 -0.2220 -0.3649
vn 0.6097 -0.7535 -0.2460
vn 0.7579 0.5763 -0.3058
vn 0.6332 0.7306 -0.2555
vn 0.8583 0.3786 -0.3463
vn 0.8399 0.4238 -0.3389
vn 0.0833 -0.9960 -0.0336
vn 0.9273 -0.0036 -0.3742
vn -0.0520 0.9984 0.0210
vn 0.3449 0.9020 -0.2597
vn 0.2659 0.9020 -0.3401
vn 0.1689 0.9020 -0.3973
vn 0.0603 0.9020 -0.4275
vn -0.0524 0.9020 -0.4285
vn -0.1616 0.9020 -0.4004
vn -0.2597 0.9020 -0.3449
vn -0.3401 0.9020 -0.2659
vn -0.3973 0.9020 -0.1689
vn -0.4275 0.9020 -0.0603
vn -0.4285 0.9020 0.0524
vn -0.4004 0.9020 0.1616
vn -0.3449 0.9020 0.2597
vn -0.2659 0.9020 0.3401
vn -0.1689 0.9020 0.3973
vn -0.0603 0.9020 0.4275
vn 0.0524 0.9020 0.4285
vn 0.1616 0.9020 0.4004
vn 0.2597 0.9020 0.3449
vn 0.3401 0.9020 0.2659
vn 0.3973 0.9020 0.1689
vn 0.4275 0.9020 0.0603
vn 0.4285 0.9020 -0.0524
vn 0.4004 0.9020 -0.1616
vn -0.0000 -1.0000 -0.0000
vn -0.6642 0.5874 0.4623
vn -0.5662 0.1317 -0.8137
vn 0.3282 0.8462 -0.4197
vn 0.6153 -0.0478 -0.7868
vn 0.7980 -0.0478 -0.6008
vn 0.1567 0.9671 -0.2004
vn 0.2032 0.9671 -0.1530
vn 0.6159 0.0150 -0.7877
vn 0.7988 0.0150 -0.6014
vn 0.6160 0.0030 -0.7877
vn 0.7989 0.0030 -0.6015
vn 0.0163 0.9996 -0.0208
vn 0.5747 -0.3602 -0.7349
vn 0.7453 -0.3602 -0.5611
vn 0.6137 -0.0855 -0.7849
vn 0.7960 -0.0855 -0.5993
vn 0.1297 0.3520 0.9270
vn 0.3907 -0.0478 -0.9193
vn 0.0995 0.9671 -0.2341
vn 0.3911 0.0150 -0.9202
vn 0.3911 0.0030 -0.9203
vn 0.3649 -0.3602 -0.8586
vn 0.3897 -0.0855 -0.9170
vn 0.0001 -1.0000 0.0001
vn 0.1299 0.2934 0.9471
vn 0.1394 -0.0478 -0.9891
vn 0.0355 0.9671 -0.2519
vn 0.1396 0.0150 -0.9901
vn 0.1396 0.0030 -0.9902
vn 0.1302 -0.3602 -0.9237
vn 0.0125 -0.9960 -0.0889
vn 0.1391 -0.0855 -0.9866
vn -0.8789 0.2442 -0.4098
vn -0.1213 -0.0478 -0.9915
vn -0.0309 0.9671 -0.2525
vn -0.1214 0.0150 -0.9925
vn -0.1214 0.0030 -0.9926
vn -0.1133 -0.3602 -0.9260
vn -0.1210 -0.0855 -0.9890
vn -0.8744 0.3698 0.3141
vn -0.3738 -0.0478 -0.9263
vn -0.0952 0.9671 -0.2359
vn -0.3742 0.0150 -0.9272
vn -0.3742 0.0030 -0.9273
vn -0.3491 -0.3602 -0.8651
vn -0.3728 -0.0855 -0.9239
vn -0.1618 0.2828 0.9454
vn -0.6008 -0.0478 -0.7980
vn -0.1530 0.9671 -0.2032
vn -0.6014 0.0150 -0.7988
vn -0.6015 0.0030 -0.7989
vn -0.5611 -0.3602 -0.7453
vn -0.5993 -0.0855 -0.7960
vn -0.8554 0.2175 -0.4701
vn -0.4197 0.8462 -0.3282
vn -0.7868 -0.0478 -0.6153
vn -0.2004 0.9671 -0.1567
vn -0.7877 0.0150 -0.6159
vn -0.7877 0.0030 -0.6160
vn -0.7349 -0.3602 -0.5747
vn -0.7849 -0.0855 -0.6137
vn -0.8792 0.2631 -0.3972
vn -0.9193 -0.0478 -0.3907
vn -0.2341 0.9671 -0.0995
vn -0.9202 0.0150 -0.3911
vn -0.9203 0.0030 -0.3911
vn -0.8586 -0.3602 -0.3649
vn -0.9170 -0.0855 -0.3897
vn -0.8601 0.2795 -0.4267
vn -0.9891 -0.0478 -0.1394
vn -0.2519 0.9671 -0.0355
vn -0.9901 0.0150 -0.1396
vn -0.9902 0.0030 -0.1396
vn -0.9237 -0.3602 -0.1302
vn -0.9866 -0.0855 -0.1391
vn 0.4663 0.1640 0.8693
vn -0.9915 -0.0478 0.1213
vn -0.2525 0.9671 0.0309
vn -0.9925 0.0150 0.1214
vn -0.9926 0.0030 0.1214
vn -0.9260 -0.3602 0.1133
vn -0.9890 -0.0855 0.1210
vn 0.4480 0.3296 0.8310
vn -0.9263 -0.0478 0.3738
vn -0.2359 0.9671 0.0952
vn -0.9272 0.0150 0.3742
vn -0.9273 0.0030 0.3742
vn -0.8651 -0.3602 0.3491
vn -0.9239 -0.0855 0.3728
vn 0.5662 0.1317 0.8137
vn -0.7980 -0.0478 0.6008
vn -0.2032 0.9671 0.1530
vn -0.7988 0.0150 0.6014
vn -0.7989 0.0030 0.6015
vn -0.7453 -0.3602 0.5611
vn -0.7960 -0.0855 0.5993
vn 0.6643 0.5874 -0.4621
vn -0.3282 0.8462 0.4197
vn -0.6153 -0.0478 0.7868
vn -0.1567 0.9671 0.2004
vn -0.6159 0.0150 0.7877
vn -0.6160 0.0030 0.7877
vn -0.0163 0.9996 0.0208
vn -0.5747 -0.3602 0.7349
vn -0.6137 -0.0855 0.7849
vn -0.1297 0.3520 -0.9270
vn -0.3907 -0.0478 0.9193
vn -0.0995 0.9671 0.2341
vn -0.3911 0.0150 0.9202
vn -0.3911 0.0030 0.9203
vn -0.3649 -0.3602 0.8586
vn -0.3897 -0.0855 0.9170
vn -0.1299 0.2934 -0.9471
vn -0.1394 -0.0478 0.9891
vn -0.0355 0.9671 0.2519
vn -0.1396 0.0150 0.9901
vn -0.1396 0.0030 0.9902
vn -0.1302 -0.3602 0.9237
vn -0.0125 -0.9960 0.0889
vn -0.1391 -0.0855 0.9866
vn 0.8789 0.2442 0.4098
vn 0.1213 -0.0478 0.9915
vn 0.0309 0.9671 0.2525
vn 0.1214 0.0150 0.9925
vn 0.1214 0.0030 0.9926
vn 0.1133 -0.3602 0.9260
vn 0.1210 -0.0855 0.9890
vn 0.8744 0.3698 -0.3141
vn 0.3738 -0.0478 0.9263
vn 0.0952 0.9671 0.2359
vn 0.3742 0.0150 0.9272
vn 0.3742 0.0030 0.9273
vn 0.3491 -0.3602 0.8651
vn 0.3728 -0.0855 0.9239
vn 0.8315 0.1791 0.5259
vn 0.6008 -0.0478 0.7980
vn 0.1530 0.9671 0.2032
vn 0.6014 0.0150 0.7988
vn 0.6015 0.0030 0.7989
vn 0.5611 -0.3602 0.7453
vn 0.5993 -0.0855 0.7960
vn 0.7788 0.1634 0.6056
vn 0.7868 -0.0478 0.6153
vn 0.2004 0.9671 0.1567
vn 0.7877 0.0150 0.6159
vn 0.7877 0.0030 0.6160
vn 0.7349 -0.3602 0.5747
vn 0.7849 -0.0855 0.6137
vn -0.4524 0.1574 -0.8778
vn 0.9193 -0.0478 0.3907
vn 0.2341 0.9671 0.0995
vn 0.9202 0.0150 0.3911
vn 0.9203 0.0030 0.3911
vn 0.8586 -0.3602 0.3649
vn 0.9170 -0.0855 0.3897
vn 0.8759 0.3315 0.3506
vn 0.9891 -0.0478 0.1394
vn 0.2519 0.9671 0.0355
vn 0.9901 0.0150 0.1396
vn 0.9902 0.0030 0.1396
vn 0.9237 -0.3602 0.1302
vn 0.9866 -0.0855 0.1391
vn -0.4683 0.1640 -0.8682
vn 0.9915 -0.0478 -0.1213
vn 0.2525 0.9671 -0.0309
vn 0.9925 0.0150 -0.1214
vn 0.9926 0.0030 -0.1214
vn 0.9260 -0.3602 -0.1133
vn 0.9890 -0.0855 -0.1210
vn -0.4483 0.3296 -0.8309
vn 0.9263 -0.0478 -0.3738
vn 0.2359 0.9671 -0.0952
vn 0.9272 0.0150 -0.3742
vn 0.9273 0.0030 -0.3742
vn 0.8651 -0.3602 -0.3491
vn 0.9239 -0.0855 -0.3728
vn 0.5994 -0.0830 0.7961
s 1
f 1203//730 745//553 746//553
f 1201//730 781//553 745//553
f 1205//730 799//577 781//553
f 1207//730 817//553 799//577
f 1209//730 835//553 817//553
f 1211//730 853//553 835//553
f 1213//730 871//577 853//553
f 1215//730 889//553 871//577
f 1217//730 907//577 889//553
f 1219//730 925//553 907//577
f 1221//730 943//553 925//553
f 1223//730 961//553 943//553
f 1225//730 979//553 961//553
f 1227//730 997//577 979//553
f 1229//730 1015//553 997//577
f 1231//730 1033//577 1015//553
f 1233//730 1051//553 1033//577
f 1235//730 1069//553 1051//553
f 1237//730 1087//553 1069//553
f 1239//730 1105//577 1087//553
f 1241//730 1123//577 1105//577
f 1243//730 1141//553 1123//577
f 1245//730 1159//577 1141//553
f 1247//730 746//553 1159//577
f 49//41 2//2 21//18
f 77//64 30//25 49//41
f 105//87 58//48 77//64
f 133//110 86//71 105//87
f 161//133 114//94 133//110
f 161//133 170//140 142//117
f 217//177 170//140 189//155
f 217//177 226//184 198//162
f 273//221 226//184 245//199
f 301//243 254//206 273//221
f 301//243 310//250 282//228
f 357//287 310//250 329//265
f 385//309 338//272 357//287
f 413//331 366//294 385//309
f 441//353 394//316 413//331
f 469//375 422//338 441//353
f 497//397 450//360 469//375
f 497//397 506//403 478//382
f 553//439 506//403 525//418
f 553//439 562//445 534//424
f 609//481 562//445 581//460
f 637//502 590//466 609//481
f 665//523 618//487 637//502
f 21//18 646//508 665//523
f 30//25 752//555 2//2
f 58//48 751//554 30//25
f 86//71 784//570 58//48
f 114//94 802//578 86//71
f 142//117 820//586 114//94
f 170//140 838//593 142//117
f 198//162 856//600 170//140
f 226//184 874//607 198//162
f 254//206 892//615 226//184
f 282//228 910//622 254//206
f 310//250 928//629 282//228
f 338//272 946//636 310//250
f 366//294 964//643 338//272
f 394//316 982//650 366//294
f 422//338 1000//659 394//316
f 450//360 1018//666 422//338
f 478//382 1036//674 450//360
f 506//403 1054//681 478//382
f 534//424 1072//688 506//403
f 562//445 1090//695 534//424
f 590//466 1108//702 562//445
f 618//487 1126//709 590//466
f 646//508 1144//716 618//487
f 2//2 1162//723 646//508
f 4//3 747//3 749//3
f 32//26 782//3 747//3
f 60//49 800//3 782//3
f 88//72 818//3 800//3
f 116//95 836//3 818//3
f 144//118 854//3 836//3
f 172//1 872//3 854//3
f 200//24 890//3 872//3
f 228//47 908//3 890//3
f 256//70 926//3 908//3
f 284//93 944//3 926//3
f 312//116 962//3 944//3
f 340//139 980//3 962//3
f 368//161 998//3 980//3
f 396//183 1016//3 998//3
f 424//205 1034//3 1016//3
f 452//227 1052//3 1034//3
f 480//249 1070//3 1052//3
f 508//271 1088//3 1070//3
f 536//293 1106//3 1088//3
f 564//315 1124//3 1106//3
f 592//337 1142//3 1124//3
f 620//359 1160//3 1142//3
f 648//381 749//3 1160//3
f 1200//24 754//1 1177//1
f 1199//47 753//24 1200//24
f 1198//70 785//47 1199//47
f 1197//93 803//70 1198//70
f 1196//116 821//93 1197//93
f 1195//139 839//116 1196//116
f 1194//161 857//139 1195//139
f 1193//183 875//161 1194//161
f 1192//205 893//183 1193//183
f 1191//227 911//205 1192//205
f 1190//249 929//227 1191//227
f 1189//271 947//249 1190//249
f 1188//293 965//271 1189//271
f 1187//315 983//293 1188//293
f 1186//337 1001//315 1187//315
f 1185//359 1019//337 1186//337
f 1184//381 1037//359 1185//359
f 1183//3 1055//381 1184//381
f 1182//26 1073//3 1183//3
f 1181//49 1091//26 1182//26
f 1180//72 1109//49 1181//49
f 1179//95 1127//72 1180//72
f 1178//118 1145//95 1179//95
f 1177//1 1163//118 1178//118
f 33//27 756//4 5//4
f 61//50 755//556 33//27
f 89//73 786//50 61//50
f 117//96 804//73 89//73
f 145//119 822//96 117//96
f 173//141 840//119 145//119
f 201//163 858//141 173//141
f 229//185 876//608 201//163
f 257//207 894//185 229//185
f 257//207 930//229 912//207
f 313//251 930//229 285//229
f 341//273 948//251 313//251
f 369//295 966//273 341//273
f 397//317 984//651 369//295
f 425//339 1002//317 397//317
f 453//361 1020//339 425//339
f 481//383 1038//361 453//361
f 509//404 1056//383 481//383
f 509//404 1092//425 1074//404
f 565//446 1092//425 537//425
f 593//467 1110//446 565//446
f 593//467 1146//488 1128//467
f 621//488 1164//509 1146//488
f 5//4 1164//509 649//509
f 13//12 757//557 758//558
f 69//58 757//557 41//35
f 69//58 805//579 787//571
f 125//104 805//579 97//81
f 125//104 841//594 823//587
f 153//127 859//601 841//594
f 181//149 877//609 859//601
f 209//171 895//616 877//609
f 265//215 895//616 237//193
f 293//237 913//623 265//215
f 321//259 931//630 293//237
f 349//281 949//637 321//259
f 377//303 967//644 349//281
f 405//325 985//652 377//303
f 433//347 1003//660 405//325
f 461//369 1021//667 433//347
f 461//369 1057//682 1039//675
f 517//412 1057//682 489//391
f 545//433 1075//689 517//412
f 545//433 1111//703 1093//696
f 601//475 1111//703 573//454
f 629//496 1129//710 601//475
f 629//496 1165//724 1147//717
f 657//517 758//558 1165//724
f 7//6 759//29 760//6
f 63//52 759//29 35//29
f 63//52 806//75 788//52
f 91//75 824//98 806//75
f 119//98 842//121 824//98
f 147//121 860//143 842//121
f 175//143 878//165 860//143
f 203//165 896//187 878//165
f 231//187 914//209 896//187
f 259//209 932//231 914//209
f 287//231 950//253 932//231
f 315//253 968//275 950//253
f 343//275 986//297 968//275
f 371//297 1004//319 986//297
f 399//319 1022//341 1004//319
f 427//341 1040//363 1022//341
f 455//363 1058//385 1040//363
f 483//385 1076//406 1058//385
f 511//406 1094//427 1076//406
f 539//427 1112//448 1094//427
f 567//448 1130//469 1112//448
f 595//469 1148//490 1130//469
f 623//490 1166//511 1148//490
f 651//511 760//6 1166//511
f 765//559 762//560 766//560
f 791//572 761//559 765//559
f 809//580 789//572 791//572
f 809//580 825//588 807//580
f 845//595 825//588 827//588
f 845//595 861//602 843//595
f 881//610 861//602 863//602
f 899//617 879//610 881//610
f 917//624 897//617 899//617
f 917//624 933//631 915//624
f 953//638 933//631 935//631
f 971//645 951//638 953//638
f 989//653 969//645 971//645
f 1007//661 987//653 989//653
f 1025//668 1005//661 1007//661
f 1043//676 1023//668 1025//668
f 1061//683 1041//676 1043//676
f 1079//690 1059//683 1061//683
f 1097//697 1077//690 1079//690
f 1115//704 1095//697 1097//697
f 1133//711 1113//704 1115//704
f 1151//718 1131//711 1133//711
f 1169//725 1149//718 1151//718
f 1169//725 762//560 1167//725
f 23//1 38//32 10//9
f 51//24 66//55 38//32
f 107//70 66//55 79//47
f 135//93 94//78 107//70
f 163//116 122//101 135//93
f 191//139 150//124 163//116
f 219//161 178//146 191//139
f 247//183 206//168 219//161
f 247//183 262//212 234//190
f 275//205 290//234 262//212
f 303//227 318//256 290//234
f 359//271 318//256 331//249
f 387//293 346//278 359//271
f 415//315 374//300 387//293
f 443//337 402//322 415//315
f 471//359 430//344 443//337
f 499//381 458//366 471//359
f 527//3 486//388 499//381
f 555//26 514//409 527//3
f 583//49 542//430 555//26
f 583//49 598//472 570//451
f 611//72 626//493 598//472
f 639//95 654//514 626//493
f 23//1 654//514 667//118
f 779//568 11//10 780//569
f 798//576 39//33 779//568
f 798//576 95//79 67//56
f 816//585 123//102 95//79
f 852//599 123//102 834//592
f 870//606 151//125 852//599
f 870//606 207//169 179//147
f 888//614 235//191 207//169
f 924//628 235//191 906//621
f 942//635 263//213 924//628
f 960//642 291//235 942//635
f 978//649 319//257 960//642
f 996//658 347//279 978//649
f 1014//665 375//301 996//658
f 1032//673 403//323 1014//665
f 1050//680 431//345 1032//673
f 1068//687 459//367 1050//680
f 1086//694 487//389 1068//687
f 1086//694 543//431 515//410
f 1104//701 571//452 543//431
f 1140//715 571//452 1122//708
f 1158//722 599//473 1140//715
f 1176//729 627//494 1158//722
f 780//569 655//515 1176//729
f 769//561 764//562 770//562
f 769//561 790//573 763//561
f 811//581 790//573 793//573
f 829//589 808//581 811//581
f 829//589 844//596 826//589
f 847//596 862//603 844//596
f 865//603 880//611 862//603
f 901//618 880//611 883//611
f 919//625 898//618 901//618
f 919//625 934//632 916//625
f 955//639 934//632 937//632
f 973//646 952//639 955//639
f 991//654 970//646 973//646
f 991//654 1006//662 988//654
f 1027//669 1006//662 1009//662
f 1027//669 1042//677 1024//669
f 1045//677 1060//684 1042//677
f 1081//691 1060//684 1063//684
f 1099//698 1078//691 1081//691
f 1099//698 1114//705 1096//698
f 1117//705 1132//712 1114//705
f 1135//712 1150//719 1132//712
f 1171//726 1150//719 1153//719
f 770//562 1168//726 1171//726
f 6//5 41//35 13//12
f 34//28 69//58 41//35
f 90//74 69//58 62//51
f 90//74 125//104 97//81
f 146//120 125//104 118//97
f 146//120 181//149 153//127
f 174//142 209//171 181//149
f 230//186 209//171 202//164
f 258//208 237//193 230//186
f 286//230 265//215 258//208
f 286//230 321//259 293//237
f 342//274 321//259 314//252
f 370//296 349//281 342//274
f 398//318 377//303 370//296
f 426//340 405//325 398//318
f 426//340 461//369 433//347
f 482//384 461//369 454//362
f 510//405 489//391 482//384
f 538//426 517//412 510//405
f 566//447 545//433 538//426
f 594//468 573//454 566//447
f 594//468 629//496 601//475
f 650//510 629//496 622//489
f 6//5 657//517 650//510
f 36//30 14//7 8//7
f 64//53 42//30 36//30
f 64//53 98//76 70//53
f 120//99 98//76 92//76
f 148//122 126//99 120//99
f 176//144 154//122 148//122
f 204//166 182//144 176//144
f 232//188 210//166 204//166
f 260//210 238//188 232//188
f 288//232 266//210 260//210
f 288//232 322//254 294//232
f 316//254 350//276 322//254
f 372//298 350//276 344//276
f 400//320 378//298 372//298
f 400//320 434//342 406//320
f 456//364 434//342 428//342
f 456//364 490//386 462//364
f 512//407 490//386 484//386
f 540//428 518//407 512//407
f 568//449 546//428 540//428
f 568//449 602//470 574//449
f 624//491 602//470 596//470
f 624//491 658//512 630//491
f 8//7 658//512 652//512
f 45//38 15//13 17//15
f 73//61 43//36 45//38
f 101//84 71//59 73//61
f 129//107 99//82 101//84
f 129//107 155//128 127//105
f 157//130 183//150 155//128
f 213//174 183//150 185//152
f 213//174 239//194 211//172
f 269//218 239//194 241//196
f 297//240 267//216 269//218
f 297//240 323//260 295//238
f 353//284 323//260 325//262
f 381//306 351//282 353//284
f 409//328 379//304 381//306
f 437//350 407//326 409//328
f 465//372 435//348 437//350
f 493//394 463//370 465//372
f 493//394 519//413 491//392
f 549//436 519//413 521//415
f 577//457 547//434 549//436
f 577//457 603//476 575//455
f 633//499 603//476 605//478
f 633//499 659//518 631//497
f 17//15 659//518 661//520
f 43//36 16//14 15//13
f 71//59 44//37 43//36
f 71//59 100//83 72//60
f 99//82 128//106 100//83
f 155//128 128//106 127//105
f 155//128 184//151 156//129
f 211//172 184//151 183//150
f 239//194 212//173 211//172
f 239//194 268//217 240//195
f 295//238 268//217 267//216
f 323//260 296//239 295//238
f 323//260 352//283 324//261
f 351//282 380//305 352//283
f 379//304 408//327 380//305
f 407//326 436//349 408//327
f 435//348 464//371 436//349
f 463//370 492//393 464//371
f 491//392 520//414 492//393
f 547//434 520//414 519//413
f 575//455 548//435 547//434
f 603//476 576//456 575//455
f 603//476 632//498 604//477
f 659//518 632//498 631//497
f 15//13 660//519 659//518
f 38//32 17//15 10//9
f 66//55 45//38 38//32
f 94//78 73//61 66//55
f 94//78 129//107 101//84
f 122//101 157//130 129//107
f 150//124 185//152 157//130
f 206//168 185//152 178//146
f 234//190 213//174 206//168
f 234//190 269//218 241//196
f 262//212 297//240 269//218
f 290//234 325//262 297//240
f 318//256 353//284 325//262
f 374//300 353//284 346//278
f 402//322 381//306 374//300
f 430//344 409//328 402//322
f 430//344 465//372 437//350
f 458//366 493//394 465//372
f 486//388 521//415 493//394
f 542//430 521//415 514//409
f 570//451 549//436 542//430
f 598//472 577//457 570//451
f 598//472 633//499 605//478
f 654//514 633//499 626//493
f 654//514 17//15 661//520
f 39//33 768//564 11//10
f 39//33 792//574 767//563
f 95//79 792//574 67//56
f 95//79 828//590 810//582
f 123//102 846//597 828//590
f 151//125 864//604 846//597
f 207//169 864//604 179//147
f 235//191 882//612 207//169
f 263//213 900//619 235//191
f 291//235 918//626 263//213
f 319//257 936//633 291//235
f 347//279 954//640 319//257
f 347//279 990//655 972//647
f 375//301 1008//663 990//655
f 403//323 1026//670 1008//663
f 459//367 1026//670 431//345
f 487//389 1044//678 459//367
f 515//410 1062//685 487//389
f 543//431 1080//692 515//410
f 571//452 1098//699 543//431
f 599//473 1116//706 571//452
f 627//494 1134//713 599//473
f 655//515 1152//720 627//494
f 11//10 1170//727 655//515
f 46//39 19//16 18//16
f 74//62 47//39 46//39
f 102//85 75//62 74//62
f 130//108 103//85 102//85
f 130//108 159//131 131//108
f 158//131 187//153 159//131
f 186//153 215//175 187//153
f 214//175 243//197 215//175
f 242//197 271//219 243//197
f 270//219 299//241 271//219
f 298//241 327//263 299//241
f 326//263 355//285 327//263
f 354//285 383//307 355//285
f 382//307 411//329 383//307
f 438//351 411//329 410//329
f 438//351 467//373 439//351
f 494//395 467//373 466//373
f 494//395 523//416 495//395
f 522//416 551//437 523//416
f 550//437 579//458 551//437
f 578//458 607//479 579//458
f 606//479 635//500 607//479
f 662//521 635//500 634//500
f 662//521 19//16 663//521
f 52//43 20//17 24//20
f 52//43 76//63 48//40
f 80//66 104//86 76//63
f 136//112 104//86 108//89
f 164//135 132//109 136//112
f 192//157 160//132 164//135
f 220//179 188//154 192//157
f 220//179 244//198 216//176
f 248//201 272//220 244//198
f 304//245 272//220 276//223
f 304//245 328//264 300//242
f 360//289 328//264 332//267
f 388//311 356//286 360//289
f 388//311 412//330 384//308
f 444//355 412//330 416//333
f 472//377 440//352 444//355
f 472//377 496//396 468//374
f 528//420 496//396 500//399
f 556//441 524//417 528//420
f 556//441 580//459 552//438
f 612//483 580//459 584//462
f 612//483 636//501 608//480
f 668//525 636//501 640//504
f 24//20 664//522 668//525
f 48//40 21//18 20//17
f 76//63 49//41 48//40
f 104//86 77//64 76//63
f 104//86 133//110 105//87
f 160//132 133//110 132//109
f 188//154 161//133 160//132
f 216//176 189//155 188//154
f 244//198 217//177 216//176
f 272//220 245//199 244//198
f 300//242 273//221 272//220
f 300//242 329//265 301//243
f 356//286 329//265 328//264
f 384//308 357//287 356//286
f 412//330 385//309 384//308
f 440//352 413//331 412//330
f 468//374 441//353 440//352
f 496//396 469//375 468//374
f 524//417 497//397 496//396
f 552//438 525//418 524//417
f 580//459 553//439 552//438
f 608//480 581//460 580//459
f 636//501 609//481 608//480
f 664//522 637//502 636//501
f 20//17 665//523 664//522
f 40//34 772//11 12//11
f 68//57 771//565 40//34
f 96//80 794//57 68//57
f 124//103 812//80 96//80
f 152//126 830//103 124//103
f 180//148 848//126 152//126
f 208//170 866//148 180//148
f 236//192 884//170 208//170
f 264//214 902//192 236//192
f 292//236 920//214 264//214
f 320//258 938//236 292//236
f 348//280 956//258 320//258
f 376//302 974//280 348//280
f 404//324 992//656 376//302
f 432//346 1010//324 404//324
f 460//368 1028//346 432//346
f 488//390 1046//368 460//368
f 516//411 1064//390 488//390
f 544//432 1082//411 516//411
f 572//453 1100//432 544//432
f 600//474 1118//453 572//453
f 628//495 1136//474 600//474
f 656//516 1154//495 628//495
f 12//11 1172//516 656//516
f 37//31 23//1 9//8
f 65//54 51//24 37//31
f 65//54 107//70 79//47
f 121//100 107//70 93//77
f 149//123 135//93 121//100
f 149//123 191//139 163//116
f 205//167 191//139 177//145
f 233//189 219//161 205//167
f 261//211 247//183 233//189
f 289//233 275//205 261//211
f 317//255 303//227 289//233
f 317//255 359//271 331//249
f 373//299 359//271 345//277
f 401//321 387//293 373//299
f 401//321 443//337 415//315
f 457//365 443//337 429//343
f 485//387 471//359 457//365
f 513//408 499//381 485//387
f 513//408 555//26 527//3
f 569//450 555//26 541//429
f 569//450 611//72 583//49
f 625//492 611//72 597//471
f 625//492 667//118 639//95
f 653//513 23//1 667//118
f 50//42 24//20 22//19
f 50//42 80//66 52//43
f 106//88 80//66 78//65
f 106//88 136//112 108//89
f 162//134 136//112 134//111
f 190//156 164//135 162//134
f 218//178 192//157 190//156
f 246//200 220//179 218//178
f 274//222 248//201 246//200
f 274//222 304//245 276//223
f 302//244 332//267 304//245
f 358//288 332//267 330//266
f 386//310 360//289 358//288
f 386//310 416//333 388//311
f 414//332 444//355 416//333
f 470//376 444//355 442//354
f 470//376 500//399 472//377
f 526//419 500//399 498//398
f 554//440 528//420 526//419
f 582//461 556//441 554//440
f 610//482 584//462 582//461
f 638//503 612//483 610//482
f 638//503 668//525 640//504
f 22//19 668//525 666//524
f 44//37 774//567 16//14
f 44//37 795//575 773//566
f 100//83 795//575 72//60
f 100//83 831//591 813//583
f 128//106 849//598 831//591
f 156//129 867//605 849//598
f 184//151 885//613 867//605
f 212//173 903//620 885//613
f 240//195 921//627 903//620
f 296//239 921//627 268//217
f 296//239 957//641 939//634
f 324//261 975//648 957//641
f 380//305 975//648 352//283
f 380//305 1011//664 993//657
f 408//327 1029//671 1011//664
f 436//349 1047//679 1029//671
f 464//371 1065//686 1047//679
f 492//393 1083//693 1065//686
f 520//414 1101//700 1083//693
f 548//435 1119//707 1101//700
f 604//477 1119//707 576//456
f 632//498 1137//714 604//477
f 660//519 1155//721 632//498
f 16//14 1173//728 660//519
f 25//21 775//44 776//21
f 53//44 796//67 775//44
f 81//67 814//584 796//67
f 109//90 832//113 814//584
f 137//113 850//136 832//113
f 165//136 868//158 850//136
f 221//180 868//158 193//158
f 221//180 904//202 886//180
f 277//224 904//202 249//202
f 305//246 922//224 277//224
f 305//246 958//268 940//246
f 361//290 958//268 333//268
f 361//290 994//312 976//290
f 389//312 1012//334 994//312
f 417//334 1030//672 1012//334
f 445//356 1048//378 1030//672
f 473//378 1066//400 1048//378
f 501//400 1084//421 1066//400
f 529//421 1102//442 1084//421
f 557//442 1120//463 1102//442
f 613//484 1120//463 585//463
f 641//505 1138//484 613//484
f 641//505 1174//526 1156//505
f 669//526 776//21 1174//526
f 26//22 777//45 778//22
f 82//68 777//45 54//45
f 110//91 797//68 82//68
f 110//91 833//114 815//91
f 166//137 833//114 138//114
f 194//159 851//137 166//137
f 222//181 869//159 194//159
f 250//203 887//181 222//181
f 278//225 905//203 250//203
f 278//225 941//247 923//225
f 334//269 941//247 306//247
f 362//291 959//269 334//269
f 390//313 977//291 362//291
f 418//335 995//313 390//313
f 446//357 1013//335 418//335
f 446//357 1049//379 1031//357
f 502//401 1049//379 474//379
f 530//422 1067//401 502//401
f 558//443 1085//422 530//422
f 586//464 1103//443 558//443
f 614//485 1121//464 586//464
f 642//506 1139//485 614//485
f 670//527 1157//506 642//506
f 26//22 1175//527 670//527
f 55//46 28//23 27//23
f 83//69 56//46 55//46
f 111//92 84//69 83//69
f 139//115 112//92 111//92
f 167//138 140//115 139//115
f 195//160 168//138 167//138
f 223//182 196//160 195//160
f 251//204 224//182 223//182
f 279//226 252//204 251//204
f 307//248 280//226 279//226
f 335//270 308//248 307//248
f 335//270 364//292 336//270
f 391//314 364//292 363//292
f 419//336 392//314 391//314
f 447//358 420//336 419//336
f 475//380 448//358 447//358
f 503//402 476//380 475//380
f 531//423 504//402 503//402
f 559//444 532//423 531//423
f 587//465 560//444 559//444
f 615//486 588//465 587//465
f 643//507 616//486 615//486
f 671//528 644//507 643//507
f 27//23 672//528 671//528
f 1//1 1250//118 645//118
f 645//118 1251//95 617//95
f 617//95 1252//72 589//72
f 589//72 1253//49 561//49
f 561//49 1254//26 533//26
f 533//26 1255//3 505//3
f 505//3 1256//381 477//381
f 477//381 1257//359 449//359
f 421//337 1257//359 1258//337
f 421//337 1259//315 393//315
f 393//315 1260//293 365//293
f 365//293 1261//271 337//271
f 337//271 1262//249 309//249
f 309//249 1263//227 281//227
f 281//227 1264//205 253//205
f 253//205 1265//183 225//183
f 225//183 1266//161 197//161
f 197//161 1267//139 169//139
f 169//139 1268//116 141//116
f 113//93 1268//116 1269//93
f 113//93 1270//70 85//70
f 85//70 1271//47 57//47
f 57//47 1272//24 29//24
f 29//24 1249//1 1//1
f 1202//3 750//3 748//3
f 1206//3 697//3 783//3
f 1208//3 699//3 801//3
f 1210//3 700//3 819//3
f 1212//3 701//3 837//3
f 1214//3 702//3 855//3
f 1216//3 703//3 873//3
f 1218//3 704//3 891//3
f 1220//3 705//3 909//3
f 1222//3 706//3 927//3
f 1224//3 707//3 945//3
f 1226//3 708//3 963//3
f 1228//3 709//3 981//3
f 1230//3 710//3 999//3
f 1232//3 711//3 1017//3
f 1234//3 712//3 1035//3
f 1236//3 713//3 1053//3
f 1238//3 714//3 1071//3
f 1240//3 715//3 1089//3
f 1242//3 716//3 1107//3
f 1244//3 717//3 1125//3
f 1246//3 718//3 1143//3
f 1248//3 719//3 1161//3
f 698//3 720//3 3//3
f 673//529 722//552 696//552
f 696//552 723//551 695//551
f 695//551 724//550 694//550
f 694//550 725//549 693//549
f 692//548 725//549 726//548
f 691//547 726//548 727//547
f 691//547 728//546 690//546
f 689//545 728//546 729//545
f 689//545 730//544 688//544
f 688//544 731//543 687//543
f 686//542 731//543 732//542
f 686//542 733//541 685//541
f 685//541 734//540 684//540
f 684//540 735//539 683//539
f 682//538 735//539 736//538
f 682//538 737//537 681//537
f 681//537 738//536 680//536
f 680//536 739//535 679//535
f 679//535 740//534 678//534
f 677//533 740//534 741//533
f 677//533 742//532 676//532
f 676//532 743//531 675//531
f 675//531 744//530 674//530
f 674//530 721//529 673//529
f 1203//730 1201//730 745//553
f 1201//730 1205//730 781//553
f 1205//730 1207//730 799//577
f 1207//730 1209//730 817//553
f 1209//730 1211//730 835//553
f 1211//730 1213//730 853//553
f 1213//730 1215//730 871//577
f 1215//730 1217//730 889//553
f 1217//730 1219//730 907//577
f 1219//730 1221//730 925//553
f 1221//730 1223//730 943//553
f 1223//730 1225//730 961//553
f 1225//730 1227//730 979//553
f 1227//730 1229//730 997//577
f 1229//730 1231//730 1015//553
f 1231//730 1233//730 1033//577
f 1233//730 1235//730 1051//553
f 1235//730 1237//730 1069//553
f 1237//730 1239//730 1087//553
f 1239//730 1241//730 1105//577
f 1241//730 1243//730 1123//577
f 1243//730 1245//730 1141//553
f 1245//730 1247//730 1159//577
f 1247//730 1203//730 746//553
f 49//41 30//25 2//2
f 77//64 58//48 30//25
f 105//87 86//71 58//48
f 133//110 114//94 86//71
f 161//133 142//117 114//94
f 161//133 189//155 170//140
f 217//177 198//162 170//140
f 217//177 245//199 226//184
f 273//221 254//206 226//184
f 301//243 282//228 254//206
f 301//243 329//265 310//250
f 357//287 338//272 310//250
f 385//309 366//294 338//272
f 413//331 394//316 366//294
f 441//353 422//338 394//316
f 469//375 450//360 422//338
f 497//397 478//382 450//360
f 497//397 525//418 506//403
f 553//439 534//424 506//403
f 553//439 581//460 562//445
f 609//481 590//466 562//445
f 637//502 618//487 590//466
f 665//523 646//508 618//487
f 21//18 2//2 646//508
f 30//25 751//554 752//555
f 58//48 784//570 751//554
f 86//71 802//578 784//570
f 114//94 820//586 802//578
f 142//117 838//593 820//586
f 170//140 856//600 838//593
f 198//162 874//607 856//600
f 226//184 892//615 874//607
f 254//206 910//622 892//615
f 282//228 928//629 910//622
f 310//250 946//636 928//629
f 338//272 964//643 946//636
f 366//294 982//650 964//643
f 394//316 1000//659 982//650
f 422//338 1018//666 1000//659
f 450//360 1036//674 1018//666
f 478//382 1054//681 1036//674
f 506//403 1072//688 1054//681
f 534//424 1090//695 1072//688
f 562//445 1108//702 1090//695
f 590//466 1126//709 1108//702
f 618//487 1144//716 1126//709
f 646//508 1162//723 1144//716
f 2//2 752//555 1162//723
f 4//3 32//26 747//3
f 32//26 60//49 782//3
f 60//49 88//72 800//3
f 88//72 116//95 818//3
f 116//95 144//118 836//3
f 144//118 172//1 854//3
f 172//1 200//24 872//3
f 200//24 228//47 890//3
f 228//47 256//70 908//3
f 256//70 284//93 926//3
f 284//93 312//116 944//3
f 312//116 340//139 962//3
f 340//139 368//161 980//3
f 368//161 396//183 998//3
f 396//183 424//205 1016//3
f 424//205 452//227 1034//3
f 452//227 480//249 1052//3
f 480//249 508//271 1070//3
f 508//271 536//293 1088//3
f 536//293 564//315 1106//3
f 564//315 592//337 1124//3
f 592//337 620//359 1142//3
f 620//359 648//381 1160//3
f 648//381 4//3 749//3
f 1200//24 753//24 754//1
f 1199//47 785//47 753//24
f 1198//70 803//70 785//47
f 1197//93 821//93 803//70
f 1196//116 839//116 821//93
f 1195//139 857//139 839//116
f 1194//161 875//161 857//139
f 1193//183 893//183 875//161
f 1192//205 911//205 893//183
f 1191//227 929//227 911//205
f 1190//249 947//249 929//227
f 1189//271 965//271 947//249
f 1188//293 983//293 965//271
f 1187//315 1001//315 983//293
f 1186//337 1019//337 1001//315
f 1185//359 1037//359 1019//337
f 1184//381 1055//381 1037//359
f 1183//3 1073//3 1055//381
f 1182//26 1091//26 1073//3
f 1181//49 1109//49 1091//26
f 1180//72 1127//72 1109//49
f 1179//95 1145//95 1127//72
f 1178//118 1163//118 1145//95
f 1177//1 754//1 1163//118
f 33//27 755//556 756//4
f 61//50 786//50 755//556
f 89//73 804//73 786//50
f 117//96 822//96 804//73
f 145//119 840//119 822//96
f 173//141 858//141 840//119
f 201//163 876//608 858//141
f 229//185 894//185 876//608
f 257//207 912//207 894//185
f 257//207 285//229 930//229
f 313//251 948//251 930//229
f 341//273 966//273 948//251
f 369//295 984//651 966//273
f 397//317 1002//317 984//651
f 425//339 1020//339 1002//317
f 453//361 1038//361 1020//339
f 481//383 1056//383 1038//361
f 509//404 1074//404 1056//383
f 509//404 537//425 1092//425
f 565//446 1110//446 1092//425
f 593//467 1128//467 1110//446
f 593//467 621//488 1146//488
f 621//488 649//509 1164//509
f 5//4 756//4 1164//509
f 13//12 41//35 757//557
f 69//58 787//571 757//557
f 69//58 97//81 805//579
f 125//104 823//587 805//579
f 125//104 153//127 841//594
f 153//127 181//149 859//601
f 181//149 209//171 877//609
f 209//171 237//193 895//616
f 265//215 913//623 895//616
f 293//237 931//630 913//623
f 321//259 949//637 931//630
f 349//281 967//644 949//637
f 377//303 985//652 967//644
f 405//325 1003//660 985//652
f 433//347 1021//667 1003//660
f 461//369 1039//675 1021//667
f 461//369 489//391 1057//682
f 517//412 1075//689 1057//682
f 545//433 1093//696 1075//689
f 545//433 573//454 1111//703
f 601//475 1129//710 1111//703
f 629//496 1147//717 1129//710
f 629//496 657//517 1165//724
f 657//517 13//12 758//558
f 7//6 35//29 759//29
f 63//52 788//52 759//29
f 63//52 91//75 806//75
f 91//75 119//98 824//98
f 119//98 147//121 842//121
f 147//121 175//143 860//143
f 175//143 203//165 878//165
f 203//165 231//187 896//187
f 231//187 259//209 914//209
f 259//209 287//231 932//231
f 287//231 315//253 950//253
f 315//253 343//275 968//275
f 343//275 371//297 986//297
f 371//297 399//319 1004//319
f 399//319 427//341 1022//341
f 427//341 455//363 1040//363
f 455//363 483//385 1058//385
f 483//385 511//406 1076//406
f 511//406 539//427 1094//427
f 539//427 567//448 1112//448
f 567//448 595//469 1130//469
f 595//469 623//490 1148//490
f 623//490 651//511 1166//511
f 651//511 7//6 760//6
f 765//559 761//559 762//560
f 791//572 789//572 761//559
f 809//580 807//580 789//572
f 809//580 827//588 825//588
f 845//595 843//595 825//588
f 845//595 863//602 861//602
f 881//610 879//610 861//602
f 899//617 897//617 879//610
f 917//624 915//624 897//617
f 917//624 935//631 933//631
f 953//638 951//638 933//631
f 971//645 969//645 951//638
f 989//653 987//653 969//645
f 1007//661 1005//661 987//653
f 1025//668 1023//668 1005//661
f 1043//676 1041//676 1023//668
f 1061//683 1059//683 1041//676
f 1079//690 1077//690 1059//683
f 1097//697 1095//697 1077//690
f 1115//704 1113//704 1095//697
f 1133//711 1131//711 1113//704
f 1151//718 1149//718 1131//711
f 1169//725 1167//725 1149//718
f 1169//725 766//560 762//560
f 23//1 51//24 38//32
f 51//24 79//47 66//55
f 107//70 94//78 66//55
f 135//93 122//101 94//78
f 163//116 150//124 122//101
f 191//139 178//146 150//124
f 219//161 206//168 178//146
f 247//183 234//190 206//168
f 247//183 275//205 262//212
f 275//205 303//227 290//234
f 303//227 331//249 318//256
f 359//271 346//278 318//256
f 387//293 374//300 346//278
f 415//315 402//322 374//300
f 443//337 430//344 402//322
f 471//359 458//366 430//344
f 499//381 486//388 458//366
f 527//3 514//409 486//388
f 555//26 542//430 514//409
f 583//49 570//451 542//430
f 583//49 611//72 598//472
f 611//72 639//95 626//493
f 639//95 667//118 654//514
f 23//1 10//9 654//514
f 779//568 39//33 11//10
f 798//576 67//56 39//33
f 798//576 816//585 95//79
f 816//585 834//592 123//102
f 852//599 151//125 123//102
f 870//606 179//147 151//125
f 870//606 888//614 207//169
f 888//614 906//621 235//191
f 924//628 263//213 235//191
f 942//635 291//235 263//213
f 960//642 319//257 291//235
f 978//649 347//279 319//257
f 996//658 375//301 347//279
f 1014//665 403//323 375//301
f 1032//673 431//345 403//323
f 1050//680 459//367 431//345
f 1068//687 487//389 459//367
f 1086//694 515//410 487//389
f 1086//694 1104//701 543//431
f 1104//701 1122//708 571//452
f 1140//715 599//473 571//452
f 1158//722 627//494 599//473
f 1176//729 655//515 627//494
f 780//569 11//10 655//515
f 769//561 763//561 764//562
f 769//561 793//573 790//573
f 811//581 808//581 790//573
f 829//589 826//589 808//581
f 829//589 847//596 844//596
f 847//596 865//603 862//603
f 865//603 883//611 880//611
f 901//618 898//618 880//611
f 919//625 916//625 898//618
f 919//625 937//632 934//632
f 955//639 952//639 934//632
f 973//646 970//646 952//639
f 991//654 988//654 970//646
f 991//654 1009//662 1006//662
f 1027//669 1024//669 1006//662
f 1027//669 1045//677 1042//677
f 1045//677 1063//684 1060//684
f 1081//691 1078//691 1060//684
f 1099//698 1096//698 1078//691
f 1099//698 1117//705 1114//705
f 1117//705 1135//712 1132//712
f 1135//712 1153//719 1150//719
f 1171//726 1168//726 1150//719
f 770//562 764//562 1168//726
f 6//5 34//28 41//35
f 34//28 62//51 69//58
f 90//74 97//81 69//58
f 90//74 118//97 125//104
f 146//120 153//127 125//104
f 146//120 174//142 181//149
f 174//142 202//164 209//171
f 230//186 237//193 209//171
f 258//208 265//215 237//193
f 286//230 293//237 265//215
f 286//230 314//252 321//259
f 342//274 349//281 321//259
f 370//296 377//303 349//281
f 398//318 405//325 377//303
f 426//340 433//347 405//325
f 426//340 454//362 461//369
f 482//384 489//391 461//369
f 510//405 517//412 489//391
f 538//426 545//433 517//412
f 566//447 573//454 545//433
f 594//468 601//475 573//454
f 594//468 622//489 629//496
f 650//510 657//517 629//496
f 6//5 13//12 657//517
f 36//30 42//30 14//7
f 64//53 70//53 42//30
f 64//53 92//76 98//76
f 120//99 126//99 98//76
f 148//122 154//122 126//99
f 176//144 182//144 154//122
f 204//166 210//166 182//144
f 232//188 238//188 210//166
f 260//210 266//210 238//188
f 288//232 294//232 266//210
f 288//232 316//254 322//254
f 316//254 344//276 350//276
f 372//298 378//298 350//276
f 400//320 406//320 378//298
f 400//320 428//342 434//342
f 456//364 462//364 434//342
f 456//364 484//386 490//386
f 512//407 518//407 490//386
f 540//428 546//428 518//407
f 568//449 574//449 546//428
f 568//449 596//470 602//470
f 624//491 630//491 602//470
f 624//491 652//512 658//512
f 8//7 14//7 658//512
f 45//38 43//36 15//13
f 73//61 71//59 43//36
f 101//84 99//82 71//59
f 129//107 127//105 99//82
f 129//107 157//130 155//128
f 157//130 185//152 183//150
f 213//174 211//172 183//150
f 213//174 241//196 239//194
f 269//218 267//216 239//194
f 297//240 295//238 267//216
f 297//240 325//262 323//260
f 353//284 351//282 323//260
f 381//306 379//304 351//282
f 409//328 407//326 379//304
f 437//350 435//348 407//326
f 465//372 463//370 435//348
f 493//394 491//392 463//370
f 493//394 521//415 519//413
f 549//436 547//434 519//413
f 577//457 575//455 547//434
f 577//457 605//478 603//476
f 633//499 631//497 603//476
f 633//499 661//520 659//518
f 17//15 15//13 659//518
f 43//36 44//37 16//14
f 71//59 72//60 44//37
f 71//59 99//82 100//83
f 99//82 127//105 128//106
f 155//128 156//129 128//106
f 155//128 183//150 184//151
f 211//172 212//173 184//151
f 239//194 240//195 212//173
f 239//194 267//216 268//217
f 295//238 296//239 268//217
f 323//260 324//261 296//239
f 323//260 351//282 352//283
f 351//282 379//304 380//305
f 379//304 407//326 408//327
f 407//326 435//348 436//349
f 435//348 463//370 464//371
f 463//370 491//392 492//393
f 491//392 519//413 520//414
f 547//434 548//435 520//414
f 575//455 576//456 548//435
f 603//476 604//477 576//456
f 603//476 631//497 632//498
f 659//518 660//519 632//498
f 15//13 16//14 660//519
f 38//32 45//38 17//15
f 66//55 73//61 45//38
f 94//78 101//84 73//61
f 94//78 122//101 129//107
f 122//101 150//124 157//130
f 150//124 178//146 185//152
f 206//168 213//174 185//152
f 234//190 241//196 213//174
f 234//190 262//212 269//218
f 262//212 290//234 297//240
f 290//234 318//256 325//262
f 318//256 346//278 353//284
f 374//300 381//306 353//284
f 402//322 409//328 381//306
f 430//344 437//350 409//328
f 430//344 458//366 465//372
f 458//366 486//388 493//394
f 486//388 514//409 521//415
f 542//430 549//436 521//415
f 570//451 577//457 549//436
f 598//472 605//478 577//457
f 598//472 626//493 633//499
f 654//514 661//520 633//499
f 654//514 10//9 17//15
f 39//33 767//563 768//564
f 39//33 67//56 792//574
f 95//79 810//582 792//574
f 95//79 123//102 828//590
f 123//102 151//125 846//597
f 151//125 179//147 864//604
f 207//169 882//612 864//604
f 235//191 900//619 882//612
f 263//213 918//626 900//619
f 291//235 936//633 918//626
f 319//257 954//640 936//633
f 347//279 972//647 954//640
f 347//279 375//301 990//655
f 375//301 403//323 1008//663
f 403//323 431//345 1026//670
f 459//367 1044//678 1026//670
f 487//389 1062//685 1044//678
f 515//410 1080//692 1062//685
f 543//431 1098//699 1080//692
f 571//452 1116//706 1098//699
f 599//473 1134//713 1116//706
f 627//494 1152//720 1134//713
f 655//515 1170//727 1152//720
f 11//10 768//564 1170//727
f 46//39 47//39 19//16
f 74//62 75//62 47//39
f 102//85 103//85 75//62
f 130//108 131//108 103//85
f 130//108 158//131 159//131
f 158//131 186//153 187//153
f 186//153 214//175 215//175
f 214//175 242//197 243//197
f 242//197 270//219 271//219
f 270//219 298//241 299//241
f 298//241 326//263 327//263
f 326//263 354//285 355//285
f 354//285 382//307 383//307
f 382//307 410//329 411//329
f 438//351 439//351 411//329
f 438//351 466//373 467//373
f 494//395 495//395 467//373
f 494//395 522//416 523//416
f 522//416 550//437 551//437
f 550//437 578//458 579//458
f 578//458 606//479 607//479
f 606//479 634//500 635//500
f 662//521 663//521 635//500
f 662//521 18//16 19//16
f 52//43 48//40 20//17
f 52//43 80//66 76//63
f 80//66 108//89 104//86
f 136//112 132//109 104//86
f 164//135 160//132 132//109
f 192//157 188//154 160//132
f 220//179 216//176 188//154
f 220//179 248//201 244//198
f 248//201 276//223 272//220
f 304//245 300//242 272//220
f 304//245 332//267 328//264
f 360//289 356//286 328//264
f 388//311 384//308 356//286
f 388//311 416//333 412//330
f 444//355 440//352 412//330
f 472//377 468//374 440//352
f 472//377 500//399 496//396
f 528//420 524//417 496//396
f 556//441 552//438 524//417
f 556//441 584//462 580//459
f 612//483 608//480 580//459
f 612//483 640//504 636//501
f 668//525 664//522 636//501
f 24//20 20//17 664//522
f 48//40 49//41 21//18
f 76//63 77//64 49//41
f 104//86 105//87 77//64
f 104//86 132//109 133//110
f 160//132 161//133 133//110
f 188//154 189//155 161//133
f 216//176 217//177 189//155
f 244//198 245//199 217//177
f 272//220 273//221 245//199
f 300//242 301//243 273//221
f 300//242 328//264 329//265
f 356//286 357//287 329//265
f 384//308 385//309 357//287
f 412//330 413//331 385//309
f 440//352 441//353 413//331
f 468//374 469//375 441//353
f 496//396 497//397 469//375
f 524//417 525//418 497//397
f 552//438 553//439 525//418
f 580//459 581//460 553//439
f 608//480 609//481 581//460
f 636//501 637//502 609//481
f 664//522 665//523 637//502
f 20//17 21//18 665//523
f 40//34 771//565 772//11
f 68//57 794//57 771//565
f 96//80 812//80 794//57
f 124//103 830//103 812//80
f 152//126 848//126 830//103
f 180//148 866//148 848//126
f 208//170 884//170 866//148
f 236//192 902//192 884//170
f 264//214 920//214 902//192
f 292//236 938//236 920//214
f 320//258 956//258 938//236
f 348//280 974//280 956//258
f 376//302 992//656 974//280
f 404//324 1010//324 992//656
f 432//346 1028//346 1010//324
f 460//368 1046//368 1028//346
f 488//390 1064//390 1046//368
f 516//411 1082//411 1064//390
f 544//432 1100//432 1082//411
f 572//453 1118//453 1100//432
f 600//474 1136//474 1118//453
f 628//495 1154//495 1136//474
f 656//516 1172//516 1154//495
f 12//11 772//11 1172//516
f 37//31 51//24 23//1
f 65//54 79//47 51//24
f 65//54 93//77 107//70
f 121//100 135//93 107//70
f 149//123 163//116 135//93
f 149//123 177//145 191//139
f 205//167 219//161 191//139
f 233//189 247//183 219//161
f 261//211 275//205 247//183
f 289//233 303//227 275//205
f 317//255 331//249 303//227
f 317//255 345//277 359//271
f 373//299 387//293 359//271
f 401//321 415//315 387//293
f 401//321 429//343 443//337
f 457//365 471//359 443//337
f 485//387 499//381 471//359
f 513//408 527//3 499//381
f 513//408 541//429 555//26
f 569//450 583//49 555//26
f 569//450 597//471 611//72
f 625//492 639//95 611//72
f 625//492 653//513 667//118
f 653//513 9//8 23//1
f 50//42 52//43 24//20
f 50//42 78//65 80//66
f 106//88 108//89 80//66
f 106//88 134//111 136//112
f 162//134 164//135 136//112
f 190//156 192//157 164//135
f 218//178 220//179 192//157
f 246//200 248//201 220//179
f 274//222 276//223 248//201
f 274//222 302//244 304//245
f 302//244 330//266 332//267
f 358//288 360//289 332//267
f 386//310 388//311 360//289
f 386//310 414//332 416//333
f 414//332 442//354 444//355
f 470//376 472//377 444//355
f 470//376 498//398 500//399
f 526//419 528//420 500//399
f 554//440 556//441 528//420
f 582//461 584//462 556//441
f 610//482 612//483 584//462
f 638//503 640//504 612//483
f 638//503 666//524 668//525
f 22//19 24//20 668//525
f 44//37 773//566 774//567
f 44//37 72//60 795//575
f 100//83 813//583 795//575
f 100//83 128//106 831//591
f 128//106 156//129 849//598
f 156//129 184//151 867//605
f 184//151 212//173 885//613
f 212//173 240//195 903//620
f 240//195 268//217 921//627
f 296//239 939//634 921//627
f 296//239 324//261 957//641
f 324//261 352//283 975//648
f 380//305 993//657 975//648
f 380//305 408//327 1011//664
f 408//327 436//349 1029//671
f 436//349 464//371 1047//679
f 464//371 492//393 1065//686
f 492//393 520//414 1083//693
f 520//414 548//435 1101//700
f 548//435 576//456 1119//707
f 604//477 1137//714 1119//707
f 632//498 1155//721 1137//714
f 660//519 1173//728 1155//721
f 16//14 774//567 1173//728
f 25//21 53//44 775//44
f 53//44 81//67 796//67
f 81//67 109//90 814//584
f 109//90 137//113 832//113
f 137//113 165//136 850//136
f 165//136 193//158 868//158
f 221//180 886//180 868//158
f 221//180 249//202 904//202
f 277//224 922//224 904//202
f 305//246 940//246 922//224
f 305//246 333//268 958//268
f 361//290 976//290 958//268
f 361//290 389//312 994//312
f 389//312 417//334 1012//334
f 417//334 445//356 1030//672
f 445//356 473//378 1048//378
f 473//378 501//400 1066//400
f 501//400 529//421 1084//421
f 529//421 557//442 1102//442
f 557//442 585//463 1120//463
f 613//484 1138//484 1120//463
f 641//505 1156//505 1138//484
f 641//505 669//526 1174//526
f 669//526 25//21 776//21
f 26//22 54//45 777//45
f 82//68 797//68 777//45
f 110//91 815//91 797//68
f 110//91 138//114 833//114
f 166//137 851//137 833//114
f 194//159 869//159 851//137
f 222//181 887//181 869//159
f 250//203 905//203 887//181
f 278//225 923//225 905//203
f 278//225 306//247 941//247
f 334//269 959//269 941//247
f 362//291 977//291 959//269
f 390//313 995//313 977//291
f 418//335 1013//335 995//313
f 446//357 1031//357 1013//335
f 446//357 474//379 1049//379
f 502//401 1067//401 1049//379
f 530//422 1085//422 1067//401
f 558//443 1103//443 1085//422
f 586//464 1121//464 1103//443
f 614//485 1139//485 1121//464
f 642//506 1157//506 1139//485
f 670//527 1175//527 1157//506
f 26//22 778//22 1175//527
f 55//46 56//46 28//23
f 83//69 84//69 56//46
f 111//92 112//92 84//69
f 139//115 140//115 112//92
f 167//138 168//138 140//115
f 195//160 196//160 168//138
f 223//182 224//182 196//160
f 251//204 252//204 224//182
f 279//226 280//226 252//204
f 307//248 308//248 280//226
f 335//270 336//270 308//248
f 335//270 363//292 364//292
f 391//314 392//314 364//292
f 419//336 420//336 392//314
f 447//358 448//358 420//336
f 475//380 476//380 448//358
f 503//402 504//402 476//380
f 531//423 532//423 504//402
f 559//444 560//444 532//423
f 587//465 588//465 560//444
f 615//486 616//486 588//465
f 643//507 644//507 616//486
f 671//528 672//528 644//507
f 27//23 28//23 672//528
f 1//1 1249//1 1250//118
f 645//118 1250//118 1251//95
f 617//95 1251//95 1252//72
f 589//72 1252//72 1253//49
f 561//49 1253//49 1254//26
f 533//26 1254//26 1255//3
f 505//3 1255//3 1256//381
f 477//381 1256//381 1257//359
f 421//337 449//359 1257//359
f 421//337 1258//337 1259//315
f 393//315 1259//315 1260//293
f 365//293 1260//293 1261//271
f 337//271 1261//271 1262//249
f 309//249 1262//249 1263//227
f 281//227 1263//227 1264//205
f 253//205 1264//205 1265//183
f 225//183 1265//183 1266//161
f 197//161 1266//161 1267//139
f 169//139 1267//139 1268//116
f 113//93 141//116 1268//116
f 113//93 1269//93 1270//70
f 85//70 1270//70 1271//47
f 57//47 1271//47 1272//24
f 29//24 1272//24 1249//1
f 1202//3 1204//3 750//3
f 1206//3 31//3 697//3
f 1208//3 59//3 699//3
f 1210//3 87//3 700//3
f 1212//3 115//3 701//3
f 1214//3 143//3 702//3
f 1216//3 171//3 703//3
f 1218//3 199//3 704//3
f 1220//3 227//3 705//3
f 1222//3 255//3 706//3
f 1224//3 283//3 707//3
f 1226//3 311//3 708//3
f 1228//3 339//3 709//3
f 1230//3 367//3 710//3
f 1232//3 395//3 711//3
f 1234//3 423//3 712//3
f 1236//3 451//3 713//3
f 1238//3 479//3 714//3
f 1240//3 507//3 715//3
f 1242//3 535//3 716//3
f 1244//3 563//3 717//3
f 1246//3 591//3 718//3
f 1248//3 619//3 719//3
f 698//3 647//3 720//3
f 673//529 721//529 722//552
f 696//552 722//552 723//551
f 695//551 723//551 724//550
f 694//550 724//550 725//549
f 692//548 693//549 725//549
f 691//547 692//548 726//548
f 691//547 727//547 728//546
f 689//545 690//546 728//546
f 689//545 729//545 730//544
f 688//544 730//544 731//543
f 686//542 687//543 731//543
f 686//542 732//542 733//541
f 685//541 733//541 734//540
f 684//540 734//540 735//539
f 682//538 683//539 735//539
f 682//538 736//538 737//537
f 681//537 737//537 738//536
f 680//536 738//536 739//535
f 679//535 739//535 740//534
f 677//533 678//534 740//534
f 677//533 741//533 742//532
f 676//532 742//532 743//531
f 675//531 743//531 744//530
f 674//530 744//530 721//529
