# Blender 5.0.1
# www.blender.org
o glass
v -3.514056 0.676722 -0.511096
v 3.975382 0.676722 -0.511096
v -3.514056 5.735761 -0.511095
v 3.975382 5.735761 -0.511095
v -3.514056 5.735761 -0.521214
v -3.514056 0.676722 -0.521214
v 3.975382 0.676722 -0.521214
v 3.975382 5.735761 -0.521214
v 0.230663 0.676722 -0.511096
v 0.230663 8.166160 -0.511095
v 0.230663 0.676722 -0.521214
v 0.230663 8.166160 -0.521214
v -3.514056 3.528174 -0.511096
v 3.975382 3.528174 -0.511096
v -3.514056 3.528174 -0.521214
v 3.975382 3.528174 -0.521214
v 0.230663 3.528174 -0.521214
v 0.230663 3.528174 -0.511096
v -3.514056 2.102448 -0.511096
v 2.103022 0.676722 -0.511096
v 3.975382 4.631968 -0.511095
v -1.641697 6.950960 -0.511095
v -3.514056 2.102448 -0.521214
v 2.103022 0.676722 -0.521214
v 3.975382 4.631968 -0.521214
v -1.641697 6.950960 -0.521214
v -1.641697 0.676722 -0.511096
v 2.103022 6.950960 -0.511095
v -1.641697 0.676722 -0.521214
v 2.103022 6.950960 -0.521214
v 0.230663 5.847167 -0.521214
v 0.230663 2.102448 -0.511096
v -3.514056 4.631968 -0.511095
v 3.975382 2.102448 -0.511096
v -3.514056 4.631968 -0.521214
v 3.975382 2.102448 -0.521214
v 0.230663 2.102448 -0.521214
v 0.230663 5.847167 -0.511095
v -1.641697 3.528174 -0.511096
v -1.641697 3.528174 -0.521214
v 2.103022 3.528174 -0.521214
v 2.103022 3.528174 -0.511096
v 2.103022 2.102448 -0.511096
v 2.103022 2.102448 -0.521214
v -1.641697 2.102448 -0.521214
v -1.641697 2.102448 -0.511096
v -1.641697 5.239567 -0.511095
v -1.641697 5.239567 -0.521214
v 2.103022 5.239567 -0.521214
v 2.103022 5.239567 -0.511095
vn -0.0000 -0.0000 -1.0000
vn -0.0000 -0.0000 1.0000
vn 0.5444 -0.8388 -0.0000
vn -0.0000 1.0000 -0.0000
vn -1.0000 -0.0000 -0.0000
vn 1.0000 -0.0000 -0.0000
vn -0.5444 -0.8388 -0.0000
vt 0.750000 0.750000
vt 1.000000 1.000000
vt 1.000000 0.750000
vt 0.750000 1.000000
vt 0.250000 1.000000
vt 0.500000 1.000000
vt 0.750000 0.000000
vt 0.500000 0.000000
vt 1.000000 0.500000
vt 0.000000 0.250000
vt 0.000000 0.500000
vt 0.250000 0.000000
vt 0.000000 0.000000
vt 0.500000 0.750000
vt 0.250000 0.750000
vt 0.250000 0.500000
vt 0.500000 0.250000
vt 0.250000 0.250000
vt 0.000000 0.750000
vt 0.000000 1.000000
vt 1.000000 0.250000
vt 0.750000 0.500000
vt 0.750000 0.250000
vt 1.000000 0.000000
vt 0.500000 0.500000
s 0
f 50/1/1 4/2/1 21/3/1
f 49/1/2 8/2/2 30/4/2
f 22/5/3 12/6/3 10/6/3
f 20/7/4 11/8/4 9/8/4
f 21/3/5 16/9/5 14/9/5
f 19/10/6 15/11/6 13/11/6
f 27/12/4 6/13/4 1/13/4
f 31/14/2 26/5/2 48/15/2
f 22/5/1 38/14/1 47/15/1
f 39/16/1 32/17/1 46/18/1
f 37/17/2 40/16/2 45/18/2
f 28/4/7 8/2/7 4/2/7
f 33/19/6 5/20/6 3/20/6
f 36/21/2 41/22/2 44/23/2
f 42/22/1 34/21/1 43/23/1
f 43/23/1 2/24/1 20/7/1
f 32/17/1 20/7/1 9/8/1
f 18/25/1 43/23/1 32/17/1
f 44/23/2 17/25/2 37/17/2
f 24/7/2 37/17/2 11/8/2
f 7/24/2 44/23/2 24/7/2
f 14/9/5 36/21/5 34/21/5
f 13/11/6 35/19/6 33/19/6
f 45/18/2 15/11/2 23/10/2
f 29/12/2 23/10/2 6/13/2
f 11/8/2 45/18/2 29/12/2
f 46/18/1 9/8/1 27/12/1
f 19/10/1 27/12/1 1/13/1
f 13/11/1 46/18/1 19/10/1
f 47/15/1 18/25/1 39/16/1
f 33/19/1 39/16/1 13/11/1
f 3/20/1 47/15/1 33/19/1
f 48/15/2 5/20/2 35/19/2
f 40/16/2 35/19/2 15/11/2
f 17/25/2 48/15/2 40/16/2
f 10/6/7 30/4/7 28/4/7
f 9/8/4 29/12/4 27/12/4
f 1/13/6 23/10/6 19/10/6
f 4/2/5 25/3/5 21/3/5
f 2/24/4 24/7/4 20/7/4
f 3/20/3 26/5/3 22/5/3
f 31/14/2 30/4/2 12/6/2
f 17/25/2 49/1/2 31/14/2
f 41/22/2 25/3/2 49/1/2
f 42/22/1 21/3/1 14/9/1
f 18/25/1 50/1/1 42/22/1
f 38/14/1 28/4/1 50/1/1
f 34/21/5 7/24/5 2/24/5
f 50/1/1 28/4/1 4/2/1
f 49/1/2 25/3/2 8/2/2
f 22/5/3 26/5/3 12/6/3
f 20/7/4 24/7/4 11/8/4
f 21/3/5 25/3/5 16/9/5
f 19/10/6 23/10/6 15/11/6
f 27/12/4 29/12/4 6/13/4
f 31/14/2 12/6/2 26/5/2
f 22/5/1 10/6/1 38/14/1
f 39/16/1 18/25/1 32/17/1
f 37/17/2 17/25/2 40/16/2
f 28/4/7 30/4/7 8/2/7
f 33/19/6 35/19/6 5/20/6
f 36/21/2 16/9/2 41/22/2
f 42/22/1 14/9/1 34/21/1
f 43/23/1 34/21/1 2/24/1
f 32/17/1 43/23/1 20/7/1
f 18/25/1 42/22/1 43/23/1
f 44/23/2 41/22/2 17/25/2
f 24/7/2 44/23/2 37/17/2
f 7/24/2 36/21/2 44/23/2
f 14/9/5 16/9/5 36/21/5
f 13/11/6 15/11/6 35/19/6
f 45/18/2 40/16/2 15/11/2
f 29/12/2 45/18/2 23/10/2
f 11/8/2 37/17/2 45/18/2
f 46/18/1 32/17/1 9/8/1
f 19/10/1 46/18/1 27/12/1
f 13/11/1 39/16/1 46/18/1
f 47/15/1 38/14/1 18/25/1
f 33/19/1 47/15/1 39/16/1
f 3/20/1 22/5/1 47/15/1
f 48/15/2 26/5/2 5/20/2
f 40/16/2 48/15/2 35/19/2
f 17/25/2 31/14/2 48/15/2
f 10/6/7 12/6/7 30/4/7
f 9/8/4 11/8/4 29/12/4
f 1/13/6 6/13/6 23/10/6
f 4/2/5 8/2/5 25/3/5
f 2/24/4 7/24/4 24/7/4
f 3/20/3 5/20/3 26/5/3
f 31/14/2 49/1/2 30/4/2
f 17/25/2 41/22/2 49/1/2
f 41/22/2 16/9/2 25/3/2
f 42/22/1 50/1/1 21/3/1
f 18/25/1 38/14/1 50/1/1
f 38/14/1 10/6/1 28/4/1
f 34/21/5 36/21/5 7/24/5
