# Blender 5.0.1
# www.blender.org
o house_wood
v 0.000000 8.059909 0.000000
v -3.316239 3.453695 -0.000000
v 3.316239 3.453695 -0.000000
v 3.316239 1.067508 -0.000000
v -3.316239 1.067508 -0.000000
v -3.208711 1.175036 -0.524657
v 3.208711 1.175036 -0.524657
v 3.035954 3.363295 -0.524657
v -3.208711 3.419014 -0.524657
v 0.000000 7.580196 -0.524657
v -3.035954 3.363295 -0.524657
v -3.035954 1.175036 -0.524657
v 0.000000 7.875874 -0.524657
v 3.035954 1.175036 -0.524657
v 3.208711 3.419014 -0.524657
v -3.035954 1.175036 -0.918884
v 3.035954 1.175036 -0.918884
v 3.035954 3.363295 -0.918884
v -3.035954 3.363295 -0.918884
v 0.000000 7.580196 -0.918884
v -3.208711 1.175036 -0.000000
v 3.208711 1.175036 -0.000000
v -3.208711 3.419014 -0.000000
v 0.000000 7.875874 0.000000
v 3.208711 3.419014 -0.000000
vn -1.0000 -0.0000 -0.0000
vn -0.0000 1.0000 -0.0000
vn -0.8116 -0.5843 -0.0000
vn 0.8116 -0.5843 -0.0000
vn 1.0000 -0.0000 -0.0000
vn -0.0000 -0.0000 1.0000
vt 0.936814 0.383558
vt 0.917705 0.083382
vt 0.000000 0.000000
vt 0.129115 0.846675
vt 0.919547 0.377357
vt 0.919547 0.377357
vt 0.101404 0.879583
vt 0.101404 0.383558
vt 0.082295 0.083382
vt 0.129115 0.377357
vt 0.104784 0.083382
vt 0.895216 0.083382
vt 0.129115 0.846676
vt 0.895216 0.083382
vt 0.104784 0.083382
vt 0.129115 0.377357
vt 0.931789 0.081397
vt 0.068383 0.081397
vt 0.066787 0.408043
vt 0.066787 0.920690
vt 0.930193 0.408043
s 0
f 25/1/1 7/2/1 22/2/1
f 14/3/2 16/3/2 12/3/2
f 10/4/3 18/5/3 8/6/3
f 24/7/3 15/1/3 25/1/3
f 23/8/4 13/7/4 24/7/4
f 21/9/5 9/8/5 23/8/5
f 11/10/6 6/9/6 12/11/6
f 10/4/6 9/8/6 11/10/6
f 8/6/6 7/2/6 15/1/6
f 10/4/6 15/1/6 13/7/6
f 22/2/2 12/3/2 21/9/2
f 22/2/2 7/2/2 14/12/2
f 11/10/4 20/13/4 10/4/4
f 8/6/1 17/14/1 14/12/1
f 11/10/5 16/15/5 19/16/5
f 6/9/2 21/9/2 12/3/2
f 4/17/6 21/9/6 5/18/6
f 2/19/6 21/9/6 23/8/6
f 2/19/6 24/7/6 1/20/6
f 3/21/6 22/2/6 4/17/6
f 3/21/6 24/7/6 25/1/6
f 25/1/1 15/1/1 7/2/1
f 14/3/2 17/3/2 16/3/2
f 10/4/3 20/13/3 18/5/3
f 24/7/3 13/7/3 15/1/3
f 23/8/4 9/8/4 13/7/4
f 21/9/5 6/9/5 9/8/5
f 11/10/6 9/8/6 6/9/6
f 10/4/6 13/7/6 9/8/6
f 8/6/6 14/12/6 7/2/6
f 10/4/6 8/6/6 15/1/6
f 22/2/2 14/12/2 12/3/2
f 11/10/4 19/16/4 20/13/4
f 8/6/1 18/5/1 17/14/1
f 11/10/5 12/11/5 16/15/5
f 4/17/6 22/2/6 21/9/6
f 2/19/6 5/18/6 21/9/6
f 2/19/6 23/8/6 24/7/6
f 3/21/6 25/1/6 22/2/6
f 3/21/6 1/20/6 24/7/6
