# Blender 5.0.1
# www.blender.org
o house_roof
v -3.840880 0.000000 -0.000000
v 3.840880 0.000000 -0.000000
v 0.000000 8.059909 0.000000
v -3.840880 0.000000 13.038630
v 3.840880 0.000000 13.038630
v 0.000000 8.414971 13.038630
v -3.316239 3.453695 -0.000000
v 3.316239 3.453695 -0.000000
v -3.840880 3.080038 13.038630
v 3.840880 3.080038 13.038630
v 3.316239 1.067508 -0.000000
v -3.316239 1.067508 -0.000000
v -3.840880 3.080038 -0.000000
v 0.000000 8.414971 0.000000
v 3.840880 3.080038 -0.000000
vn -1.0000 -0.0000 -0.0000
vn 0.8116 -0.5843 -0.0000
vn 1.0000 -0.0000 -0.0000
vn -0.8116 -0.5843 -0.0000
vn -0.0000 -0.0000 1.0000
vn -0.0000 -0.0000 -1.0000
vt 3.047768 0.988219
vt -2.047768 0.000069
vt 3.047768 0.000069
vt -0.493688 -1.034897
vt 1.495726 2.025054
vt -0.493688 2.025054
vt 3.047768 0.994138
vt -2.047768 0.000069
vt 1.495726 -1.034897
vt 0.000000 1.000000
vt 0.066787 0.408043
vt 0.066787 0.920690
vt -0.036153 0.840428
vt 0.036243 0.319487
vt 0.036243 0.937149
vt 0.951472 0.319487
vt 1.023869 0.840429
vt 0.951472 0.937150
vt 0.930193 0.408043
vt 1.000000 0.000000
vt 0.000000 0.000000
vt -0.036153 0.043163
vt -2.047769 0.988218
vt -2.047768 0.994138
vt 0.000000 0.406250
vt 1.023869 0.043163
vt 1.000000 0.406250
s 0
f 2/1/1 10/2/1 15/3/1
f 14/4/2 9/5/2 13/6/2
f 13/7/3 4/8/3 1/3/3
f 15/5/4 6/4/4 14/9/4
f 14/10/5 7/11/5 3/12/5
f 13/13/5 12/14/5 7/15/5
f 11/16/5 15/17/5 8/18/5
f 8/19/5 14/10/5 3/12/5
f 6/10/6 5/20/6 4/21/6
f 1/22/5 11/16/5 12/14/5
f 2/1/1 5/23/1 10/2/1
f 14/4/2 6/9/2 9/5/2
f 13/7/3 9/24/3 4/8/3
f 15/5/4 10/6/4 6/4/4
f 14/10/5 13/25/5 7/11/5
f 13/13/5 1/22/5 12/14/5
f 11/16/5 2/26/5 15/17/5
f 8/19/5 15/27/5 14/10/5
f 4/21/6 9/25/6 6/10/6
f 6/10/6 10/27/6 5/20/6
f 1/22/5 2/26/5 11/16/5
