# Blender 5.0.1
# www.blender.org
o Matelas
v 3.234648 0.693079 3.459314
v 3.234648 0.693079 5.393638
v 0.811913 0.693079 5.393638
v 0.811913 0.693079 3.459314
v 0.811912 0.975279 5.393637
v 3.234647 0.975279 5.393639
v 3.234648 0.975279 3.459314
v 0.811913 0.975279 3.459313
v 0.797554 0.740351 5.798015
v 3.249005 0.740351 5.798015
v 3.249005 0.928007 5.798016
v 0.797554 0.928007 5.798014
v 0.307751 0.740351 3.447932
v 0.307751 0.740351 5.405020
v 0.307750 0.928007 5.405019
v 0.307751 0.928007 3.447931
v 3.249006 0.740351 3.054937
v 0.797555 0.740351 3.054937
v 0.797555 0.928007 3.054937
v 3.249006 0.928007 3.054937
v 3.738810 0.928007 3.447932
v 3.738809 0.928007 5.405021
v 3.738809 0.740351 5.405021
v 3.738810 0.740351 3.447932
v 0.316533 0.714631 5.404805
v 0.365299 0.701625 5.404746
v 0.502125 0.695568 5.403549
v 3.248790 0.714631 5.790559
v 3.248731 0.701625 5.751080
v 3.247163 0.695568 5.641320
v 3.544435 0.695568 5.403550
v 3.681261 0.701625 5.404747
v 3.730027 0.714631 5.404805
v 2.695732 0.691840 3.481143
v 2.023281 0.691419 3.494313
v 1.350829 0.691840 3.481143
v 0.839320 0.976518 4.963284
v 0.855838 0.976939 4.426476
v 0.839321 0.976518 3.889666
v 3.207240 0.691840 4.963285
v 3.190722 0.691419 4.426476
v 3.207240 0.691840 3.889667
v 1.350829 0.691840 5.371809
v 2.023280 0.691419 5.358640
v 2.695731 0.691840 5.371809
v 0.797771 0.714631 3.062393
v 0.797829 0.701625 3.101872
v 0.799398 0.695568 3.211632
v 0.839321 0.691840 3.889667
v 0.855838 0.691419 4.426476
v 0.839321 0.691840 4.963285
v 3.247163 0.695568 3.211632
v 3.248732 0.701625 3.101873
v 3.248791 0.714631 3.062393
v 0.502124 0.972790 5.403549
v 0.365298 0.966733 5.404745
v 0.316532 0.953727 5.404804
v 3.730027 0.953727 5.404806
v 3.681260 0.966733 5.404747
v 3.544434 0.972790 5.403550
v 0.797409 0.782496 5.799244
v 0.797365 0.834179 5.799600
v 0.797409 0.885862 5.799243
v 2.695731 0.976518 5.371810
v 2.023279 0.976939 5.358640
v 1.350828 0.976518 5.371809
v 3.207240 0.976518 3.889667
v 3.190722 0.976939 4.426476
v 3.207239 0.976518 4.963285
v 0.799398 0.972790 3.211631
v 0.797829 0.966733 3.101872
v 0.797771 0.953727 3.062392
v 1.350829 0.976518 3.481142
v 2.023280 0.976939 3.494312
v 2.695732 0.976518 3.481143
v 3.248791 0.953727 3.062393
v 3.248731 0.966733 3.101872
v 3.247163 0.972790 3.211632
v 0.306522 0.782496 3.447786
v 0.306166 0.834179 3.447742
v 0.306522 0.885862 3.447786
v 2.705602 0.742159 5.799086
v 2.023280 0.743286 5.799340
v 1.340958 0.742159 5.799086
v 3.249150 0.885862 5.799245
v 3.249194 0.834179 5.799601
v 3.249150 0.782496 5.799244
v 0.799397 0.695568 5.641320
v 0.797829 0.701625 5.751080
v 0.797770 0.714631 5.790559
v 1.340957 0.926199 5.799086
v 2.023279 0.925072 5.799340
v 2.705601 0.926199 5.799087
v 0.797769 0.953727 5.790558
v 0.797828 0.966733 5.751079
v 0.799397 0.972790 5.641319
v 0.502126 0.695568 3.449402
v 0.365300 0.701625 3.448205
v 0.316533 0.714631 3.448147
v 0.316533 0.953727 3.448146
v 0.365300 0.966733 3.448205
v 0.502126 0.972790 3.449402
v 3.249151 0.782496 3.053708
v 3.249196 0.834179 3.053352
v 3.249151 0.885862 3.053708
v 0.306679 0.742159 4.971110
v 0.306426 0.743286 4.426476
v 0.306680 0.742159 3.881841
v 0.306521 0.885862 5.405165
v 0.306165 0.834179 5.405209
v 0.306521 0.782496 5.405165
v 0.316040 0.739665 5.649503
v 0.361691 0.739658 5.753943
v 0.491803 0.739665 5.790959
v 0.306680 0.926199 3.881841
v 0.306426 0.925072 4.426475
v 0.306679 0.926199 4.971109
v 0.316039 0.928693 5.649502
v 0.361690 0.928700 5.753943
v 0.491802 0.928693 5.790958
v 3.730028 0.714631 3.448148
v 3.681262 0.701625 3.448206
v 3.544436 0.695568 3.449403
v 3.544435 0.972790 3.449403
v 3.681261 0.966733 3.448206
v 3.730027 0.953727 3.448147
v 3.740039 0.885862 3.447787
v 3.740395 0.834179 3.447743
v 3.740039 0.782496 3.447787
v 1.340958 0.742159 3.053866
v 2.023281 0.743286 3.053612
v 2.705603 0.742159 3.053866
v 0.797410 0.885862 3.053707
v 0.797366 0.834179 3.053351
v 0.797410 0.782496 3.053708
v 0.491804 0.739665 3.061993
v 0.361692 0.739658 3.099008
v 0.316040 0.739665 3.203448
v 2.705603 0.926199 3.053866
v 2.023281 0.925072 3.053612
v 1.340958 0.926199 3.053865
v 0.491804 0.928693 3.061992
v 0.361692 0.928700 3.099008
v 0.316041 0.928693 3.203448
v 3.247162 0.972790 5.641321
v 3.248731 0.966733 5.751080
v 3.248789 0.953727 5.790560
v 3.739880 0.926199 4.971111
v 3.740134 0.925072 4.426476
v 3.739881 0.926199 3.881842
v 3.740038 0.782496 5.405166
v 3.740394 0.834179 5.405210
v 3.740038 0.885862 5.405166
v 3.730519 0.928693 5.649504
v 3.684868 0.928700 5.753944
v 3.554756 0.928693 5.790960
v 3.739881 0.742159 3.881842
v 3.740135 0.743286 4.426476
v 3.739881 0.742159 4.971110
v 3.730520 0.739665 5.649504
v 3.684869 0.739658 5.753944
v 3.554757 0.739665 5.790959
v 3.730520 0.928693 3.203449
v 3.684869 0.928700 3.099009
v 3.554757 0.928693 3.061993
v 3.730520 0.739665 3.203449
v 3.684869 0.739658 3.099009
v 3.554758 0.739665 3.061993
v 2.676841 0.690392 4.948231
v 2.023280 0.689901 4.939164
v 1.369719 0.690392 4.948231
v 2.665473 0.689901 4.426476
v 2.023280 0.689389 4.426476
v 1.381088 0.689901 4.426476
v 2.676842 0.690392 3.904721
v 2.023280 0.689901 3.913789
v 1.369719 0.690392 3.904721
v 2.676841 0.977966 4.948231
v 2.665472 0.978457 4.426476
v 2.676841 0.977966 3.904721
v 2.023280 0.978457 4.939163
v 2.023280 0.978969 4.426476
v 2.023280 0.978457 3.913788
v 1.369718 0.977966 4.948231
v 1.381088 0.978457 4.426476
v 1.369719 0.977966 3.904721
v 2.705655 0.783786 5.800527
v 2.705672 0.834179 5.800970
v 2.705655 0.884572 5.800527
v 2.023280 0.784575 5.800853
v 2.023279 0.834179 5.801333
v 2.023279 0.883783 5.800853
v 1.340905 0.783786 5.800527
v 1.340887 0.834179 5.800969
v 1.340904 0.884572 5.800527
v 0.305238 0.783786 4.971163
v 0.304796 0.834179 4.971179
v 0.305238 0.884572 4.971162
v 0.304912 0.784575 4.426476
v 0.304433 0.834179 4.426476
v 0.304912 0.883783 4.426476
v 0.305239 0.783786 3.881788
v 0.304796 0.834179 3.881771
v 0.305239 0.884572 3.881788
v 1.340905 0.783786 3.052425
v 1.340888 0.834179 3.051982
v 1.340906 0.884572 3.052425
v 2.023281 0.784575 3.052099
v 2.023281 0.834179 3.051619
v 2.023281 0.883783 3.052099
v 2.705656 0.783786 3.052425
v 2.705673 0.834179 3.051982
v 2.705656 0.884572 3.052425
v 3.741322 0.884572 4.971164
v 3.741764 0.834179 4.971181
v 3.741322 0.783786 4.971164
v 3.741648 0.883783 4.426476
v 3.742128 0.834179 4.426476
v 3.741648 0.784575 4.426476
v 3.741322 0.884572 3.881789
v 3.741764 0.834179 3.881772
v 3.741322 0.783786 3.881789
v 0.315135 0.781948 3.203137
v 0.314880 0.834179 3.203046
v 0.315135 0.886410 3.203136
v 0.361123 0.781901 3.098440
v 0.360963 0.834179 3.098279
v 0.361124 0.886457 3.098439
v 0.491492 0.781948 3.061087
v 0.491402 0.834179 3.060832
v 0.491492 0.886410 3.061087
v 0.388043 0.705056 5.732526
v 0.493097 0.714538 5.784551
v 0.366873 0.714927 5.749607
v 0.323647 0.714538 5.648369
v 0.367283 0.702660 5.646214
v 0.494267 0.697499 5.647467
v 0.495732 0.702660 5.749290
v 0.388043 0.705056 3.120425
v 0.323648 0.714538 3.204582
v 0.366873 0.714927 3.103344
v 0.493097 0.714538 3.068400
v 0.495733 0.702660 3.103662
v 0.494267 0.697499 3.205485
v 0.367284 0.702660 3.206738
v 3.658517 0.705056 5.732527
v 3.552293 0.697499 5.647467
v 3.679277 0.702660 5.646214
v 3.722913 0.714538 5.648370
v 3.679687 0.714927 5.749607
v 3.553463 0.714538 5.784552
v 3.550828 0.702660 5.749290
v 3.658518 0.705056 3.120426
v 3.553464 0.714538 3.068401
v 3.679688 0.714927 3.103345
v 3.722913 0.714538 3.204583
v 3.679278 0.702660 3.206739
v 3.552294 0.697499 3.205486
v 3.550828 0.702660 3.103663
v 3.658517 0.963302 3.120425
v 3.553463 0.953820 3.068401
v 3.550828 0.965698 3.103662
v 3.552293 0.970859 3.205485
v 3.679277 0.965698 3.206738
v 3.722913 0.953820 3.204583
v 3.679687 0.953431 3.103345
v 0.521622 0.694717 3.882776
v 0.533438 0.694452 4.426476
v 0.521622 0.694717 4.970175
v 0.371655 0.701543 3.881911
v 0.375655 0.701659 4.426476
v 0.371654 0.701543 4.971041
v 0.316591 0.715723 3.881913
v 0.316917 0.716473 4.426476
v 0.316591 0.715723 4.971038
v 3.524938 0.973641 3.882777
v 3.513122 0.973906 4.426476
v 3.524938 0.973641 4.970176
v 3.674906 0.966815 3.881912
v 3.670905 0.966699 4.426476
v 3.674905 0.966815 4.971041
v 3.729969 0.952635 3.881914
v 3.729643 0.951885 4.426476
v 3.729969 0.952635 4.971039
v 3.524939 0.694717 4.970176
v 3.513123 0.694452 4.426476
v 3.524939 0.694717 3.882777
v 3.674906 0.701543 4.971041
v 3.670905 0.701659 4.426476
v 3.674906 0.701543 3.881912
v 3.729970 0.715723 4.971039
v 3.729644 0.716473 4.426476
v 3.729970 0.715723 3.881914
v 0.388042 0.963302 5.732525
v 0.494266 0.970859 5.647466
v 0.367282 0.965698 5.646213
v 0.323646 0.953820 5.648368
v 0.366872 0.953431 5.749606
v 0.493096 0.953820 5.784551
v 0.495731 0.965698 5.749289
v 1.341030 0.715723 3.062276
v 2.023281 0.716473 3.062497
v 2.705531 0.715723 3.062277
v 1.341028 0.701543 3.106833
v 2.023281 0.701659 3.109997
v 2.705534 0.701543 3.106833
v 1.342149 0.694717 3.227118
v 2.023281 0.694452 3.236528
v 2.704412 0.694717 3.227118
v 2.705531 0.952635 3.062276
v 2.023281 0.951885 3.062497
v 1.341030 0.952635 3.062276
v 2.705533 0.966815 3.106832
v 2.023281 0.966699 3.109996
v 1.341028 0.966815 3.106832
v 2.704412 0.973641 3.227118
v 2.023280 0.973906 3.236528
v 1.342149 0.973641 3.227118
v 0.491491 0.781948 5.791864
v 0.491401 0.834179 5.792119
v 0.491491 0.886410 5.791864
v 0.361123 0.781901 5.754511
v 0.360962 0.834179 5.754672
v 0.361122 0.886457 5.754511
v 0.315134 0.781948 5.649814
v 0.314880 0.834179 5.649904
v 0.315134 0.886410 5.649814
v 2.704411 0.973641 5.625834
v 2.023279 0.973906 5.616424
v 1.342148 0.973641 5.625833
v 2.705532 0.966815 5.746119
v 2.023279 0.966699 5.742955
v 1.341026 0.966815 5.746119
v 2.705530 0.952635 5.790676
v 2.023279 0.951885 5.790455
v 1.341029 0.952635 5.790675
v 3.731426 0.886410 3.203137
v 3.731681 0.834179 3.203047
v 3.731426 0.781948 3.203138
v 3.685437 0.886457 3.098440
v 3.685598 0.834179 3.098280
v 3.685438 0.781901 3.098441
v 3.555069 0.886410 3.061088
v 3.555159 0.834179 3.060833
v 3.555069 0.781948 3.061088
v 0.388044 0.963302 3.120425
v 0.493098 0.953820 3.068400
v 0.366874 0.953431 3.103344
v 0.323648 0.953820 3.204582
v 0.367284 0.965698 3.206737
v 0.494268 0.970859 3.205484
v 0.495733 0.965698 3.103661
v 3.658516 0.963302 5.732528
v 3.722912 0.953820 5.648370
v 3.679276 0.965698 5.646214
v 3.552292 0.970859 5.647468
v 3.550827 0.965698 5.749291
v 3.553463 0.953820 5.784553
v 3.679687 0.953431 5.749608
v 3.731425 0.781948 5.649815
v 3.731680 0.834179 5.649906
v 3.731425 0.886410 5.649816
v 3.685437 0.781901 5.754512
v 3.685597 0.834179 5.754673
v 3.685437 0.886457 5.754513
v 3.555068 0.781948 5.791865
v 3.555158 0.834179 5.792120
v 3.555068 0.886410 5.791865
v 0.521621 0.973641 4.970174
v 0.533438 0.973906 4.426475
v 0.521622 0.973641 3.882776
v 0.371654 0.966815 4.971040
v 0.375655 0.966699 4.426475
v 0.371654 0.966815 3.881910
v 0.316590 0.952635 4.971037
v 0.316916 0.951885 4.426475
v 0.316591 0.952635 3.881913
v 1.342148 0.694717 5.625834
v 2.023280 0.694452 5.616424
v 2.704412 0.694717 5.625834
v 1.341027 0.701543 5.746119
v 2.023280 0.701659 5.742956
v 2.705533 0.701543 5.746119
v 1.341029 0.715723 5.790676
v 2.023280 0.716473 5.790455
v 2.705530 0.715723 5.790676
vn 0.0049 -1.0000 -0.0062
vn 0.0049 -1.0000 0.0062
vn -0.0049 -1.0000 0.0062
vn -0.0049 -1.0000 -0.0062
vn -0.0049 1.0000 0.0062
vn 0.0049 1.0000 0.0062
vn 0.0049 1.0000 -0.0062
vn -0.0049 1.0000 -0.0062
vn -0.0113 -0.1546 0.9879
vn 0.0113 -0.1546 0.9879
vn 0.0113 0.1546 0.9879
vn -0.0113 0.1546 0.9879
vn -0.9840 -0.1774 -0.0164
vn -0.9840 -0.1774 0.0164
vn -0.9840 0.1774 0.0164
vn -0.9840 0.1774 -0.0164
vn 0.0113 -0.1546 -0.9879
vn -0.0113 -0.1546 -0.9879
vn -0.0113 0.1546 -0.9879
vn 0.0113 0.1546 -0.9879
vn 0.9840 0.1774 -0.0164
vn 0.9840 0.1774 0.0164
vn 0.9840 -0.1774 0.0164
vn 0.9840 -0.1774 -0.0164
vn -0.6845 -0.7290 0.0092
vn -0.1521 -0.9884 0.0023
vn -0.0259 -0.9997 0.0041
vn 0.0065 -0.6930 0.7209
vn 0.0020 -0.9826 0.1858
vn 0.0033 -0.9995 0.0323
vn 0.0259 -0.9997 0.0041
vn 0.1521 -0.9884 0.0023
vn 0.6845 -0.7290 0.0092
vn 0.0013 -1.0000 -0.0073
vn -0.0000 -1.0000 -0.0076
vn -0.0013 -1.0000 -0.0073
vn -0.0058 1.0000 0.0016
vn -0.0060 1.0000 -0.0000
vn -0.0058 1.0000 -0.0016
vn 0.0058 -1.0000 0.0016
vn 0.0060 -1.0000 -0.0000
vn 0.0058 -1.0000 -0.0016
vn -0.0013 -1.0000 0.0073
vn -0.0000 -1.0000 0.0076
vn 0.0013 -1.0000 0.0073
vn -0.0065 -0.6930 -0.7209
vn -0.0020 -0.9826 -0.1858
vn -0.0033 -0.9995 -0.0323
vn -0.0058 -1.0000 -0.0016
vn -0.0060 -1.0000 -0.0000
vn -0.0058 -1.0000 0.0016
vn 0.0033 -0.9995 -0.0323
vn 0.0020 -0.9826 -0.1858
vn 0.0065 -0.6930 -0.7209
vn -0.0259 0.9997 0.0041
vn -0.1521 0.9884 0.0023
vn -0.6845 0.7290 0.0092
vn 0.6845 0.7290 0.0092
vn 0.1521 0.9884 0.0023
vn 0.0259 0.9997 0.0041
vn -0.0129 -0.0179 0.9998
vn -0.0133 -0.0000 0.9999
vn -0.0129 0.0180 0.9998
vn 0.0013 1.0000 0.0073
vn -0.0000 1.0000 0.0076
vn -0.0013 1.0000 0.0073
vn 0.0058 1.0000 -0.0016
vn 0.0060 1.0000 -0.0000
vn 0.0058 1.0000 0.0016
vn -0.0033 0.9995 -0.0323
vn -0.0020 0.9826 -0.1858
vn -0.0065 0.6930 -0.7209
vn -0.0013 1.0000 -0.0073
vn -0.0000 1.0000 -0.0076
vn 0.0013 1.0000 -0.0073
vn 0.0065 0.6930 -0.7209
vn 0.0020 0.9826 -0.1858
vn 0.0033 0.9995 -0.0323
vn -0.9997 -0.0179 -0.0187
vn -0.9998 -0.0000 -0.0193
vn -0.9997 0.0179 -0.0187
vn 0.0004 -0.1702 0.9854
vn -0.0000 -0.1772 0.9842
vn -0.0004 -0.1702 0.9854
vn 0.0129 0.0179 0.9998
vn 0.0133 -0.0000 0.9999
vn 0.0129 -0.0180 0.9998
vn -0.0033 -0.9995 0.0323
vn -0.0020 -0.9826 0.1858
vn -0.0065 -0.6930 0.7209
vn -0.0004 0.1702 0.9854
vn -0.0000 0.1772 0.9842
vn 0.0004 0.1702 0.9854
vn -0.0065 0.6930 0.7209
vn -0.0020 0.9826 0.1858
vn -0.0033 0.9995 0.0323
vn -0.0259 -0.9997 -0.0041
vn -0.1521 -0.9884 -0.0023
vn -0.6845 -0.7290 -0.0092
vn -0.6845 0.7290 -0.0092
vn -0.1521 0.9884 -0.0023
vn -0.0259 0.9997 -0.0041
vn 0.0129 -0.0180 -0.9998
vn 0.0133 -0.0000 -0.9999
vn 0.0129 0.0179 -0.9998
vn -0.9808 -0.1950 0.0003
vn -0.9792 -0.2031 -0.0000
vn -0.9808 -0.1950 -0.0003
vn -0.9997 0.0179 0.0187
vn -0.9998 -0.0000 0.0193
vn -0.9997 -0.0179 0.0187
vn -0.9640 -0.1555 0.2158
vn -0.6551 -0.1372 0.7430
vn -0.1473 -0.1358 0.9797
vn -0.9808 0.1950 -0.0003
vn -0.9792 0.2031 -0.0000
vn -0.9808 0.1950 0.0003
vn -0.9640 0.1555 0.2158
vn -0.6551 0.1372 0.7430
vn -0.1473 0.1358 0.9797
vn 0.6845 -0.7290 -0.0092
vn 0.1521 -0.9884 -0.0023
vn 0.0259 -0.9997 -0.0041
vn 0.0259 0.9997 -0.0041
vn 0.1521 0.9884 -0.0023
vn 0.6845 0.7290 -0.0092
vn 0.9997 0.0179 -0.0187
vn 0.9998 -0.0000 -0.0193
vn 0.9997 -0.0179 -0.0187
vn -0.0004 -0.1702 -0.9854
vn -0.0000 -0.1772 -0.9842
vn 0.0004 -0.1702 -0.9854
vn -0.0129 0.0179 -0.9998
vn -0.0133 -0.0000 -0.9999
vn -0.0129 -0.0180 -0.9998
vn -0.1473 -0.1358 -0.9797
vn -0.6551 -0.1372 -0.7430
vn -0.9640 -0.1555 -0.2158
vn 0.0004 0.1702 -0.9854
vn -0.0000 0.1772 -0.9842
vn -0.0004 0.1702 -0.9854
vn -0.1473 0.1358 -0.9797
vn -0.6551 0.1372 -0.7430
vn -0.9640 0.1555 -0.2158
vn 0.0033 0.9995 0.0323
vn 0.0020 0.9826 0.1858
vn 0.0065 0.6930 0.7209
vn 0.9808 0.1950 0.0003
vn 0.9792 0.2031 -0.0000
vn 0.9808 0.1950 -0.0003
vn 0.9997 -0.0179 0.0187
vn 0.9998 -0.0000 0.0193
vn 0.9997 0.0179 0.0187
vn 0.9640 0.1555 0.2158
vn 0.6551 0.1372 0.7430
vn 0.1473 0.1358 0.9797
vn 0.9808 -0.1950 -0.0003
vn 0.9792 -0.2031 -0.0000
vn 0.9808 -0.1950 0.0003
vn 0.9640 -0.1555 0.2158
vn 0.6551 -0.1372 0.7430
vn 0.1473 -0.1358 0.9797
vn 0.9640 0.1555 -0.2158
vn 0.6551 0.1372 -0.7430
vn 0.1473 0.1358 -0.9797
vn 0.9640 -0.1555 -0.2158
vn 0.6551 -0.1372 -0.7430
vn 0.1473 -0.1358 -0.9797
vn 0.0017 -1.0000 0.0021
vn -0.0000 -1.0000 0.0023
vn -0.0017 -1.0000 0.0021
vn 0.0018 -1.0000 -0.0000
vn -0.0000 -1.0000 -0.0000
vn -0.0018 -1.0000 -0.0000
vn 0.0017 -1.0000 -0.0021
vn -0.0000 -1.0000 -0.0023
vn -0.0017 -1.0000 -0.0021
vn 0.0017 1.0000 0.0021
vn 0.0018 1.0000 -0.0000
vn 0.0017 1.0000 -0.0021
vn -0.0000 1.0000 0.0023
vn -0.0000 1.0000 -0.0000
vn -0.0000 1.0000 -0.0023
vn -0.0017 1.0000 0.0021
vn -0.0018 1.0000 -0.0000
vn -0.0017 1.0000 -0.0021
vn 0.0014 -0.0217 0.9998
vn 0.0015 -0.0000 1.0000
vn 0.0014 0.0217 0.9998
vn -0.0000 -0.0231 0.9997
vn -0.0000 -0.0000 1.0000
vn -0.0000 0.0231 0.9997
vn -0.0014 -0.0217 0.9998
vn -0.0015 -0.0000 1.0000
vn -0.0014 0.0217 0.9998
vn -0.9998 -0.0217 0.0017
vn -1.0000 -0.0000 0.0019
vn -0.9998 0.0217 0.0017
vn -0.9997 -0.0231 -0.0000
vn -1.0000 -0.0000 -0.0000
vn -0.9997 0.0231 -0.0000
vn -0.9998 -0.0217 -0.0017
vn -1.0000 -0.0000 -0.0019
vn -0.9998 0.0217 -0.0017
vn -0.0014 -0.0217 -0.9998
vn -0.0015 -0.0000 -1.0000
vn -0.0014 0.0217 -0.9998
vn -0.0000 -0.0231 -0.9997
vn -0.0000 -0.0000 -1.0000
vn -0.0000 0.0231 -0.9997
vn 0.0014 -0.0217 -0.9998
vn 0.0015 -0.0000 -1.0000
vn 0.0014 0.0217 -0.9998
vn 0.9998 0.0217 0.0017
vn 1.0000 -0.0000 0.0019
vn 0.9998 -0.0217 0.0017
vn 0.9997 0.0231 -0.0000
vn 1.0000 -0.0000 -0.0000
vn 0.9997 -0.0231 -0.0000
vn 0.9998 0.0217 -0.0017
vn 1.0000 -0.0000 -0.0019
vn 0.9998 -0.0217 -0.0017
vn -0.9749 -0.0135 -0.2224
vn -0.9749 -0.0000 -0.2228
vn -0.9749 0.0135 -0.2224
vn -0.6579 -0.0118 -0.7530
vn -0.6579 -0.0000 -0.7531
vn -0.6579 0.0118 -0.7530
vn -0.1508 -0.0134 -0.9885
vn -0.1513 -0.0000 -0.9885
vn -0.1508 0.0134 -0.9885
vn -0.1514 -0.9686 0.1971
vn -0.1045 -0.6620 0.7422
vn -0.5153 -0.6183 0.5935
vn -0.7092 -0.6881 0.1533
vn -0.1589 -0.9866 0.0359
vn -0.0219 -0.9994 0.0276
vn -0.0278 -0.9812 0.1912
vn -0.1514 -0.9686 -0.1971
vn -0.7092 -0.6882 -0.1533
vn -0.5153 -0.6183 -0.5935
vn -0.1045 -0.6620 -0.7422
vn -0.0278 -0.9812 -0.1912
vn -0.0219 -0.9994 -0.0276
vn -0.1589 -0.9866 -0.0359
vn 0.1514 -0.9686 0.1971
vn 0.0219 -0.9994 0.0276
vn 0.1589 -0.9866 0.0359
vn 0.7092 -0.6881 0.1533
vn 0.5153 -0.6183 0.5935
vn 0.1045 -0.6620 0.7422
vn 0.0278 -0.9812 0.1912
vn 0.1514 -0.9686 -0.1971
vn 0.1045 -0.6620 -0.7422
vn 0.5153 -0.6183 -0.5935
vn 0.7092 -0.6881 -0.1533
vn 0.1589 -0.9866 -0.0359
vn 0.0219 -0.9994 -0.0276
vn 0.0278 -0.9812 -0.1912
vn 0.1514 0.9686 -0.1971
vn 0.1045 0.6620 -0.7422
vn 0.0278 0.9812 -0.1912
vn 0.0219 0.9994 -0.0276
vn 0.1589 0.9866 -0.0359
vn 0.7092 0.6881 -0.1533
vn 0.5153 0.6183 -0.5935
vn -0.0270 -0.9996 -0.0004
vn -0.0272 -0.9996 -0.0000
vn -0.0270 -0.9996 0.0004
vn -0.1478 -0.9890 0.0014
vn -0.1454 -0.9894 -0.0000
vn -0.1478 -0.9890 -0.0014
vn -0.6686 -0.7436 0.0020
vn -0.6616 -0.7498 -0.0000
vn -0.6687 -0.7436 -0.0020
vn 0.0270 0.9996 -0.0004
vn 0.0272 0.9996 -0.0000
vn 0.0270 0.9996 0.0004
vn 0.1478 0.9890 0.0014
vn 0.1454 0.9894 -0.0000
vn 0.1478 0.9890 -0.0014
vn 0.6687 0.7436 0.0020
vn 0.6616 0.7498 -0.0000
vn 0.6687 0.7436 -0.0020
vn 0.0270 -0.9996 0.0004
vn 0.0272 -0.9996 -0.0000
vn 0.0270 -0.9996 -0.0004
vn 0.1478 -0.9890 -0.0014
vn 0.1454 -0.9894 -0.0000
vn 0.1478 -0.9890 0.0014
vn 0.6687 -0.7436 -0.0020
vn 0.6616 -0.7498 -0.0000
vn 0.6687 -0.7436 0.0020
vn -0.1514 0.9686 0.1971
vn -0.0219 0.9994 0.0276
vn -0.1589 0.9866 0.0359
vn -0.7092 0.6881 0.1533
vn -0.5153 0.6183 0.5935
vn -0.1045 0.6620 0.7422
vn -0.0278 0.9812 0.1912
vn 0.0013 -0.7069 -0.7073
vn -0.0000 -0.7130 -0.7011
vn -0.0013 -0.7069 -0.7073
vn 0.0011 -0.9835 -0.1811
vn -0.0000 -0.9840 -0.1783
vn -0.0011 -0.9835 -0.1811
vn -0.0004 -0.9994 -0.0338
vn -0.0000 -0.9994 -0.0341
vn 0.0004 -0.9994 -0.0338
vn -0.0013 0.7069 -0.7073
vn -0.0000 0.7130 -0.7011
vn 0.0013 0.7069 -0.7073
vn -0.0011 0.9835 -0.1811
vn -0.0000 0.9840 -0.1783
vn 0.0011 0.9835 -0.1811
vn 0.0004 0.9994 -0.0338
vn -0.0000 0.9994 -0.0341
vn -0.0004 0.9994 -0.0338
vn -0.1508 -0.0134 0.9885
vn -0.1513 -0.0000 0.9885
vn -0.1508 0.0134 0.9885
vn -0.6579 -0.0118 0.7530
vn -0.6579 -0.0000 0.7531
vn -0.6579 0.0118 0.7530
vn -0.9749 -0.0135 0.2224
vn -0.9749 -0.0000 0.2228
vn -0.9749 0.0135 0.2224
vn 0.0004 0.9994 0.0338
vn -0.0000 0.9994 0.0341
vn -0.0004 0.9994 0.0338
vn -0.0011 0.9835 0.1811
vn -0.0000 0.9840 0.1783
vn 0.0011 0.9835 0.1811
vn -0.0013 0.7069 0.7073
vn -0.0000 0.7130 0.7011
vn 0.0013 0.7069 0.7073
vn 0.9749 0.0135 -0.2224
vn 0.9749 -0.0000 -0.2228
vn 0.9749 -0.0135 -0.2224
vn 0.6579 0.0118 -0.7530
vn 0.6579 -0.0000 -0.7531
vn 0.6579 -0.0118 -0.7530
vn 0.1508 0.0134 -0.9885
vn 0.1513 -0.0000 -0.9885
vn 0.1508 -0.0134 -0.9885
vn -0.1514 0.9686 -0.1971
vn -0.1045 0.6620 -0.7422
vn -0.5153 0.6183 -0.5935
vn -0.7092 0.6881 -0.1533
vn -0.1589 0.9866 -0.0359
vn -0.0219 0.9994 -0.0276
vn -0.0278 0.9812 -0.1912
vn 0.1514 0.9686 0.1971
vn 0.7092 0.6882 0.1533
vn 0.1589 0.9866 0.0359
vn 0.0219 0.9994 0.0276
vn 0.0278 0.9812 0.1912
vn 0.1045 0.6620 0.7422
vn 0.5153 0.6183 0.5935
vn 0.9749 -0.0135 0.2224
vn 0.9749 -0.0000 0.2228
vn 0.9749 0.0135 0.2224
vn 0.6579 -0.0118 0.7530
vn 0.6579 -0.0000 0.7531
vn 0.6579 0.0118 0.7530
vn 0.1508 -0.0134 0.9885
vn 0.1513 -0.0000 0.9885
vn 0.1508 0.0134 0.9885
vn -0.0270 0.9996 0.0004
vn -0.0272 0.9996 -0.0000
vn -0.0270 0.9996 -0.0004
vn -0.1478 0.9890 -0.0014
vn -0.1454 0.9894 -0.0000
vn -0.1478 0.9890 0.0014
vn -0.6687 0.7436 -0.0020
vn -0.6616 0.7498 -0.0000
vn -0.6687 0.7436 0.0020
vn -0.0004 -0.9994 0.0338
vn -0.0000 -0.9994 0.0341
vn 0.0004 -0.9994 0.0338
vn 0.0011 -0.9835 0.1811
vn -0.0000 -0.9840 0.1783
vn -0.0011 -0.9835 0.1811
vn 0.0013 -0.7069 0.7073
vn -0.0000 -0.7130 0.7011
vn -0.0013 -0.7069 0.7073
vt 0.258840 0.896664
vt 0.388210 0.793430
vt 0.388210 0.896664
vt 0.129471 0.793430
vt 0.258840 0.793430
vt 0.258840 0.690196
vt 0.388210 0.690196
vt 0.388210 0.999899
vt 0.517579 0.896664
vt 0.517579 0.999899
vt 0.258840 0.999899
vt 0.129471 0.896664
vt 0.129471 0.999899
vt 0.000101 0.896665
vt 0.000101 0.793430
vt 0.129471 0.690196
vt 0.000101 0.690196
vt 0.129471 0.586962
vt 0.258840 0.586962
vt 0.388210 0.586962
vt 0.517579 0.690196
vt 0.517579 0.586962
vt 0.517579 0.793430
vt 0.259659 0.208292
vt 0.185259 0.292457
vt 0.183999 0.205787
vt 0.333936 0.294403
vt 0.259597 0.293430
vt 0.259535 0.378569
vt 0.183874 0.379093
vt 0.181844 0.135239
vt 0.122377 0.202456
vt 0.119234 0.130760
vt 0.259711 0.138457
vt 0.335321 0.207767
vt 0.337581 0.137276
vt 0.396944 0.206042
vt 0.394961 0.295198
vt 0.335196 0.381073
vt 0.396817 0.384404
vt 0.337350 0.451622
vt 0.259483 0.448404
vt 0.181614 0.449584
vt 0.122250 0.380818
vt 0.119002 0.452430
vt 0.124233 0.291662
vt 0.033477 0.189657
vt 0.024010 0.290309
vt 0.024135 0.185347
vt 0.042399 0.290594
vt 0.033246 0.290451
vt 0.033279 0.391242
vt 0.023912 0.395262
vt 0.024493 0.101652
vt 0.016059 0.181638
vt 0.016348 0.095150
vt 0.034017 0.109240
vt 0.042732 0.193872
vt 0.043447 0.116671
vt 0.050529 0.197217
vt 0.050169 0.290713
vt 0.042566 0.387320
vt 0.050389 0.384216
vt 0.043144 0.464527
vt 0.033661 0.471653
vt 0.024092 0.478939
vt 0.015831 0.398740
vt 0.015938 0.485203
vt 0.015980 0.290195
vt 0.170501 0.548275
vt 0.259328 0.559325
vt 0.166512 0.558050
vt 0.259360 0.539968
vt 0.259339 0.549611
vt 0.348176 0.550685
vt 0.352140 0.560596
vt 0.092481 0.556791
vt 0.163066 0.566437
vt 0.086353 0.565217
vt 0.099591 0.546863
vt 0.174398 0.538574
vt 0.106545 0.537017
vt 0.177493 0.530422
vt 0.259383 0.531805
vt 0.344324 0.540846
vt 0.341276 0.532584
vt 0.412182 0.541094
vt 0.419086 0.551186
vt 0.426164 0.561355
vt 0.355604 0.569085
vt 0.432301 0.569964
vt 0.259338 0.567709
vt 0.485717 0.397203
vt 0.495184 0.296552
vt 0.495059 0.401514
vt 0.476795 0.296266
vt 0.485948 0.296410
vt 0.485915 0.195618
vt 0.495282 0.191598
vt 0.494701 0.485209
vt 0.503136 0.405222
vt 0.502847 0.491710
vt 0.485177 0.477621
vt 0.476462 0.392988
vt 0.475748 0.470189
vt 0.468665 0.389643
vt 0.469026 0.296147
vt 0.476628 0.199540
vt 0.468806 0.202644
vt 0.476050 0.122333
vt 0.485534 0.115207
vt 0.495102 0.107921
vt 0.503363 0.188120
vt 0.503256 0.101657
vt 0.503214 0.296666
vt 0.171018 0.036175
vt 0.259835 0.046893
vt 0.174871 0.046014
vt 0.259866 0.027536
vt 0.259856 0.037249
vt 0.348694 0.038585
vt 0.344797 0.048286
vt 0.107012 0.045766
vt 0.177919 0.054276
vt 0.112499 0.054111
vt 0.100108 0.035675
vt 0.167055 0.026265
vt 0.093031 0.025505
vt 0.163590 0.017775
vt 0.259856 0.019151
vt 0.352682 0.028810
vt 0.356129 0.020423
vt 0.426713 0.030069
vt 0.419603 0.039997
vt 0.412649 0.049844
vt 0.341701 0.056438
vt 0.407113 0.057994
vt 0.259811 0.055055
vt 0.459325 0.549990
vt 0.486250 0.552896
vt 0.468058 0.560233
vt 0.467662 0.532969
vt 0.476884 0.542869
vt 0.483503 0.523166
vt 0.493072 0.532511
vt 0.475553 0.568852
vt 0.443917 0.531565
vt 0.450767 0.539844
vt 0.460208 0.524977
vt 0.474049 0.513980
vt 0.466316 0.506628
vt 0.501204 0.540447
vt 0.494219 0.561346
vt 0.012837 0.539095
vt 0.019986 0.559154
vt 0.015521 0.542185
vt 0.038022 0.567603
vt 0.019709 0.559730
vt 0.031839 0.545666
vt 0.034994 0.564222
vt 0.015938 0.485203
vt 0.011045 0.489641
vt 0.017478 0.533936
vt 0.019709 0.559730
vt 0.012671 0.492823
vt 0.086353 0.565217
vt 0.043087 0.562946
vt 0.081993 0.570144
vt 0.034994 0.564222
vt 0.024423 0.554972
vt 0.026474 0.495732
vt 0.076219 0.552061
vt 0.073131 0.499427
vt 0.012671 0.492823
vt 0.078902 0.567889
vt 0.480677 0.573615
vt 0.498776 0.565583
vt 0.483804 0.570246
vt 0.505894 0.545709
vt 0.498982 0.566208
vt 0.487072 0.551692
vt 0.503297 0.548685
vt 0.432301 0.569964
vt 0.436732 0.574974
vt 0.498982 0.566208
vt 0.439941 0.572732
vt 0.502847 0.491710
vt 0.507787 0.496255
vt 0.442771 0.556885
vt 0.492553 0.501825
vt 0.446063 0.504207
vt 0.439941 0.572732
vt 0.506247 0.499343
vt 0.032122 0.035168
vt 0.020419 0.021277
vt 0.015898 0.038176
vt 0.038518 0.013245
vt 0.035391 0.016614
vt 0.013300 0.041151
vt 0.020213 0.020652
vt 0.076423 0.029975
vt 0.026641 0.085035
vt 0.073132 0.082653
vt 0.079253 0.014128
vt 0.012948 0.087517
vt 0.086893 0.016897
vt 0.082462 0.011886
vt 0.043642 0.018008
vt 0.020213 0.020652
vt 0.079253 0.014128
vt 0.016348 0.095150
vt 0.017991 0.046413
vt 0.011408 0.090605
vt 0.015898 0.038176
vt 0.024975 0.025515
vt 0.506357 0.047765
vt 0.499209 0.027706
vt 0.503673 0.044675
vt 0.481172 0.019257
vt 0.499485 0.027130
vt 0.487356 0.041194
vt 0.484200 0.022638
vt 0.503256 0.101657
vt 0.508150 0.097219
vt 0.501716 0.052924
vt 0.499485 0.027130
vt 0.506523 0.094037
vt 0.432841 0.021643
vt 0.476107 0.023914
vt 0.437201 0.016716
vt 0.494771 0.031888
vt 0.492721 0.091128
vt 0.442975 0.034799
vt 0.446063 0.087433
vt 0.506523 0.094037
vt 0.440292 0.018971
vt 0.461091 0.089857
vt 0.451391 0.076844
vt 0.455610 0.072289
vt 0.437712 0.092120
vt 0.453658 0.091913
vt 0.440186 0.065925
vt 0.438130 0.074083
vt 0.468182 0.127998
vt 0.466648 0.085624
vt 0.462283 0.131242
vt 0.453658 0.091913
vt 0.460584 0.067138
vt 0.401780 0.092779
vt 0.436707 0.133126
vt 0.400193 0.134430
vt 0.402493 0.073276
vt 0.453965 0.132601
vt 0.407113 0.057994
vt 0.403915 0.064146
vt 0.444319 0.060143
vt 0.361772 0.567769
vt 0.259438 0.575107
vt 0.360072 0.574792
vt 0.157250 0.565084
vt 0.259514 0.572252
vt 0.259377 0.573392
vt 0.358154 0.574533
vt 0.158797 0.572093
vt 0.363465 0.553761
vt 0.155730 0.551099
vt 0.259597 0.566792
vt 0.078902 0.567889
vt 0.160592 0.571839
vt 0.259338 0.567709
vt 0.355604 0.569085
vt 0.436732 0.574974
vt 0.432301 0.569964
vt 0.439941 0.572732
vt 0.338691 0.094533
vt 0.259773 0.072574
vt 0.339135 0.073150
vt 0.180805 0.092467
vt 0.259748 0.095062
vt 0.259792 0.061736
vt 0.339925 0.062933
vt 0.180410 0.071073
vt 0.400193 0.134430
vt 0.401780 0.092779
vt 0.337581 0.137276
vt 0.181844 0.135238
vt 0.117716 0.089068
vt 0.117047 0.069545
vt 0.179657 0.060831
vt 0.115659 0.060371
vt 0.177919 0.054276
vt 0.403915 0.064146
vt 0.157422 0.019091
vt 0.259756 0.011753
vt 0.159122 0.012069
vt 0.361944 0.021776
vt 0.259680 0.014608
vt 0.259818 0.013468
vt 0.161040 0.012327
vt 0.360397 0.014767
vt 0.076423 0.029975
vt 0.155730 0.033099
vt 0.363465 0.035761
vt 0.259597 0.020068
vt 0.440292 0.018971
vt 0.358602 0.015021
vt 0.356129 0.020423
vt 0.163590 0.017775
vt 0.082462 0.011886
vt 0.086893 0.016897
vt 0.081483 0.494740
vt 0.067803 0.510016
vt 0.065537 0.494947
vt 0.079009 0.520936
vt 0.081064 0.512778
vt 0.058104 0.497003
vt 0.063585 0.514571
vt 0.117415 0.494081
vt 0.082488 0.453735
vt 0.119002 0.452430
vt 0.116702 0.513584
vt 0.065230 0.454259
vt 0.112081 0.528866
vt 0.115279 0.522714
vt 0.074875 0.526717
vt 0.116702 0.513584
vt 0.051013 0.458862
vt 0.052546 0.501237
vt 0.056912 0.455619
vt 0.065537 0.494947
vt 0.058611 0.519723
vt 0.508785 0.296728
vt 0.509191 0.409668
vt 0.508486 0.407843
vt 0.509337 0.183756
vt 0.510772 0.296727
vt 0.503387 0.411135
vt 0.503466 0.182064
vt 0.508656 0.296664
vt 0.507787 0.496255
vt 0.503363 0.188120
vt 0.503214 0.296666
vt 0.508150 0.097219
vt 0.508685 0.185617
vt 0.492721 0.091128
vt 0.491351 0.180322
vt 0.504202 0.296565
vt 0.491351 0.412479
vt 0.492553 0.501825
vt 0.506247 0.499343
vt 0.462696 0.296061
vt 0.453329 0.205085
vt 0.462613 0.204398
vt 0.453205 0.386801
vt 0.452872 0.295938
vt 0.434415 0.205299
vt 0.434289 0.386112
vt 0.432992 0.295688
vt 0.462283 0.131242
vt 0.468665 0.389643
vt 0.469026 0.296147
vt 0.462050 0.460869
vt 0.462485 0.387720
vt 0.453738 0.459303
vt 0.436477 0.458345
vt 0.399960 0.456100
vt 0.396817 0.384404
vt 0.394961 0.295198
vt 0.400193 0.134430
vt 0.436707 0.133126
vt 0.453965 0.132601
vt 0.035241 0.517209
vt 0.032402 0.546764
vt 0.025621 0.526242
vt 0.051102 0.527463
vt 0.041817 0.537048
vt 0.059358 0.544605
vt 0.050583 0.554553
vt 0.017478 0.533936
vt 0.044759 0.508336
vt 0.052546 0.501237
vt 0.058611 0.519723
vt 0.067973 0.534758
vt 0.043087 0.562946
vt 0.024423 0.554972
vt 0.084905 0.200748
vt 0.066323 0.290922
vt 0.065990 0.200059
vt 0.084780 0.381562
vt 0.086203 0.291173
vt 0.056499 0.290800
vt 0.056709 0.199141
vt 0.065866 0.381775
vt 0.119234 0.130760
vt 0.082717 0.128515
vt 0.122250 0.380818
vt 0.119002 0.452430
vt 0.065230 0.454259
vt 0.056582 0.382462
vt 0.056912 0.455619
vt 0.050389 0.384216
vt 0.050529 0.197217
vt 0.057145 0.125991
vt 0.051269 0.122582
vt 0.065457 0.127557
vt 0.459836 0.042255
vt 0.468093 0.059397
vt 0.451222 0.052102
vt 0.486793 0.040096
vt 0.477377 0.049812
vt 0.483953 0.069652
vt 0.474435 0.078524
vt 0.444320 0.060143
vt 0.476107 0.023914
vt 0.468611 0.032307
vt 0.494771 0.031888
vt 0.493573 0.060618
vt 0.501716 0.052924
vt 0.485534 0.115207
vt 0.476050 0.122333
vt 0.466648 0.085624
vt 0.460584 0.067138
vt 0.460788 0.502232
vt 0.451066 0.515004
vt 0.453365 0.499987
vt 0.439820 0.525649
vt 0.455267 0.519671
vt 0.437415 0.499378
vt 0.437794 0.517430
vt 0.467925 0.464278
vt 0.462050 0.460869
vt 0.455267 0.519671
vt 0.453738 0.459303
vt 0.406696 0.532749
vt 0.443917 0.531565
vt 0.403536 0.526490
vt 0.437794 0.517430
vt 0.460208 0.524977
vt 0.401478 0.497792
vt 0.399960 0.456100
vt 0.402147 0.517315
vt 0.079375 0.061212
vt 0.068129 0.071856
vt 0.063927 0.067189
vt 0.081779 0.087482
vt 0.081400 0.069431
vt 0.058406 0.084628
vt 0.065830 0.086873
vt 0.112499 0.054111
vt 0.075277 0.055295
vt 0.115659 0.060371
vt 0.081400 0.069431
vt 0.058987 0.061884
vt 0.082717 0.128515
vt 0.117716 0.089068
vt 0.065457 0.127557
vt 0.117047 0.069545
vt 0.057145 0.125991
vt 0.052878 0.080232
vt 0.063927 0.067189
vt 0.059870 0.036870
vt 0.032944 0.033964
vt 0.051137 0.026627
vt 0.051532 0.053891
vt 0.042310 0.043991
vt 0.035691 0.063694
vt 0.026123 0.054350
vt 0.093031 0.025505
vt 0.043642 0.018008
vt 0.086893 0.016897
vt 0.107012 0.045766
vt 0.100108 0.035675
vt 0.068427 0.047016
vt 0.058987 0.061884
vt 0.045145 0.072880
vt 0.052878 0.080232
vt 0.180503 0.492327
vt 0.259422 0.514286
vt 0.180060 0.513710
vt 0.338389 0.494393
vt 0.259447 0.491799
vt 0.259403 0.525124
vt 0.179270 0.523928
vt 0.338785 0.515788
vt 0.117415 0.494081
vt 0.399960 0.456100
vt 0.401478 0.497792
vt 0.402147 0.517315
vt 0.339538 0.526029
vt 0.403536 0.526490
vt 0.341276 0.532584
vt 0.177493 0.530422
vt 0.115279 0.522714
vt 0.015728 0.404796
vt 0.008423 0.290133
vt 0.009857 0.403104
vt 0.015807 0.175725
vt 0.010539 0.290196
vt 0.010410 0.290132
vt 0.010509 0.401243
vt 0.010004 0.177192
vt 0.026474 0.495732
vt 0.027843 0.406538
vt 0.027843 0.174381
vt 0.014992 0.290295
vt 0.012948 0.087517
vt 0.010708 0.179017
vt 0.011408 0.090605
vt 0.011045 0.489641
vt 0.015938 0.485203
vt 0.012671 0.492823
vt 0.000101 0.999899
vt 0.000101 0.586962
vt 0.400193 0.134430
vt 0.051013 0.458862
vt 0.112081 0.528866
vt 0.406696 0.532749
vt 0.467925 0.464278
vt 0.432841 0.021643
vt 0.015521 0.542185
vt 0.024423 0.554972
vt 0.078902 0.567889
vt 0.494219 0.561346
vt 0.035391 0.016614
vt 0.024975 0.025515
vt 0.503673 0.044675
vt 0.494771 0.031888
vt 0.438130 0.074083
vt 0.112499 0.054111
vt 0.058611 0.519723
vt 0.065230 0.454259
vt 0.503256 0.101657
vt 0.467925 0.464278
vt 0.503256 0.101657
vt 0.065830 0.086873
vt 0.117047 0.069545
vt 0.406696 0.532749
s 1
f 170/1/170 172/2/172 169/3/169
f 170/1/170 174/4/174 173/5/173
f 172/2/172 176/6/176 175/7/175
f 174/4/174 176/6/176 173/5/173
f 45/8/45 40/9/40 2/10/2
f 44/11/44 169/3/169 45/8/45
f 44/11/44 171/12/171 170/1/170
f 43/13/43 51/14/51 171/12/171
f 171/12/171 50/15/50 174/4/174
f 50/15/50 177/16/177 174/4/174
f 49/17/49 36/18/36 177/16/177
f 177/16/177 35/19/35 176/6/176
f 175/7/175 35/19/35 34/20/34
f 42/21/42 34/20/34 1/22/1
f 41/23/41 175/7/175 42/21/42
f 169/3/169 41/23/41 40/9/40
f 179/24/179 181/25/181 178/26/178
f 179/24/179 183/27/183 182/28/182
f 181/25/181 185/29/185 184/30/184
f 183/27/183 185/29/185 182/28/182
f 69/31/69 64/32/64 6/33/6
f 68/34/68 178/26/178 69/31/69
f 68/34/68 180/35/180 179/24/179
f 67/36/67 75/37/75 180/35/180
f 180/35/180 74/38/74 183/27/183
f 74/38/74 186/39/186 183/27/183
f 73/40/73 39/41/39 186/39/186
f 186/39/186 38/42/38 185/29/185
f 184/30/184 38/42/38 37/43/37
f 66/44/66 37/43/37 5/45/5
f 65/46/65 184/30/184 66/44/66
f 178/26/178 65/46/65 64/32/64
f 188/47/188 190/48/190 187/49/187
f 188/47/188 192/50/192 191/51/191
f 190/48/190 194/52/194 193/53/193
f 192/50/192 194/52/194 191/51/191
f 87/54/87 82/55/82 10/56/10
f 86/57/86 187/49/187 87/54/87
f 86/57/86 189/58/189 188/47/188
f 85/59/85 93/60/93 189/58/189
f 189/58/189 92/61/92 192/50/192
f 92/61/92 195/62/195 192/50/192
f 91/63/91 63/64/63 195/62/195
f 195/62/195 62/65/62 194/52/194
f 193/53/193 62/65/62 61/66/61
f 84/67/84 61/66/61 9/68/9
f 83/69/83 193/53/193 84/67/84
f 187/49/187 83/69/83 82/55/82
f 197/70/197 199/71/199 196/72/196
f 197/70/197 201/73/201 200/74/200
f 199/71/199 203/75/203 202/76/202
f 201/73/201 203/75/203 200/74/200
f 111/77/111 106/78/106 14/79/14
f 110/80/110 196/72/196 111/77/111
f 110/80/110 198/81/198 197/70/197
f 109/82/109 117/83/117 198/81/198
f 198/81/198 116/84/116 201/73/201
f 116/84/116 204/85/204 201/73/201
f 115/86/115 81/87/81 204/85/204
f 204/85/204 80/88/80 203/75/203
f 202/76/202 80/88/80 79/89/79
f 108/90/108 79/89/79 13/91/13
f 107/92/107 202/76/202 108/90/108
f 196/72/196 107/92/107 106/78/106
f 206/93/206 208/94/208 205/95/205
f 206/93/206 210/96/210 209/97/209
f 208/94/208 212/98/212 211/99/211
f 210/96/210 212/98/212 209/97/209
f 135/100/135 130/101/130 18/102/18
f 134/103/134 205/95/205 135/100/135
f 134/103/134 207/104/207 206/93/206
f 133/105/133 141/106/141 207/104/207
f 207/104/207 140/107/140 210/96/210
f 140/107/140 213/108/213 210/96/210
f 139/109/139 105/110/105 213/108/213
f 213/108/213 104/111/104 212/98/212
f 211/99/211 104/111/104 103/112/103
f 132/113/132 103/112/103 17/114/17
f 131/115/131 211/99/211 132/113/132
f 205/95/205 131/115/131 130/101/130
f 215/116/215 217/117/217 214/118/214
f 215/116/215 219/119/219 218/120/218
f 217/117/217 221/121/221 220/122/220
f 219/119/219 221/121/221 218/120/218
f 153/123/153 148/124/148 22/125/22
f 152/126/152 214/118/214 153/123/153
f 152/126/152 216/127/216 215/116/215
f 151/128/151 159/129/159 216/127/216
f 216/127/216 158/130/158 219/119/219
f 158/130/158 222/131/222 219/119/219
f 157/132/157 129/133/129 222/131/222
f 222/131/222 128/134/128 221/121/221
f 220/122/220 128/134/128 127/135/127
f 150/136/150 127/135/127 21/137/21
f 149/138/149 220/122/220 150/136/150
f 214/118/214 149/138/149 148/124/148
f 224/139/224 226/140/226 223/141/223
f 224/139/224 228/142/228 227/143/227
f 226/140/226 230/144/230 229/145/229
f 228/142/228 230/144/230 227/143/227
f 79/89/79 138/146/138 13/91/13
f 79/89/79 224/139/224 223/141/223
f 81/87/81 224/139/224 80/88/80
f 81/87/81 144/147/144 225/148/225
f 225/148/225 143/149/143 228/142/228
f 143/149/143 231/150/231 228/142/228
f 142/151/142 133/105/133 231/150/231
f 231/150/231 134/103/134 230/144/230
f 229/145/229 134/103/134 135/100/135
f 136/152/136 135/100/135 18/102/18
f 137/153/137 229/145/229 136/152/136
f 223/141/223 137/153/137 138/146/138
f 233/154/233 232/155/232 238/156/238
f 235/157/235 232/155/232 234/158/234
f 237/159/237 232/155/232 236/160/236
f 9/161/9 233/154/233 90/162/90
f 114/163/114 234/164/234 233/154/233
f 90/162/90 238/156/238 89/165/89
f 14/166/14 235/157/235 112/167/112
f 25/168/25 236/169/236 235/157/235
f 112/167/112 234/158/234 113/170/113
f 88/171/88 27/172/27 3/173/3
f 89/174/89 237/159/237 88/171/88
f 237/159/237 26/175/26 27/172/27
f 240/176/240 239/177/239 245/178/245
f 242/179/242 239/177/239 241/180/241
f 244/181/244 239/177/239 243/182/243
f 13/183/13 240/176/240 99/184/99
f 138/146/138 241/185/241 240/176/240
f 99/184/99 245/178/245 98/186/98
f 18/187/18 242/179/242 136/152/136
f 46/188/46 243/182/243 242/179/242
f 136/152/136 241/180/241 137/153/137
f 97/189/97 48/190/48 4/191/4
f 98/192/98 244/181/244 97/189/97
f 244/181/244 47/193/47 48/190/48
f 247/194/247 246/195/246 252/196/252
f 249/197/249 246/195/246 248/198/248
f 251/199/251 246/195/246 250/200/250
f 31/201/31 30/202/30 2/203/2
f 32/204/32 247/194/247 31/201/31
f 247/194/247 29/205/29 30/202/30
f 23/206/23 249/197/249 33/207/33
f 160/208/160 250/209/250 249/197/249
f 33/207/33 248/198/248 32/210/32
f 10/211/10 251/199/251 162/212/162
f 28/213/28 252/214/252 251/199/251
f 162/212/162 250/200/250 161/215/161
f 254/216/254 253/217/253 259/218/259
f 256/219/256 253/217/253 255/220/255
f 258/221/258 253/217/253 257/222/257
f 17/223/17 254/216/254 54/224/54
f 168/225/168 255/226/255 254/216/254
f 54/224/54 259/218/259 53/227/53
f 24/228/24 256/219/256 166/229/166
f 121/230/121 257/222/257 256/219/256
f 166/229/166 255/220/255 167/231/167
f 52/232/52 123/233/123 1/234/1
f 53/235/53 258/221/258 52/232/52
f 258/221/258 122/236/122 123/233/123
f 261/237/261 260/238/260 266/239/266
f 263/240/263 260/238/260 262/241/262
f 265/242/265 260/238/260 264/243/264
f 20/244/20 261/237/261 165/245/165
f 76/246/76 262/247/262 261/237/261
f 165/245/165 266/239/266 164/248/164
f 124/249/124 78/250/78 7/251/7
f 125/252/125 263/240/263 124/249/124
f 263/240/263 77/253/77 78/250/78
f 21/254/21 265/242/265 126/255/126
f 163/256/163 266/239/266 265/242/265
f 126/255/126 264/243/264 125/252/125
f 267/257/267 271/258/271 270/259/270
f 269/260/269 271/258/271 268/261/268
f 270/259/270 274/262/274 273/263/273
f 272/264/272 274/262/274 271/258/271
f 4/191/4 267/257/267 97/189/97
f 49/265/49 268/261/268 267/257/267
f 51/266/51 268/261/268 50/267/50
f 3/173/3 269/260/269 51/266/51
f 27/172/27 272/264/272 269/260/269
f 26/268/26 275/269/275 272/264/272
f 25/168/25 106/78/106 275/269/275
f 274/262/274 106/78/106 107/270/107
f 274/262/274 108/271/108 273/263/273
f 99/272/99 108/271/108 13/273/13
f 98/274/98 273/263/273 99/272/99
f 97/189/97 270/259/270 98/274/98
f 276/275/276 280/276/280 279/277/279
f 278/278/278 280/276/280 277/279/277
f 279/277/279 283/280/283 282/281/282
f 281/282/281 283/280/283 280/276/280
f 7/283/7 276/275/276 124/284/124
f 67/285/67 277/279/277 276/275/276
f 69/286/69 277/279/277 68/34/68
f 6/33/6 278/278/278 69/286/69
f 60/287/60 281/282/281 278/278/278
f 59/288/59 284/289/284 281/282/281
f 58/290/58 148/291/148 284/289/284
f 283/280/283 148/291/148 149/138/149
f 283/280/283 150/136/150 282/281/282
f 126/292/126 150/136/150 21/137/21
f 125/252/125 282/281/282 126/292/126
f 124/284/124 279/277/279 125/252/125
f 285/293/285 289/294/289 288/295/288
f 287/296/287 289/294/289 286/297/286
f 288/295/288 292/298/292 291/299/291
f 290/300/290 292/298/292 289/294/289
f 2/203/2 285/293/285 31/301/31
f 40/302/40 286/297/286 285/293/285
f 42/303/42 286/297/286 41/304/41
f 1/234/1 287/296/287 42/303/42
f 123/233/123 290/300/290 287/296/287
f 122/305/122 293/306/293 290/300/290
f 121/230/121 157/307/157 293/306/293
f 292/298/292 157/307/157 158/130/158
f 292/298/292 159/308/159 291/299/291
f 33/309/33 159/308/159 23/310/23
f 32/204/32 291/299/291 33/309/33
f 31/301/31 288/295/288 32/204/32
f 295/311/295 294/312/294 300/313/300
f 297/314/297 294/312/294 296/315/296
f 299/316/299 294/312/294 298/317/298
f 55/318/55 96/319/96 5/320/5
f 56/321/56 295/311/295 55/318/55
f 295/311/295 95/322/95 96/319/96
f 15/323/15 297/314/297 57/324/57
f 118/325/118 298/317/298 297/314/297
f 57/324/57 296/315/296 56/326/56
f 12/327/12 299/316/299 120/328/120
f 94/329/94 300/330/300 299/316/299
f 120/328/120 298/317/298 119/331/119
f 302/332/302 304/333/304 301/334/301
f 302/332/302 306/335/306 305/336/305
f 305/336/305 307/337/307 304/333/304
f 305/336/305 309/338/309 308/339/308
f 130/101/130 46/340/46 18/187/18
f 130/101/130 302/332/302 301/334/301
f 132/341/132 302/332/302 131/342/131
f 132/341/132 54/343/54 303/344/303
f 303/344/303 53/227/53 306/335/306
f 306/335/306 52/345/52 309/338/309
f 309/338/309 1/234/1 34/346/34
f 308/339/308 34/346/34 35/347/35
f 308/339/308 36/348/36 307/337/307
f 307/337/307 4/191/4 48/349/48
f 304/333/304 48/349/48 47/350/47
f 301/334/301 47/350/47 46/340/46
f 311/351/311 313/352/313 310/353/310
f 311/351/311 315/354/315 314/355/314
f 314/355/314 316/356/316 313/352/313
f 314/355/314 318/357/318 317/358/317
f 139/109/139 76/359/76 20/244/20
f 139/109/139 311/351/311 310/353/310
f 141/360/141 311/351/311 140/361/140
f 141/360/141 72/362/72 312/363/312
f 312/363/312 71/364/71 315/354/315
f 315/354/315 70/365/70 318/357/318
f 318/357/318 8/366/8 73/367/73
f 317/358/317 73/367/73 74/368/74
f 317/358/317 75/37/75 316/356/316
f 316/356/316 7/369/7 78/370/78
f 313/352/313 78/370/78 77/371/77
f 310/353/310 77/371/77 76/359/76
f 320/372/320 322/373/322 319/374/319
f 320/372/320 324/375/324 323/376/323
f 322/373/322 326/377/326 325/378/325
f 324/375/324 326/377/326 323/376/323
f 61/66/61 114/379/114 9/68/9
f 62/65/62 319/374/319 61/66/61
f 62/65/62 321/380/321 320/372/320
f 63/64/63 120/381/120 321/380/321
f 321/380/321 119/382/119 324/375/324
f 119/382/119 327/383/327 324/375/324
f 118/325/118 109/82/109 327/383/327
f 326/377/326 109/82/109 110/80/110
f 326/377/326 111/77/111 325/378/325
f 112/384/112 111/77/111 14/79/14
f 113/385/113 325/378/325 112/384/112
f 319/374/319 113/385/113 114/379/114
f 328/386/328 332/387/332 331/388/331
f 330/389/330 332/387/332 329/390/329
f 331/388/331 335/391/335 334/392/334
f 333/393/333 335/391/335 332/387/332
f 6/394/6 328/386/328 145/395/145
f 64/32/64 329/390/329 328/386/328
f 66/396/66 329/390/329 65/46/65
f 5/397/5 330/389/330 66/396/66
f 96/319/96 333/393/333 330/389/330
f 95/398/95 336/399/336 333/393/333
f 94/400/94 91/401/91 336/399/336
f 335/391/335 91/401/91 92/61/92
f 335/391/335 93/402/93 334/392/334
f 147/403/147 93/402/93 11/404/11
f 146/405/146 334/392/334 147/403/147
f 145/395/145 331/388/331 146/405/146
f 338/406/338 340/407/340 337/408/337
f 338/406/338 342/409/342 341/410/341
f 340/407/340 344/411/344 343/412/343
f 342/409/342 344/411/344 341/410/341
f 127/135/127 163/413/163 21/137/21
f 127/135/127 338/406/338 337/408/337
f 129/133/129 338/406/338 128/134/128
f 129/133/129 166/414/166 339/415/339
f 339/415/339 167/416/167 342/409/342
f 167/416/167 345/417/345 342/409/342
f 168/418/168 103/112/103 345/417/345
f 345/417/345 104/419/104 344/411/344
f 343/412/343 104/419/104 105/420/105
f 165/421/165 105/420/105 20/244/20
f 164/422/164 343/412/343 165/421/165
f 337/408/337 164/422/164 163/413/163
f 347/423/347 346/424/346 352/425/352
f 349/426/349 346/424/346 348/427/348
f 351/428/351 346/424/346 350/429/350
f 19/430/19 347/423/347 72/431/72
f 142/151/142 348/432/348 347/423/347
f 72/431/72 352/425/352 71/433/71
f 16/434/16 349/426/349 144/435/144
f 100/436/100 350/437/350 349/426/349
f 144/435/144 348/427/348 143/438/143
f 70/365/70 102/439/102 8/440/8
f 71/364/71 351/428/351 70/365/70
f 351/428/351 101/441/101 102/439/102
f 354/442/354 353/443/353 359/444/359
f 356/445/356 353/443/353 355/446/355
f 358/447/358 353/443/353 357/448/357
f 22/449/22 354/442/354 154/450/154
f 58/451/58 355/452/355 354/442/354
f 154/450/154 359/444/359 155/453/155
f 145/454/145 60/455/60 6/33/6
f 146/456/146 356/445/356 145/454/145
f 356/445/356 59/457/59 60/455/60
f 11/404/11 358/447/358 147/458/147
f 156/459/156 359/460/359 358/447/358
f 147/458/147 357/448/357 146/456/146
f 361/461/361 363/462/363 360/463/360
f 361/461/361 365/464/365 364/465/364
f 363/462/363 367/466/367 366/467/366
f 365/464/365 367/466/367 364/465/364
f 151/468/151 160/469/160 23/470/23
f 151/468/151 361/461/361 360/463/360
f 153/471/153 361/461/361 152/472/152
f 153/471/153 154/450/154 362/473/362
f 362/473/362 155/474/155 365/464/365
f 155/474/155 368/475/368 365/464/365
f 156/476/156 85/59/85 368/475/368
f 368/475/368 86/57/86 367/466/367
f 366/467/366 86/57/86 87/54/87
f 162/212/162 87/54/87 10/56/10
f 161/215/161 366/467/366 162/212/162
f 360/463/360 161/215/161 160/469/160
f 369/477/369 373/478/373 372/479/372
f 371/480/371 373/478/373 370/481/370
f 372/479/372 376/482/376 375/483/375
f 374/484/374 376/482/376 373/478/373
f 5/45/5 369/477/369 55/485/55
f 37/43/37 370/481/370 369/477/369
f 39/41/39 370/481/370 38/42/38
f 8/486/8 371/480/371 39/41/39
f 102/487/102 374/484/374 371/480/371
f 101/488/101 377/489/377 374/484/374
f 100/490/100 115/491/115 377/489/377
f 376/482/376 115/491/115 116/84/116
f 376/482/376 117/492/117 375/483/375
f 57/493/57 117/492/117 15/323/15
f 56/326/56 375/483/375 57/493/57
f 55/485/55 372/479/372 56/326/56
f 378/494/378 382/495/382 381/496/381
f 380/497/380 382/495/382 379/498/379
f 381/496/381 385/499/385 384/500/384
f 383/501/383 385/499/385 382/495/382
f 3/173/3 378/494/378 88/502/88
f 43/503/43 379/498/379 378/494/378
f 45/504/45 379/498/379 44/505/44
f 2/203/2 380/497/380 45/504/45
f 30/202/30 383/501/383 380/497/380
f 29/506/29 386/507/386 383/501/383
f 28/508/28 82/55/82 386/507/386
f 385/499/385 82/55/82 83/69/83
f 385/499/385 84/67/84 384/500/384
f 90/509/90 84/67/84 9/510/9
f 89/511/89 384/500/384 90/509/90
f 88/502/88 381/496/381 89/511/89
f 170/1/170 173/5/173 172/2/172
f 170/1/170 171/12/171 174/4/174
f 172/2/172 173/5/173 176/6/176
f 174/4/174 177/16/177 176/6/176
f 45/8/45 169/3/169 40/9/40
f 44/11/44 170/1/170 169/3/169
f 44/11/44 43/13/43 171/12/171
f 43/13/43 3/512/3 51/14/51
f 171/12/171 51/14/51 50/15/50
f 50/15/50 49/17/49 177/16/177
f 49/17/49 4/513/4 36/18/36
f 177/16/177 36/18/36 35/19/35
f 175/7/175 176/6/176 35/19/35
f 42/21/42 175/7/175 34/20/34
f 41/23/41 172/2/172 175/7/175
f 169/3/169 172/2/172 41/23/41
f 179/24/179 182/28/182 181/25/181
f 179/24/179 180/35/180 183/27/183
f 181/25/181 182/28/182 185/29/185
f 183/27/183 186/39/186 185/29/185
f 69/31/69 178/26/178 64/32/64
f 68/34/68 179/24/179 178/26/178
f 68/34/68 67/36/67 180/35/180
f 67/36/67 7/514/7 75/37/75
f 180/35/180 75/37/75 74/38/74
f 74/38/74 73/40/73 186/39/186
f 73/40/73 8/486/8 39/41/39
f 186/39/186 39/41/39 38/42/38
f 184/30/184 185/29/185 38/42/38
f 66/44/66 184/30/184 37/43/37
f 65/46/65 181/25/181 184/30/184
f 178/26/178 181/25/181 65/46/65
f 188/47/188 191/51/191 190/48/190
f 188/47/188 189/58/189 192/50/192
f 190/48/190 191/51/191 194/52/194
f 192/50/192 195/62/195 194/52/194
f 87/54/87 187/49/187 82/55/82
f 86/57/86 188/47/188 187/49/187
f 86/57/86 85/59/85 189/58/189
f 85/59/85 11/404/11 93/60/93
f 189/58/189 93/60/93 92/61/92
f 92/61/92 91/63/91 195/62/195
f 91/63/91 12/515/12 63/64/63
f 195/62/195 63/64/63 62/65/62
f 193/53/193 194/52/194 62/65/62
f 84/67/84 193/53/193 61/66/61
f 83/69/83 190/48/190 193/53/193
f 187/49/187 190/48/190 83/69/83
f 197/70/197 200/74/200 199/71/199
f 197/70/197 198/81/198 201/73/201
f 199/71/199 200/74/200 203/75/203
f 201/73/201 204/85/204 203/75/203
f 111/77/111 196/72/196 106/78/106
f 110/80/110 197/70/197 196/72/196
f 110/80/110 109/82/109 198/81/198
f 109/82/109 15/516/15 117/83/117
f 198/81/198 117/83/117 116/84/116
f 116/84/116 115/86/115 204/85/204
f 115/86/115 16/517/16 81/87/81
f 204/85/204 81/87/81 80/88/80
f 202/76/202 203/75/203 80/88/80
f 108/90/108 202/76/202 79/89/79
f 107/92/107 199/71/199 202/76/202
f 196/72/196 199/71/199 107/92/107
f 206/93/206 209/97/209 208/94/208
f 206/93/206 207/104/207 210/96/210
f 208/94/208 209/97/209 212/98/212
f 210/96/210 213/108/213 212/98/212
f 135/100/135 205/95/205 130/101/130
f 134/103/134 206/93/206 205/95/205
f 134/103/134 133/105/133 207/104/207
f 133/105/133 19/518/19 141/106/141
f 207/104/207 141/106/141 140/107/140
f 140/107/140 139/109/139 213/108/213
f 139/109/139 20/244/20 105/110/105
f 213/108/213 105/110/105 104/111/104
f 211/99/211 212/98/212 104/111/104
f 132/113/132 211/99/211 103/112/103
f 131/115/131 208/94/208 211/99/211
f 205/95/205 208/94/208 131/115/131
f 215/116/215 218/120/218 217/117/217
f 215/116/215 216/127/216 219/119/219
f 217/117/217 218/120/218 221/121/221
f 219/119/219 222/131/222 221/121/221
f 153/123/153 214/118/214 148/124/148
f 152/126/152 215/116/215 214/118/214
f 152/126/152 151/128/151 216/127/216
f 151/128/151 23/310/23 159/129/159
f 216/127/216 159/129/159 158/130/158
f 158/130/158 157/132/157 222/131/222
f 157/132/157 24/519/24 129/133/129
f 222/131/222 129/133/129 128/134/128
f 220/122/220 221/121/221 128/134/128
f 150/136/150 220/122/220 127/135/127
f 149/138/149 217/117/217 220/122/220
f 214/118/214 217/117/217 149/138/149
f 224/139/224 227/143/227 226/140/226
f 224/139/224 225/148/225 228/142/228
f 226/140/226 227/143/227 230/144/230
f 228/142/228 231/150/231 230/144/230
f 79/89/79 223/141/223 138/146/138
f 79/89/79 80/88/80 224/139/224
f 81/87/81 225/148/225 224/139/224
f 81/87/81 16/517/16 144/147/144
f 225/148/225 144/147/144 143/149/143
f 143/149/143 142/151/142 231/150/231
f 142/151/142 19/518/19 133/105/133
f 231/150/231 133/105/133 134/103/134
f 229/145/229 230/144/230 134/103/134
f 136/152/136 229/145/229 135/100/135
f 137/153/137 226/140/226 229/145/229
f 223/141/223 226/140/226 137/153/137
f 233/154/233 234/164/234 232/155/232
f 235/157/235 236/169/236 232/155/232
f 237/159/237 238/520/238 232/155/232
f 9/161/9 114/163/114 233/154/233
f 114/163/114 113/521/113 234/164/234
f 90/162/90 233/154/233 238/156/238
f 14/166/14 25/168/25 235/157/235
f 25/168/25 26/522/26 236/169/236
f 112/167/112 235/157/235 234/158/234
f 88/171/88 237/159/237 27/172/27
f 89/174/89 238/520/238 237/159/237
f 237/159/237 236/160/236 26/175/26
f 240/176/240 241/185/241 239/177/239
f 242/179/242 243/182/243 239/177/239
f 244/181/244 245/178/245 239/177/239
f 13/183/13 138/146/138 240/176/240
f 138/146/138 137/523/137 241/185/241
f 99/184/99 240/176/240 245/178/245
f 18/187/18 46/188/46 242/179/242
f 46/188/46 47/193/47 243/182/243
f 136/152/136 242/179/242 241/180/241
f 97/189/97 244/181/244 48/190/48
f 98/192/98 245/178/245 244/181/244
f 244/181/244 243/182/243 47/193/47
f 247/194/247 248/524/248 246/195/246
f 249/197/249 250/209/250 246/195/246
f 251/199/251 252/214/252 246/195/246
f 31/201/31 247/194/247 30/202/30
f 32/204/32 248/524/248 247/194/247
f 247/194/247 252/196/252 29/205/29
f 23/206/23 160/208/160 249/197/249
f 160/208/160 161/525/161 250/209/250
f 33/207/33 249/197/249 248/198/248
f 10/211/10 28/213/28 251/199/251
f 28/213/28 29/205/29 252/214/252
f 162/212/162 251/199/251 250/200/250
f 254/216/254 255/226/255 253/217/253
f 256/219/256 257/222/257 253/217/253
f 258/221/258 259/526/259 253/217/253
f 17/223/17 168/225/168 254/216/254
f 168/225/168 167/527/167 255/226/255
f 54/224/54 254/216/254 259/218/259
f 24/228/24 121/230/121 256/219/256
f 121/230/121 122/305/122 257/222/257
f 166/229/166 256/219/256 255/220/255
f 52/232/52 258/221/258 123/233/123
f 53/235/53 259/526/259 258/221/258
f 258/221/258 257/222/257 122/236/122
f 261/237/261 262/247/262 260/238/260
f 263/240/263 264/528/264 260/238/260
f 265/242/265 266/239/266 260/238/260
f 20/244/20 76/246/76 261/237/261
f 76/246/76 77/253/77 262/247/262
f 165/245/165 261/237/261 266/239/266
f 124/249/124 263/240/263 78/250/78
f 125/252/125 264/528/264 263/240/263
f 263/240/263 262/241/262 77/253/77
f 21/254/21 163/256/163 265/242/265
f 163/256/163 164/248/164 266/239/266
f 126/255/126 265/242/265 264/243/264
f 267/257/267 268/261/268 271/258/271
f 269/260/269 272/264/272 271/258/271
f 270/259/270 271/258/271 274/262/274
f 272/264/272 275/269/275 274/262/274
f 4/191/4 49/265/49 267/257/267
f 49/265/49 50/267/50 268/261/268
f 51/266/51 269/260/269 268/261/268
f 3/173/3 27/172/27 269/260/269
f 27/172/27 26/268/26 272/264/272
f 26/268/26 25/168/25 275/269/275
f 25/168/25 14/166/14 106/78/106
f 274/262/274 275/269/275 106/78/106
f 274/262/274 107/270/107 108/271/108
f 99/272/99 273/263/273 108/271/108
f 98/274/98 270/259/270 273/263/273
f 97/189/97 267/257/267 270/259/270
f 276/275/276 277/279/277 280/276/280
f 278/278/278 281/282/281 280/276/280
f 279/277/279 280/276/280 283/280/283
f 281/282/281 284/289/284 283/280/283
f 7/283/7 67/285/67 276/275/276
f 67/285/67 68/34/68 277/279/277
f 69/286/69 278/278/278 277/279/277
f 6/33/6 60/287/60 278/278/278
f 60/287/60 59/288/59 281/282/281
f 59/288/59 58/290/58 284/289/284
f 58/290/58 22/529/22 148/291/148
f 283/280/283 284/289/284 148/291/148
f 283/280/283 149/138/149 150/136/150
f 126/292/126 282/281/282 150/136/150
f 125/252/125 279/277/279 282/281/282
f 124/284/124 276/275/276 279/277/279
f 285/293/285 286/297/286 289/294/289
f 287/296/287 290/300/290 289/294/289
f 288/295/288 289/294/289 292/298/292
f 290/300/290 293/306/293 292/298/292
f 2/203/2 40/302/40 285/293/285
f 40/302/40 41/304/41 286/297/286
f 42/303/42 287/296/287 286/297/286
f 1/234/1 123/233/123 287/296/287
f 123/233/123 122/305/122 290/300/290
f 122/305/122 121/230/121 293/306/293
f 121/230/121 24/519/24 157/307/157
f 292/298/292 293/306/293 157/307/157
f 292/298/292 158/130/158 159/308/159
f 33/309/33 291/299/291 159/308/159
f 32/204/32 288/295/288 291/299/291
f 31/301/31 285/293/285 288/295/288
f 295/311/295 296/315/296 294/312/294
f 297/314/297 298/317/298 294/312/294
f 299/316/299 300/330/300 294/312/294
f 55/318/55 295/311/295 96/319/96
f 56/321/56 296/315/296 295/311/295
f 295/311/295 300/313/300 95/322/95
f 15/323/15 118/325/118 297/314/297
f 118/325/118 119/530/119 298/317/298
f 57/324/57 297/314/297 296/315/296
f 12/327/12 94/329/94 299/316/299
f 94/329/94 95/531/95 300/330/300
f 120/328/120 299/316/299 298/317/298
f 302/332/302 305/336/305 304/333/304
f 302/332/302 303/344/303 306/335/306
f 305/336/305 308/339/308 307/337/307
f 305/336/305 306/335/306 309/338/309
f 130/101/130 301/334/301 46/340/46
f 130/101/130 131/342/131 302/332/302
f 132/341/132 303/344/303 302/332/302
f 132/341/132 17/532/17 54/343/54
f 303/344/303 54/343/54 53/227/53
f 306/335/306 53/227/53 52/345/52
f 309/338/309 52/345/52 1/234/1
f 308/339/308 309/338/309 34/346/34
f 308/339/308 35/347/35 36/348/36
f 307/337/307 36/348/36 4/191/4
f 304/333/304 307/337/307 48/349/48
f 301/334/301 304/333/304 47/350/47
f 311/351/311 314/355/314 313/352/313
f 311/351/311 312/363/312 315/354/315
f 314/355/314 317/358/317 316/356/316
f 314/355/314 315/354/315 318/357/318
f 139/109/139 310/353/310 76/359/76
f 139/109/139 140/361/140 311/351/311
f 141/360/141 312/363/312 311/351/311
f 141/360/141 19/533/19 72/362/72
f 312/363/312 72/362/72 71/364/71
f 315/354/315 71/364/71 70/365/70
f 318/357/318 70/365/70 8/366/8
f 317/358/317 318/357/318 73/367/73
f 317/358/317 74/368/74 75/37/75
f 316/356/316 75/37/75 7/369/7
f 313/352/313 316/356/316 78/370/78
f 310/353/310 313/352/313 77/371/77
f 320/372/320 323/376/323 322/373/322
f 320/372/320 321/380/321 324/375/324
f 322/373/322 323/376/323 326/377/326
f 324/375/324 327/383/327 326/377/326
f 61/66/61 319/374/319 114/379/114
f 62/65/62 320/372/320 319/374/319
f 62/65/62 63/64/63 321/380/321
f 63/64/63 12/515/12 120/381/120
f 321/380/321 120/381/120 119/382/119
f 119/382/119 118/325/118 327/383/327
f 118/325/118 15/516/15 109/82/109
f 326/377/326 327/383/327 109/82/109
f 326/377/326 110/80/110 111/77/111
f 112/384/112 325/378/325 111/77/111
f 113/385/113 322/373/322 325/378/325
f 319/374/319 322/373/322 113/385/113
f 328/386/328 329/390/329 332/387/332
f 330/389/330 333/393/333 332/387/332
f 331/388/331 332/387/332 335/391/335
f 333/393/333 336/399/336 335/391/335
f 6/394/6 64/32/64 328/386/328
f 64/32/64 65/46/65 329/390/329
f 66/396/66 330/389/330 329/390/329
f 5/397/5 96/319/96 330/389/330
f 96/319/96 95/398/95 333/393/333
f 95/398/95 94/400/94 336/399/336
f 94/400/94 12/515/12 91/401/91
f 335/391/335 336/399/336 91/401/91
f 335/391/335 92/61/92 93/402/93
f 147/403/147 334/392/334 93/402/93
f 146/405/146 331/388/331 334/392/334
f 145/395/145 328/386/328 331/388/331
f 338/406/338 341/410/341 340/407/340
f 338/406/338 339/415/339 342/409/342
f 340/407/340 341/410/341 344/411/344
f 342/409/342 345/417/345 344/411/344
f 127/135/127 337/408/337 163/413/163
f 127/135/127 128/134/128 338/406/338
f 129/133/129 339/415/339 338/406/338
f 129/133/129 24/519/24 166/414/166
f 339/415/339 166/414/166 167/416/167
f 167/416/167 168/418/168 345/417/345
f 168/418/168 17/534/17 103/112/103
f 345/417/345 103/112/103 104/419/104
f 343/412/343 344/411/344 104/419/104
f 165/421/165 343/412/343 105/420/105
f 164/422/164 340/407/340 343/412/343
f 337/408/337 340/407/340 164/422/164
f 347/423/347 348/432/348 346/424/346
f 349/426/349 350/437/350 346/424/346
f 351/428/351 352/425/352 346/424/346
f 19/430/19 142/151/142 347/423/347
f 142/151/142 143/438/143 348/432/348
f 72/431/72 347/423/347 352/425/352
f 16/434/16 100/436/100 349/426/349
f 100/436/100 101/441/101 350/437/350
f 144/435/144 349/426/349 348/427/348
f 70/365/70 351/428/351 102/439/102
f 71/364/71 352/425/352 351/428/351
f 351/428/351 350/429/350 101/441/101
f 354/442/354 355/452/355 353/443/353
f 356/445/356 357/535/357 353/443/353
f 358/447/358 359/460/359 353/443/353
f 22/449/22 58/451/58 354/442/354
f 58/451/58 59/536/59 355/452/355
f 154/450/154 354/442/354 359/444/359
f 145/454/145 356/445/356 60/455/60
f 146/456/146 357/535/357 356/445/356
f 356/445/356 355/446/355 59/457/59
f 11/404/11 156/459/156 358/447/358
f 156/459/156 155/474/155 359/460/359
f 147/458/147 358/447/358 357/448/357
f 361/461/361 364/465/364 363/462/363
f 361/461/361 362/473/362 365/464/365
f 363/462/363 364/465/364 367/466/367
f 365/464/365 368/475/368 367/466/367
f 151/468/151 360/463/360 160/469/160
f 151/468/151 152/472/152 361/461/361
f 153/471/153 362/473/362 361/461/361
f 153/471/153 22/449/22 154/450/154
f 362/473/362 154/450/154 155/474/155
f 155/474/155 156/476/156 368/475/368
f 156/476/156 11/404/11 85/59/85
f 368/475/368 85/59/85 86/57/86
f 366/467/366 367/466/367 86/57/86
f 162/212/162 366/467/366 87/54/87
f 161/215/161 363/462/363 366/467/366
f 360/463/360 363/462/363 161/215/161
f 369/477/369 370/481/370 373/478/373
f 371/480/371 374/484/374 373/478/373
f 372/479/372 373/478/373 376/482/376
f 374/484/374 377/489/377 376/482/376
f 5/45/5 37/43/37 369/477/369
f 37/43/37 38/42/38 370/481/370
f 39/41/39 371/480/371 370/481/370
f 8/486/8 102/487/102 371/480/371
f 102/487/102 101/488/101 374/484/374
f 101/488/101 100/490/100 377/489/377
f 100/490/100 16/537/16 115/491/115
f 376/482/376 377/489/377 115/491/115
f 376/482/376 116/84/116 117/492/117
f 57/493/57 375/483/375 117/492/117
f 56/326/56 372/479/372 375/483/375
f 55/485/55 369/477/369 372/479/372
f 378/494/378 379/498/379 382/495/382
f 380/497/380 383/501/383 382/495/382
f 381/496/381 382/495/382 385/499/385
f 383/501/383 386/507/386 385/499/385
f 3/173/3 43/503/43 378/494/378
f 43/503/43 44/505/44 379/498/379
f 45/504/45 380/497/380 379/498/379
f 2/203/2 30/202/30 380/497/380
f 30/202/30 29/506/29 383/501/383
f 29/506/29 28/508/28 386/507/386
f 28/508/28 10/211/10 82/55/82
f 385/499/385 386/507/386 82/55/82
f 385/499/385 83/69/83 84/67/84
f 90/509/90 384/500/384 84/67/84
f 89/511/89 381/496/381 384/500/384
f 88/502/88 378/494/378 381/496/381
