# Blender 5.0.1
# www.blender.org
o Pieds
v 3.694218 -0.000000 3.153708
v 3.700238 0.343991 3.153708
v 3.690094 -0.000000 3.174441
v 3.695655 0.343991 3.176745
v 3.678349 -0.000000 3.192018
v 3.682606 0.343991 3.196275
v 3.660773 -0.000000 3.203763
v 3.663076 0.343991 3.209324
v 3.640039 -0.000000 3.207887
v 3.640039 0.343991 3.213907
v 3.619306 -0.000000 3.203763
v 3.617002 0.343991 3.209324
v 3.601729 -0.000000 3.192018
v 3.597473 0.343991 3.196275
v 3.589985 -0.000000 3.174441
v 3.584423 0.343991 3.176745
v 3.585861 -0.000000 3.153708
v 3.579841 0.343991 3.153708
v 3.589985 -0.000000 3.132975
v 3.584423 0.343991 3.130671
v 3.601729 -0.000000 3.115398
v 3.597473 0.343991 3.111141
v 3.619306 -0.000000 3.103654
v 3.617002 0.343991 3.098092
v 3.640039 -0.000000 3.099530
v 3.640039 0.343991 3.093510
v 3.660773 -0.000000 3.103654
v 3.663076 0.343991 3.098092
v 3.678349 -0.000000 3.115398
v 3.682606 0.343991 3.111141
v 3.690094 -0.000000 3.132975
v 3.695656 0.343991 3.130671
v 3.700238 0.017200 3.153708
v 3.695655 0.017200 3.176745
v 3.682606 0.017200 3.196275
v 3.663076 0.017200 3.209324
v 3.640039 0.017200 3.213907
v 3.617002 0.017200 3.209324
v 3.597473 0.017200 3.196275
v 3.584423 0.017200 3.176745
v 3.579841 0.017200 3.153708
v 3.584423 0.017200 3.130671
v 3.597473 0.017200 3.111141
v 3.617002 0.017200 3.098092
v 3.640039 0.017200 3.093510
v 3.663076 0.017200 3.098092
v 3.682606 0.017200 3.111141
v 3.695656 0.017200 3.130671
v 3.694218 -0.000000 5.699244
v 3.700238 0.343991 5.699244
v 3.690094 -0.000000 5.678511
v 3.695655 0.343991 5.676207
v 3.678349 -0.000000 5.660934
v 3.682606 0.343991 5.656677
v 3.660773 -0.000000 5.649189
v 3.663076 0.343991 5.643628
v 3.640039 -0.000000 5.645065
v 3.640039 0.343991 5.639046
v 3.619306 -0.000000 5.649189
v 3.617002 0.343991 5.643628
v 3.601729 -0.000000 5.660934
v 3.597473 0.343991 5.656677
v 3.589985 -0.000000 5.678511
v 3.584423 0.343991 5.676207
v 3.585861 -0.000000 5.699244
v 3.579841 0.343991 5.699244
v 3.589985 -0.000000 5.719977
v 3.584423 0.343991 5.722281
v 3.601729 -0.000000 5.737554
v 3.597473 0.343991 5.741811
v 3.619306 -0.000000 5.749299
v 3.617002 0.343991 5.754860
v 3.640039 -0.000000 5.753423
v 3.640039 0.343991 5.759442
v 3.660773 -0.000000 5.749299
v 3.663076 0.343991 5.754860
v 3.678349 -0.000000 5.737554
v 3.682606 0.343991 5.741811
v 3.690094 -0.000000 5.719977
v 3.695656 0.343991 5.722281
v 3.700238 0.017200 5.699244
v 3.695655 0.017200 5.676207
v 3.682606 0.017200 5.656677
v 3.663076 0.017200 5.643628
v 3.640039 0.017200 5.639046
v 3.617002 0.017200 5.643628
v 3.597473 0.017200 5.656677
v 3.584423 0.017200 5.676207
v 3.579841 0.017200 5.699244
v 3.584423 0.017200 5.722281
v 3.597473 0.017200 5.741811
v 3.617002 0.017200 5.754860
v 3.640039 0.017200 5.759442
v 3.663076 0.017200 5.754860
v 3.682606 0.017200 5.741811
v 3.695656 0.017200 5.722281
v 0.352342 -0.000000 3.153708
v 0.346322 0.343991 3.153708
v 0.356466 -0.000000 3.174441
v 0.350905 0.343991 3.176745
v 0.368211 -0.000000 3.192018
v 0.363954 0.343991 3.196275
v 0.385788 -0.000000 3.203763
v 0.383484 0.343991 3.209324
v 0.406521 -0.000000 3.207887
v 0.406521 0.343991 3.213907
v 0.427254 -0.000000 3.203763
v 0.429558 0.343991 3.209324
v 0.444831 -0.000000 3.192018
v 0.449088 0.343991 3.196275
v 0.456575 -0.000000 3.174441
v 0.462137 0.343991 3.176745
v 0.460700 -0.000000 3.153708
v 0.466719 0.343991 3.153708
v 0.456575 -0.000000 3.132975
v 0.462137 0.343991 3.130671
v 0.444831 -0.000000 3.115398
v 0.449088 0.343991 3.111141
v 0.427254 -0.000000 3.103653
v 0.429558 0.343991 3.098092
v 0.406521 -0.000000 3.099529
v 0.406521 0.343991 3.093509
v 0.385788 -0.000000 3.103653
v 0.383484 0.343991 3.098092
v 0.368211 -0.000000 3.115398
v 0.363954 0.343991 3.111141
v 0.356466 -0.000000 3.132975
v 0.350905 0.343991 3.130671
v 0.346322 0.017200 3.153708
v 0.350905 0.017200 3.176745
v 0.363954 0.017200 3.196275
v 0.383484 0.017200 3.209324
v 0.406521 0.017200 3.213907
v 0.429558 0.017200 3.209324
v 0.449088 0.017200 3.196275
v 0.462137 0.017200 3.176745
v 0.466719 0.017200 3.153708
v 0.462137 0.017200 3.130671
v 0.449088 0.017200 3.111141
v 0.429558 0.017200 3.098092
v 0.406521 0.017200 3.093509
v 0.383484 0.017200 3.098092
v 0.363954 0.017200 3.111141
v 0.350905 0.017200 3.130671
v 0.352342 -0.000000 5.699244
v 0.346322 0.343991 5.699244
v 0.356466 -0.000000 5.678511
v 0.350905 0.343991 5.676207
v 0.368211 -0.000000 5.660933
v 0.363954 0.343991 5.656677
v 0.385788 -0.000000 5.649189
v 0.383484 0.343991 5.643628
v 0.406521 -0.000000 5.645065
v 0.406521 0.343991 5.639045
v 0.427254 -0.000000 5.649189
v 0.429558 0.343991 5.643628
v 0.444831 -0.000000 5.660933
v 0.449088 0.343991 5.656677
v 0.456575 -0.000000 5.678511
v 0.462137 0.343991 5.676207
v 0.460700 -0.000000 5.699244
v 0.466719 0.343991 5.699244
v 0.456575 -0.000000 5.719977
v 0.462137 0.343991 5.722281
v 0.444831 -0.000000 5.737554
v 0.449088 0.343991 5.741811
v 0.427254 -0.000000 5.749298
v 0.429558 0.343991 5.754860
v 0.406521 -0.000000 5.753422
v 0.406521 0.343991 5.759442
v 0.385788 -0.000000 5.749298
v 0.383484 0.343991 5.754860
v 0.368211 -0.000000 5.737554
v 0.363954 0.343991 5.741811
v 0.356466 -0.000000 5.719977
v 0.350905 0.343991 5.722281
v 0.346322 0.017200 5.699244
v 0.350905 0.017200 5.676207
v 0.363954 0.017200 5.656677
v 0.383484 0.017200 5.643628
v 0.406521 0.017200 5.639045
v 0.429558 0.017200 5.643628
v 0.449088 0.017200 5.656677
v 0.462137 0.017200 5.676207
v 0.466719 0.017200 5.699244
v 0.462137 0.017200 5.722281
v 0.449088 0.017200 5.741811
v 0.429558 0.017200 5.754860
v 0.406521 0.017200 5.759442
v 0.383484 0.017200 5.754860
v 0.363954 0.017200 5.741811
v 0.350905 0.017200 5.722281
vn 0.6229 -0.7823 -0.0000
vn 0.7462 0.6657 -0.0000
vn 0.5755 -0.7823 0.2384
vn 0.6894 0.6657 0.2856
vn 0.4404 -0.7823 0.4404
vn 0.5277 0.6657 0.5277
vn 0.2384 -0.7823 0.5755
vn 0.2856 0.6657 0.6894
vn -0.0000 -0.7823 0.6228
vn -0.0000 0.6657 0.7462
vn -0.2384 -0.7823 0.5755
vn -0.2856 0.6657 0.6894
vn -0.4404 -0.7823 0.4404
vn -0.5277 0.6657 0.5277
vn -0.5755 -0.7823 0.2384
vn -0.6894 0.6657 0.2856
vn -0.6228 -0.7823 -0.0000
vn -0.7462 0.6657 -0.0000
vn -0.5755 -0.7823 -0.2384
vn -0.6894 0.6657 -0.2856
vn -0.4404 -0.7823 -0.4404
vn -0.5276 0.6657 -0.5277
vn -0.2384 -0.7823 -0.5755
vn -0.2856 0.6657 -0.6894
vn -0.0000 -0.7823 -0.6229
vn -0.0000 0.6657 -0.7462
vn 0.2384 -0.7823 -0.5755
vn 0.2856 0.6657 -0.6894
vn 0.4404 -0.7823 -0.4404
vn 0.5277 0.6657 -0.5277
vn 0.5754 -0.7823 -0.2384
vn 0.6894 0.6657 -0.2856
vn 0.9864 -0.1642 -0.0000
vn 0.9113 -0.1642 0.3775
vn 0.6975 -0.1642 0.6975
vn 0.3775 -0.1642 0.9113
vn -0.0000 -0.1642 0.9864
vn -0.3775 -0.1642 0.9113
vn -0.6975 -0.1642 0.6975
vn -0.9113 -0.1642 0.3775
vn -0.9864 -0.1642 -0.0000
vn -0.9113 -0.1642 -0.3775
vn -0.6975 -0.1642 -0.6975
vn -0.3775 -0.1642 -0.9113
vn -0.0000 -0.1642 -0.9864
vn 0.3775 -0.1642 -0.9113
vn 0.6975 -0.1642 -0.6975
vn 0.9113 -0.1642 -0.3775
vn 0.5755 -0.7823 -0.2384
vn -0.0000 -0.7823 -0.6228
vn -0.5277 0.6657 -0.5277
vn -0.0000 -0.7823 0.6229
vn 0.5754 -0.7823 0.2384
vn -0.6229 -0.7823 -0.0000
vn 0.6228 -0.7823 -0.0000
vn -0.5754 -0.7823 -0.2384
vn 0.5276 0.6657 0.5277
vn -0.5754 -0.7823 0.2384
s 1
f 2//2 34//34 33//33
f 4//4 35//35 34//34
f 6//6 36//36 35//35
f 8//8 37//37 36//36
f 10//10 38//38 37//37
f 12//12 39//39 38//38
f 14//14 40//40 39//39
f 16//16 41//41 40//40
f 18//18 42//42 41//41
f 20//20 43//43 42//42
f 22//22 44//44 43//43
f 24//24 45//45 44//44
f 26//26 46//46 45//45
f 28//28 47//47 46//46
f 22//22 14//14 6//6
f 32//32 33//33 48//48
f 30//30 48//48 47//47
f 15//15 23//23 31//31
f 33//33 3//3 1//1
f 3//3 35//35 5//5
f 35//35 7//7 5//5
f 7//7 37//37 9//9
f 37//37 11//11 9//9
f 38//38 13//13 11//11
f 39//39 15//15 13//13
f 15//15 41//41 17//17
f 41//41 19//19 17//17
f 42//42 21//21 19//19
f 43//43 23//23 21//21
f 44//44 25//25 23//23
f 25//25 46//46 27//27
f 27//27 47//47 29//29
f 48//48 1//1 31//31
f 29//29 48//48 31//31
f 82//48 50//2 81//33
f 83//47 52//32 82//48
f 84//46 54//30 83//47
f 85//45 56//28 84//46
f 86//44 58//26 85//45
f 87//43 60//24 86//44
f 88//42 62//51 87//43
f 89//41 64//20 88//42
f 90//40 66//18 89//41
f 91//39 68//16 90//40
f 92//38 70//14 91//39
f 93//37 72//12 92//38
f 94//36 74//10 93//37
f 95//35 76//8 94//36
f 66//18 74//10 50//2
f 81//33 80//4 96//34
f 96//34 78//6 95//35
f 67//15 59//23 51//49
f 51//49 81//33 49//1
f 53//29 82//48 51//49
f 55//27 83//47 53//29
f 55//27 85//45 84//46
f 59//23 85//45 57//50
f 61//21 86//44 59//23
f 63//19 87//43 61//21
f 63//19 89//41 88//42
f 67//15 89//41 65//17
f 69//13 90//40 67//15
f 71//11 91//39 69//13
f 73//52 92//38 71//11
f 75//7 93//37 73//52
f 75//7 95//35 94//36
f 49//1 96//34 79//53
f 77//5 96//34 95//35
f 130//40 98//18 129//41
f 131//39 100//16 130//40
f 132//38 102//14 131//39
f 133//37 104//12 132//38
f 134//36 106//10 133//37
f 135//35 108//8 134//36
f 136//34 110//6 135//35
f 137//33 112//4 136//34
f 138//48 114//2 137//33
f 139//47 116//32 138//48
f 140//46 118//30 139//47
f 141//45 120//28 140//46
f 142//44 122//26 141//45
f 143//43 124//24 142//44
f 114//2 122//26 98//18
f 129//41 128//20 144//42
f 144//42 126//51 143//43
f 115//49 107//7 99//15
f 99//15 129//41 97//54
f 101//13 130//40 99//15
f 103//11 131//39 101//13
f 103//11 133//37 132//38
f 107//7 133//37 105//9
f 109//5 134//36 107//7
f 111//3 135//35 109//5
f 111//3 137//33 136//34
f 115//49 137//33 113//55
f 117//29 138//48 115//49
f 119//27 139//47 117//29
f 121//25 140//46 119//27
f 123//23 141//45 121//25
f 123//23 143//43 142//44
f 97//54 144//42 127//56
f 125//21 144//42 143//43
f 146//18 178//42 177//41
f 148//20 179//43 178//42
f 150//51 180//44 179//43
f 152//24 181//45 180//44
f 154//26 182//46 181//45
f 156//28 183//47 182//46
f 158//30 184//48 183//47
f 160//32 185//33 184//48
f 162//2 186//34 185//33
f 164//4 187//35 186//34
f 166//57 188//36 187//35
f 168//8 189//37 188//36
f 170//10 190//38 189//37
f 172//12 191//39 190//38
f 166//57 158//30 150//51
f 176//16 177//41 192//40
f 174//14 192//40 191//39
f 159//49 167//7 175//58
f 177//41 147//19 145//54
f 147//19 179//43 149//21
f 179//43 151//23 149//21
f 151//23 181//45 153//50
f 181//45 155//27 153//50
f 182//46 157//29 155//27
f 183//47 159//49 157//29
f 159//49 185//33 161//55
f 185//33 163//3 161//55
f 186//34 165//5 163//3
f 187//35 167//7 165//5
f 188//36 169//52 167//7
f 169//52 190//38 171//11
f 171//11 191//39 173//13
f 192//40 145//54 175//58
f 173//13 192//40 175//58
f 2//2 4//4 34//34
f 4//4 6//6 35//35
f 6//6 8//8 36//36
f 8//8 10//10 37//37
f 10//10 12//12 38//38
f 12//12 14//14 39//39
f 14//14 16//16 40//40
f 16//16 18//18 41//41
f 18//18 20//20 42//42
f 20//20 22//22 43//43
f 22//22 24//24 44//44
f 24//24 26//26 45//45
f 26//26 28//28 46//46
f 28//28 30//30 47//47
f 6//6 4//4 2//2
f 2//2 32//32 30//30
f 30//30 28//28 26//26
f 26//26 24//24 22//22
f 22//22 20//20 18//18
f 18//18 16//16 14//14
f 14//14 12//12 10//10
f 10//10 8//8 6//6
f 6//6 2//2 30//30
f 30//30 26//26 22//22
f 22//22 18//18 14//14
f 14//14 10//10 6//6
f 6//6 30//30 22//22
f 32//32 2//2 33//33
f 30//30 32//32 48//48
f 31//31 1//1 3//3
f 3//3 5//5 7//7
f 7//7 9//9 11//11
f 11//11 13//13 15//15
f 15//15 17//17 19//19
f 19//19 21//21 23//23
f 23//23 25//25 27//27
f 27//27 29//29 31//31
f 31//31 3//3 7//7
f 7//7 11//11 15//15
f 15//15 19//19 23//23
f 23//23 27//27 31//31
f 31//31 7//7 15//15
f 33//33 34//34 3//3
f 3//3 34//34 35//35
f 35//35 36//36 7//7
f 7//7 36//36 37//37
f 37//37 38//38 11//11
f 38//38 39//39 13//13
f 39//39 40//40 15//15
f 15//15 40//40 41//41
f 41//41 42//42 19//19
f 42//42 43//43 21//21
f 43//43 44//44 23//23
f 44//44 45//45 25//25
f 25//25 45//45 46//46
f 27//27 46//46 47//47
f 48//48 33//33 1//1
f 29//29 47//47 48//48
f 82//48 52//32 50//2
f 83//47 54//30 52//32
f 84//46 56//28 54//30
f 85//45 58//26 56//28
f 86//44 60//24 58//26
f 87//43 62//51 60//24
f 88//42 64//20 62//51
f 89//41 66//18 64//20
f 90//40 68//16 66//18
f 91//39 70//14 68//16
f 92//38 72//12 70//14
f 93//37 74//10 72//12
f 94//36 76//8 74//10
f 95//35 78//6 76//8
f 50//2 52//32 54//30
f 54//30 56//28 58//26
f 58//26 60//24 62//51
f 62//51 64//20 66//18
f 66//18 68//16 70//14
f 70//14 72//12 74//10
f 74//10 76//8 78//6
f 78//6 80//4 50//2
f 50//2 54//30 58//26
f 58//26 62//51 66//18
f 66//18 70//14 74//10
f 74//10 78//6 50//2
f 50//2 58//26 66//18
f 81//33 50//2 80//4
f 96//34 80//4 78//6
f 51//49 49//1 79//53
f 79//53 77//5 75//7
f 75//7 73//52 71//11
f 71//11 69//13 67//15
f 67//15 65//17 63//19
f 63//19 61//21 59//23
f 59//23 57//50 55//27
f 55//27 53//29 51//49
f 51//49 79//53 75//7
f 75//7 71//11 67//15
f 67//15 63//19 59//23
f 59//23 55//27 51//49
f 51//49 75//7 67//15
f 51//49 82//48 81//33
f 53//29 83//47 82//48
f 55//27 84//46 83//47
f 55//27 57//50 85//45
f 59//23 86//44 85//45
f 61//21 87//43 86//44
f 63//19 88//42 87//43
f 63//19 65//17 89//41
f 67//15 90//40 89//41
f 69//13 91//39 90//40
f 71//11 92//38 91//39
f 73//52 93//37 92//38
f 75//7 94//36 93//37
f 75//7 77//5 95//35
f 49//1 81//33 96//34
f 77//5 79//53 96//34
f 130//40 100//16 98//18
f 131//39 102//14 100//16
f 132//38 104//12 102//14
f 133//37 106//10 104//12
f 134//36 108//8 106//10
f 135//35 110//6 108//8
f 136//34 112//4 110//6
f 137//33 114//2 112//4
f 138//48 116//32 114//2
f 139//47 118//30 116//32
f 140//46 120//28 118//30
f 141//45 122//26 120//28
f 142//44 124//24 122//26
f 143//43 126//51 124//24
f 98//18 100//16 102//14
f 102//14 104//12 106//10
f 106//10 108//8 110//6
f 110//6 112//4 114//2
f 114//2 116//32 118//30
f 118//30 120//28 122//26
f 122//26 124//24 126//51
f 126//51 128//20 98//18
f 98//18 102//14 106//10
f 106//10 110//6 114//2
f 114//2 118//30 122//26
f 122//26 126//51 98//18
f 98//18 106//10 114//2
f 129//41 98//18 128//20
f 144//42 128//20 126//51
f 99//15 97//54 127//56
f 127//56 125//21 123//23
f 123//23 121//25 119//27
f 119//27 117//29 115//49
f 115//49 113//55 111//3
f 111//3 109//5 107//7
f 107//7 105//9 103//11
f 103//11 101//13 99//15
f 99//15 127//56 123//23
f 123//23 119//27 115//49
f 115//49 111//3 107//7
f 107//7 103//11 99//15
f 99//15 123//23 115//49
f 99//15 130//40 129//41
f 101//13 131//39 130//40
f 103//11 132//38 131//39
f 103//11 105//9 133//37
f 107//7 134//36 133//37
f 109//5 135//35 134//36
f 111//3 136//34 135//35
f 111//3 113//55 137//33
f 115//49 138//48 137//33
f 117//29 139//47 138//48
f 119//27 140//46 139//47
f 121//25 141//45 140//46
f 123//23 142//44 141//45
f 123//23 125//21 143//43
f 97//54 129//41 144//42
f 125//21 127//56 144//42
f 146//18 148//20 178//42
f 148//20 150//51 179//43
f 150//51 152//24 180//44
f 152//24 154//26 181//45
f 154//26 156//28 182//46
f 156//28 158//30 183//47
f 158//30 160//32 184//48
f 160//32 162//2 185//33
f 162//2 164//4 186//34
f 164//4 166//57 187//35
f 166//57 168//8 188//36
f 168//8 170//10 189//37
f 170//10 172//12 190//38
f 172//12 174//14 191//39
f 150//51 148//20 146//18
f 146//18 176//16 174//14
f 174//14 172//12 170//10
f 170//10 168//8 166//57
f 166//57 164//4 162//2
f 162//2 160//32 158//30
f 158//30 156//28 154//26
f 154//26 152//24 150//51
f 150//51 146//18 174//14
f 174//14 170//10 166//57
f 166//57 162//2 158//30
f 158//30 154//26 150//51
f 150//51 174//14 166//57
f 176//16 146//18 177//41
f 174//14 176//16 192//40
f 175//58 145//54 147//19
f 147//19 149//21 151//23
f 151//23 153//50 155//27
f 155//27 157//29 159//49
f 159//49 161//55 163//3
f 163//3 165//5 167//7
f 167//7 169//52 171//11
f 171//11 173//13 175//58
f 175//58 147//19 151//23
f 151//23 155//27 159//49
f 159//49 163//3 167//7
f 167//7 171//11 175//58
f 175//58 151//23 159//49
f 177//41 178//42 147//19
f 147//19 178//42 179//43
f 179//43 180//44 151//23
f 151//23 180//44 181//45
f 181//45 182//46 155//27
f 182//46 183//47 157//29
f 183//47 184//48 159//49
f 159//49 184//48 185//33
f 185//33 186//34 163//3
f 186//34 187//35 165//5
f 187//35 188//36 167//7
f 188//36 189//37 169//52
f 169//52 189//37 190//38
f 171//11 190//38 191//39
f 192//40 177//41 145//54
f 173//13 191//39 192//40
