# Blender 5.0.1
# www.blender.org
o roofpolemid
v -0.395505 8.437273 5.511507
v -0.382547 8.423964 5.529788
v -0.360751 8.453876 5.529788
v -0.373924 8.466785 5.511507
v -0.394812 8.435849 5.518503
v -0.392106 8.432820 5.524434
v -0.390110 8.444652 5.511507
v -0.388806 8.443002 5.518598
v -0.386527 8.440526 5.524429
v -0.381021 8.448101 5.524427
v -0.377098 8.431442 5.529788
v -0.371649 8.438920 5.529788
v -0.387799 8.428646 5.528397
v -0.382300 8.436398 5.527739
v -0.376808 8.443949 5.527738
v -0.366017 8.458516 5.528397
v -0.370369 8.462599 5.524434
v -0.366200 8.446398 5.529788
v -0.371412 8.451325 5.527739
v -0.375659 8.455415 5.524429
v -0.379320 8.459407 5.511507
v -0.384715 8.452029 5.511507
v -0.373146 8.465503 5.518503
v -0.377972 8.457829 5.518598
v -0.383341 8.450503 5.518597
v 0.000000 8.936090 5.529788
v 0.010951 8.951970 5.511507
v -0.010951 8.951970 5.511507
v 0.004191 8.941978 5.528397
v 0.007744 8.947062 5.524434
v -0.004191 8.941978 5.528397
v 0.000000 8.948167 5.526717
v 0.003109 8.952000 5.523504
v 0.000000 8.953973 5.522061
v 0.005927 8.956649 5.511507
v 0.000000 8.958291 5.511507
v 0.010118 8.950572 5.518503
v 0.004816 8.955150 5.518678
v 0.000000 8.956508 5.518314
v -0.010118 8.950572 5.518503
v -0.007744 8.947062 5.524434
v -0.005927 8.956649 5.511507
v -0.004816 8.955150 5.518678
v -0.003109 8.952000 5.523504
v -0.395505 8.437273 5.003773
v -0.373925 8.466785 5.003773
v -0.360751 8.453876 4.985492
v -0.382547 8.423964 4.985492
v -0.390110 8.444652 5.003773
v -0.384715 8.452029 5.003773
v -0.394812 8.435849 4.996777
v -0.388806 8.443002 4.996682
v -0.383341 8.450503 4.996683
v -0.381021 8.448101 4.990853
v -0.373146 8.465503 4.996777
v -0.370369 8.462599 4.990846
v -0.379320 8.459407 5.003773
v -0.377972 8.457830 4.996682
v -0.375659 8.455416 4.990850
v -0.366200 8.446398 4.985492
v -0.371649 8.438920 4.985492
v -0.366017 8.458516 4.986883
v -0.371413 8.451325 4.987541
v -0.376808 8.443949 4.987542
v -0.387799 8.428646 4.986883
v -0.392107 8.432820 4.990846
v -0.377098 8.431442 4.985492
v -0.382300 8.436398 4.987541
v -0.386527 8.440526 4.990850
v 0.010951 8.951971 5.003773
v -0.000000 8.936091 4.985492
v -0.010951 8.951971 5.003773
v 0.010118 8.950572 4.996777
v 0.007744 8.947062 4.990846
v 0.005927 8.956649 5.003773
v 0.004816 8.955150 4.996602
v 0.003109 8.952000 4.991776
v -0.000000 8.953973 4.993218
v -0.004191 8.941978 4.986883
v -0.007744 8.947062 4.990846
v 0.004191 8.941978 4.986883
v -0.000000 8.948167 4.988563
v -0.003109 8.952000 4.991776
v -0.005927 8.956649 5.003773
v -0.000000 8.958291 5.003773
v -0.010118 8.950572 4.996777
v -0.004816 8.955150 4.996602
v -0.000000 8.956508 4.996966
v -0.010629 8.052398 5.511507
v 0.010630 8.052398 5.511507
v 0.023881 8.065298 5.529788
v 0.000000 8.093125 5.529788
v -0.023881 8.065298 5.529788
v -0.005753 8.056957 5.511507
v 0.000000 8.058558 5.511507
v -0.011389 8.053728 5.518503
v -0.005944 8.058873 5.518804
v 0.000000 8.061232 5.518905
v 0.000000 8.066422 5.525805
v 0.011389 8.053728 5.518503
v 0.014174 8.056646 5.524434
v 0.005753 8.056957 5.511507
v 0.005944 8.058873 5.518804
v 0.007904 8.062022 5.524737
v 0.019032 8.071656 5.529788
v 0.012791 8.079178 5.529788
v 0.018561 8.060709 5.528397
v 0.012526 8.066736 5.527944
v 0.006400 8.072993 5.528301
v -0.006108 8.086717 5.529788
v -0.012791 8.079178 5.529788
v 0.006108 8.086717 5.529788
v 0.000000 8.079506 5.528967
v -0.006400 8.072994 5.528301
v -0.018561 8.060709 5.528397
v -0.014174 8.056646 5.524434
v -0.019032 8.071656 5.529788
v -0.012526 8.066736 5.527944
v -0.007904 8.062022 5.524737
v 0.395505 8.437273 5.511507
v 0.373925 8.466785 5.511507
v 0.360751 8.453876 5.529788
v 0.382547 8.423964 5.529788
v 0.390110 8.444652 5.511507
v 0.384715 8.452029 5.511507
v 0.394812 8.435849 5.518503
v 0.388806 8.443002 5.518598
v 0.383341 8.450503 5.518597
v 0.381021 8.448101 5.524427
v 0.373146 8.465503 5.518503
v 0.370369 8.462599 5.524434
v 0.379320 8.459407 5.511507
v 0.377972 8.457830 5.518598
v 0.375659 8.455416 5.524429
v 0.366200 8.446398 5.529788
v 0.371649 8.438920 5.529788
v 0.366017 8.458516 5.528397
v 0.371413 8.451325 5.527739
v 0.376808 8.443949 5.527738
v 0.387799 8.428646 5.528397
v 0.392106 8.432820 5.524434
v 0.377098 8.431442 5.529788
v 0.382300 8.436398 5.527739
v 0.386527 8.440526 5.524429
v -0.023881 8.065298 4.985492
v -0.000000 8.093125 4.985492
v 0.023881 8.065298 4.985492
v 0.010629 8.052398 5.003773
v -0.010630 8.052398 5.003773
v -0.019032 8.071656 4.985492
v -0.012791 8.079178 4.985492
v -0.018561 8.060709 4.986883
v -0.012526 8.066736 4.987336
v -0.006400 8.072993 4.986979
v -0.000000 8.066422 4.989475
v 0.006108 8.086717 4.985492
v 0.012791 8.079178 4.985492
v -0.006108 8.086717 4.985492
v -0.000000 8.079506 4.986312
v 0.006400 8.072994 4.986979
v 0.018561 8.060709 4.986883
v 0.014174 8.056646 4.990846
v 0.019032 8.071656 4.985492
v 0.012526 8.066736 4.987336
v 0.007904 8.062022 4.990543
v 0.005753 8.056957 5.003773
v -0.000000 8.058558 5.003773
v 0.011389 8.053728 4.996777
v 0.005944 8.058873 4.996476
v -0.000000 8.061232 4.996375
v -0.011389 8.053728 4.996777
v -0.014174 8.056646 4.990846
v -0.005753 8.056957 5.003773
v -0.005944 8.058873 4.996476
v -0.007904 8.062022 4.990543
v 0.373924 8.466785 5.003773
v 0.395505 8.437273 5.003773
v 0.382547 8.423964 4.985492
v 0.360751 8.453876 4.985492
v 0.379320 8.459407 5.003773
v 0.384715 8.452029 5.003773
v 0.373146 8.465503 4.996777
v 0.377972 8.457829 4.996682
v 0.383341 8.450503 4.996683
v 0.381020 8.448101 4.990853
v 0.394812 8.435849 4.996777
v 0.392106 8.432820 4.990846
v 0.390110 8.444652 5.003773
v 0.388806 8.443002 4.996682
v 0.386527 8.440526 4.990850
v 0.377098 8.431442 4.985492
v 0.371649 8.438920 4.985492
v 0.387799 8.428646 4.986883
v 0.382300 8.436398 4.987541
v 0.376808 8.443949 4.987542
v 0.366017 8.458516 4.986883
v 0.370369 8.462599 4.990846
v 0.366200 8.446398 4.985492
v 0.371412 8.451325 4.987541
v 0.375659 8.455415 4.990850
v 4.773772 1.418903 4.985490
v 4.783066 1.401205 5.003771
v 4.754196 1.414854 5.003771
v 4.777533 1.412563 4.986881
v 4.780620 1.406973 4.990844
v 4.766485 1.417786 4.986881
v 4.770150 1.411243 4.988561
v 4.773038 1.406748 4.991774
v 4.768324 1.407381 4.993217
v 4.775071 1.401435 5.003771
v 4.766778 1.404110 5.003771
v 4.782563 1.402985 4.996775
v 4.774237 1.403460 4.996600
v 4.767481 1.405598 4.996964
v 4.755890 1.415595 4.996775
v 4.760206 1.416625 4.990844
v 4.759447 1.408822 5.003771
v 4.761541 1.409462 4.996600
v 4.764843 1.410623 4.991774
v 5.360605 1.458302 4.985490
v 5.383911 1.457132 5.003771
v 5.376300 1.441033 5.003771
v 5.368748 1.458222 4.986881
v 5.376036 1.457971 4.990844
v 5.365835 1.452061 4.986881
v 5.374343 1.451808 4.988561
v 5.380010 1.451924 4.991774
v 5.381269 1.448533 4.993217
v 5.387367 1.450980 5.003771
v 5.387135 1.445760 5.003771
v 5.381361 1.457588 4.996775
v 5.384592 1.451293 4.996600
v 5.384466 1.447022 4.996964
v 5.374330 1.442715 4.996775
v 5.370655 1.446588 4.990844
v 5.383248 1.442267 5.003771
v 5.381245 1.444214 4.996600
v 5.377850 1.447354 4.991774
v 5.383911 1.457131 5.511505
v 5.360605 1.458302 5.529786
v 5.376300 1.441033 5.511505
v 5.381361 1.457588 5.518501
v 5.376036 1.457970 5.524432
v 5.387367 1.450979 5.511505
v 5.384592 1.451292 5.518676
v 5.380010 1.451924 5.523502
v 5.381269 1.448533 5.522059
v 5.365835 1.452060 5.528395
v 5.370655 1.446587 5.524432
v 5.368748 1.458221 5.528395
v 5.374343 1.451807 5.526715
v 5.377850 1.447354 5.523502
v 5.383248 1.442267 5.511505
v 5.387135 1.445760 5.511505
v 5.374330 1.442715 5.518501
v 5.381245 1.444213 5.518676
v 5.384466 1.447021 5.518312
v 4.773772 1.418903 5.529786
v 4.754196 1.414853 5.511505
v 4.783066 1.401204 5.511505
v 4.766485 1.417786 5.528395
v 4.760206 1.416624 5.524432
v 4.777533 1.412563 5.528395
v 4.770150 1.411242 5.526715
v 4.764843 1.410622 5.523502
v 4.768324 1.407380 5.522059
v 4.759447 1.408822 5.511505
v 4.766778 1.404109 5.511505
v 4.755890 1.415595 5.518501
v 4.761541 1.409462 5.518676
v 4.767481 1.405598 5.518312
v 4.782563 1.402984 5.518501
v 4.780620 1.406973 5.524432
v 4.775071 1.401435 5.511505
v 4.774237 1.403460 5.518676
v 4.773038 1.406747 5.523502
v -5.360605 1.458302 4.985492
v -5.376300 1.441033 5.003773
v -5.383911 1.457131 5.003773
v -5.365834 1.452060 4.986883
v -5.370654 1.446587 4.990846
v -5.368747 1.458221 4.986883
v -5.374342 1.451807 4.988563
v -5.377849 1.447353 4.991776
v -5.381268 1.448532 4.993218
v -5.383247 1.442266 5.003773
v -5.387134 1.445759 5.003773
v -5.374329 1.442714 4.996777
v -5.381244 1.444213 4.996602
v -5.384465 1.447021 4.996965
v -5.381360 1.457587 4.996777
v -5.376035 1.457970 4.990846
v -5.387366 1.450979 5.003773
v -5.384591 1.451292 4.996602
v -5.380009 1.451923 4.991776
v -4.773772 1.418903 4.985491
v -4.754196 1.414854 5.003773
v -4.783066 1.401204 5.003773
v -4.766485 1.417787 4.986883
v -4.760206 1.416625 4.990846
v -4.777533 1.412563 4.986883
v -4.770150 1.411243 4.988563
v -4.764843 1.410623 4.991776
v -4.768324 1.407381 4.993218
v -4.759447 1.408822 5.003773
v -4.766778 1.404110 5.003773
v -4.755890 1.415595 4.996777
v -4.761541 1.409462 4.996602
v -4.767481 1.405598 4.996965
v -4.782563 1.402985 4.996777
v -4.780620 1.406973 4.990846
v -4.775071 1.401435 5.003773
v -4.774237 1.403460 4.996602
v -4.773038 1.406748 4.991776
v -4.754196 1.414853 5.511507
v -4.773772 1.418902 5.529788
v -4.783066 1.401204 5.511507
v -4.755890 1.415594 5.518502
v -4.760206 1.416624 5.524434
v -4.759447 1.408821 5.511507
v -4.761541 1.409461 5.518678
v -4.764843 1.410622 5.523504
v -4.768324 1.407380 5.522061
v -4.777533 1.412562 5.528396
v -4.780620 1.406972 5.524434
v -4.766485 1.417786 5.528396
v -4.770150 1.411242 5.526717
v -4.773038 1.406747 5.523504
v -4.775071 1.401434 5.511507
v -4.766778 1.404109 5.511507
v -4.782563 1.402984 5.518502
v -4.774237 1.403459 5.518678
v -4.767481 1.405597 5.518314
v -5.360605 1.458301 5.529788
v -5.383911 1.457131 5.511507
v -5.376300 1.441033 5.511507
v -5.368748 1.458221 5.528397
v -5.376036 1.457970 5.524434
v -5.365835 1.452060 5.528397
v -5.374343 1.451807 5.526717
v -5.380010 1.451923 5.523504
v -5.381269 1.448532 5.522061
v -5.387367 1.450979 5.511507
v -5.387135 1.445759 5.511507
v -5.381361 1.457587 5.518503
v -5.384592 1.451292 5.518678
v -5.384466 1.447021 5.518314
v -5.374330 1.442714 5.518503
v -5.370655 1.446587 5.524434
v -5.383248 1.442266 5.511507
v -5.381245 1.444213 5.518678
v -5.377850 1.447353 5.523504
vn -0.7997 0.5905 0.1084
vn -0.0797 0.0575 0.9952
vn -0.0938 0.0563 0.9940
vn -0.8000 0.5919 0.0978
vn -0.7389 0.5593 0.3757
vn -0.5638 0.4164 0.7132
vn -0.7996 0.5844 0.1385
vn -0.7350 0.5609 0.3811
vn -0.5616 0.4192 0.7133
vn -0.5715 0.4173 0.7066
vn -0.0984 0.0843 0.9916
vn -0.1128 0.0822 0.9902
vn -0.3031 0.2421 0.9217
vn -0.3066 0.2478 0.9190
vn -0.3129 0.2281 0.9220
vn -0.3158 0.2050 0.9264
vn -0.5785 0.4181 0.7004
vn -0.1129 0.0823 0.9902
vn -0.3213 0.2083 0.9238
vn -0.5813 0.4152 0.6998
vn -0.8062 0.5775 0.1286
vn -0.7994 0.5848 0.1378
vn -0.7528 0.5324 0.3870
vn -0.7542 0.5260 0.3930
vn -0.7450 0.5447 0.3850
vn -0.0000 0.1171 0.9931
vn 0.7355 0.6681 0.1127
vn -0.7355 0.6681 0.1127
vn 0.2278 0.2891 0.9298
vn 0.4995 0.4833 0.7189
vn -0.2278 0.2891 0.9298
vn -0.0000 0.4645 0.8856
vn 0.2875 0.6322 0.7194
vn -0.0000 0.7540 0.6569
vn 0.4854 0.8653 0.1250
vn 0.0001 0.9921 0.1251
vn 0.6732 0.6238 0.3971
vn 0.4274 0.8019 0.4175
vn -0.0000 0.9197 0.3927
vn -0.6732 0.6238 0.3971
vn -0.4995 0.4833 0.7189
vn -0.4853 0.8654 0.1250
vn -0.4274 0.8019 0.4175
vn -0.2875 0.6322 0.7194
vn -0.7997 0.5905 -0.1084
vn -0.8000 0.5920 -0.0978
vn -0.0938 0.0563 -0.9940
vn -0.0797 0.0575 -0.9952
vn -0.7996 0.5844 -0.1385
vn -0.7994 0.5848 -0.1378
vn -0.7389 0.5593 -0.3757
vn -0.7350 0.5609 -0.3811
vn -0.7450 0.5447 -0.3850
vn -0.5715 0.4173 -0.7066
vn -0.7528 0.5324 -0.3870
vn -0.5785 0.4181 -0.7004
vn -0.8062 0.5775 -0.1286
vn -0.7542 0.5260 -0.3930
vn -0.5814 0.4151 -0.6998
vn -0.1129 0.0823 -0.9902
vn -0.1128 0.0822 -0.9902
vn -0.3158 0.2050 -0.9264
vn -0.3212 0.2083 -0.9238
vn -0.3129 0.2281 -0.9220
vn -0.3031 0.2421 -0.9217
vn -0.5638 0.4164 -0.7132
vn -0.0984 0.0843 -0.9916
vn -0.3066 0.2478 -0.9190
vn -0.5617 0.4192 -0.7133
vn 0.7355 0.6681 -0.1127
vn -0.0000 0.1171 -0.9931
vn -0.7355 0.6680 -0.1127
vn 0.6731 0.6238 -0.3972
vn 0.4995 0.4833 -0.7189
vn 0.4853 0.8654 -0.1250
vn 0.4274 0.8019 -0.4175
vn 0.2875 0.6322 -0.7194
vn -0.0000 0.7540 -0.6569
vn -0.2278 0.2892 -0.9298
vn -0.4995 0.4833 -0.7189
vn 0.2278 0.2891 -0.9298
vn -0.0000 0.4645 -0.8856
vn -0.2875 0.6322 -0.7194
vn -0.4853 0.8653 -0.1250
vn -0.0001 0.9921 -0.1251
vn -0.6732 0.6238 -0.3972
vn -0.4274 0.8019 -0.4175
vn -0.0000 0.9197 -0.3927
vn 0.7495 -0.6541 0.1024
vn -0.7495 -0.6541 0.1024
vn -0.0779 -0.0576 0.9953
vn -0.0000 -0.0000 1.0000
vn 0.0779 -0.0576 0.9953
vn 0.4928 -0.8618 0.1201
vn -0.0000 -0.9882 0.1529
vn 0.6881 -0.6110 0.3914
vn 0.4609 -0.7863 0.4114
vn -0.0000 -0.8784 0.4780
vn -0.0000 -0.5120 0.8590
vn -0.6881 -0.6110 0.3914
vn -0.5138 -0.4585 0.7251
vn -0.4928 -0.8618 0.1201
vn -0.4609 -0.7863 0.4114
vn -0.3297 -0.5485 0.7684
vn -0.0853 -0.0639 0.9943
vn -0.0479 -0.0629 0.9969
vn -0.2990 -0.2262 0.9271
vn -0.2376 -0.2413 0.9409
vn -0.0770 -0.2176 0.9730
vn 0.0149 -0.0289 0.9995
vn 0.0479 -0.0629 0.9969
vn -0.0149 -0.0289 0.9995
vn -0.0000 -0.1082 0.9941
vn 0.0770 -0.2176 0.9730
vn 0.2990 -0.2262 0.9270
vn 0.5138 -0.4585 0.7251
vn 0.0853 -0.0639 0.9943
vn 0.2376 -0.2413 0.9409
vn 0.3297 -0.5484 0.7684
vn 0.7997 0.5905 0.1084
vn 0.8000 0.5920 0.0978
vn 0.0938 0.0563 0.9940
vn 0.0797 0.0575 0.9952
vn 0.7996 0.5844 0.1385
vn 0.7994 0.5848 0.1378
vn 0.7389 0.5593 0.3757
vn 0.7350 0.5609 0.3811
vn 0.7450 0.5447 0.3850
vn 0.5715 0.4173 0.7066
vn 0.7528 0.5324 0.3870
vn 0.5785 0.4181 0.7004
vn 0.8062 0.5775 0.1286
vn 0.7542 0.5260 0.3930
vn 0.5814 0.4151 0.6998
vn 0.1129 0.0823 0.9902
vn 0.1128 0.0822 0.9902
vn 0.3158 0.2050 0.9264
vn 0.3212 0.2083 0.9238
vn 0.3129 0.2281 0.9220
vn 0.3031 0.2421 0.9217
vn 0.5638 0.4164 0.7133
vn 0.0984 0.0843 0.9916
vn 0.3066 0.2478 0.9190
vn 0.5616 0.4192 0.7133
vn 0.0779 -0.0576 -0.9953
vn -0.0000 -0.0000 -1.0000
vn -0.0779 -0.0576 -0.9953
vn -0.7495 -0.6541 -0.1024
vn 0.7495 -0.6541 -0.1024
vn 0.0853 -0.0639 -0.9943
vn 0.0479 -0.0629 -0.9969
vn 0.2990 -0.2262 -0.9270
vn 0.2376 -0.2413 -0.9409
vn 0.0770 -0.2176 -0.9730
vn -0.0000 -0.5120 -0.8590
vn -0.0149 -0.0289 -0.9995
vn -0.0479 -0.0629 -0.9969
vn 0.0149 -0.0289 -0.9995
vn -0.0000 -0.1082 -0.9941
vn -0.0770 -0.2176 -0.9730
vn -0.2990 -0.2262 -0.9270
vn -0.5138 -0.4585 -0.7251
vn -0.0853 -0.0639 -0.9943
vn -0.2376 -0.2413 -0.9409
vn -0.3297 -0.5485 -0.7684
vn -0.4928 -0.8618 -0.1201
vn -0.0000 -0.9882 -0.1529
vn -0.6881 -0.6110 -0.3914
vn -0.4609 -0.7863 -0.4114
vn -0.0000 -0.8784 -0.4780
vn 0.6881 -0.6110 -0.3914
vn 0.5138 -0.4585 -0.7251
vn 0.4928 -0.8618 -0.1201
vn 0.4609 -0.7863 -0.4114
vn 0.3297 -0.5485 -0.7684
vn 0.8000 0.5919 -0.0978
vn 0.7997 0.5905 -0.1084
vn 0.0797 0.0575 -0.9952
vn 0.0938 0.0563 -0.9940
vn 0.8062 0.5775 -0.1286
vn 0.7994 0.5848 -0.1378
vn 0.7528 0.5324 -0.3870
vn 0.7542 0.5260 -0.3930
vn 0.7450 0.5447 -0.3850
vn 0.5715 0.4173 -0.7066
vn 0.7389 0.5593 -0.3757
vn 0.5638 0.4164 -0.7132
vn 0.7996 0.5844 -0.1385
vn 0.7350 0.5609 -0.3811
vn 0.5616 0.4192 -0.7133
vn 0.0984 0.0843 -0.9916
vn 0.1128 0.0822 -0.9902
vn 0.3031 0.2421 -0.9217
vn 0.3066 0.2478 -0.9190
vn 0.3129 0.2281 -0.9220
vn 0.3158 0.2050 -0.9264
vn 0.5785 0.4181 -0.7004
vn 0.1129 0.0823 -0.9902
vn 0.3213 0.2083 -0.9238
vn 0.5813 0.4152 -0.6998
vn -0.0727 -0.1537 -0.9854
vn 0.0199 -0.9920 -0.1245
vn -0.7793 -0.6142 -0.1244
vn -0.0426 -0.4148 -0.9089
vn -0.0029 -0.7137 -0.7004
vn -0.2935 -0.2962 -0.9089
vn -0.2415 -0.5108 -0.8251
vn -0.1608 -0.7433 -0.6493
vn -0.3550 -0.7509 -0.5568
vn -0.1649 -0.9787 -0.1222
vn -0.4246 -0.8980 -0.1156
vn 0.0144 -0.9119 -0.4101
vn -0.1648 -0.9054 -0.3913
vn -0.4010 -0.8482 -0.3461
vn -0.7139 -0.5677 -0.4100
vn -0.5497 -0.4552 -0.7005
vn -0.6517 -0.7486 -0.1222
vn -0.5951 -0.7019 -0.3913
vn -0.4725 -0.5960 -0.6493
vn 0.0878 -0.0415 -0.9953
vn 0.8401 0.5246 -0.1381
vn 0.1277 -0.9821 -0.1381
vn 0.3221 0.1284 -0.9380
vn 0.5872 0.3417 -0.7338
vn 0.1052 -0.3304 -0.9380
vn 0.3428 -0.1621 -0.9253
vn 0.6185 0.0874 -0.7809
vn 0.5954 -0.2815 -0.7525
vn 0.9606 0.2178 -0.1725
vn 0.8869 -0.4193 -0.1939
vn 0.7680 0.4718 -0.4331
vn 0.8458 0.1814 -0.5018
vn 0.7720 -0.3650 -0.5205
vn 0.1227 -0.8929 -0.4331
vn 0.1086 -0.6707 -0.7338
vn 0.4413 -0.8806 -0.1726
vn 0.3966 -0.7687 -0.5018
vn 0.3250 -0.5334 -0.7809
vn 0.8401 0.5246 0.1380
vn 0.0878 -0.0415 0.9953
vn 0.1277 -0.9821 0.1381
vn 0.7680 0.4719 0.4330
vn 0.5872 0.3417 0.7338
vn 0.9606 0.2178 0.1726
vn 0.8458 0.1814 0.5018
vn 0.6185 0.0874 0.7809
vn 0.5955 -0.2815 0.7525
vn 0.1052 -0.3304 0.9380
vn 0.1086 -0.6707 0.7338
vn 0.3221 0.1284 0.9380
vn 0.3428 -0.1621 0.9253
vn 0.3250 -0.5335 0.7809
vn 0.4413 -0.8806 0.1726
vn 0.8869 -0.4193 0.1939
vn 0.1227 -0.8929 0.4331
vn 0.3966 -0.7687 0.5018
vn 0.7720 -0.3650 0.5205
vn -0.0727 -0.1537 0.9854
vn -0.7793 -0.6142 0.1244
vn 0.0199 -0.9920 0.1245
vn -0.2935 -0.2962 0.9089
vn -0.5497 -0.4552 0.7004
vn -0.0426 -0.4148 0.9089
vn -0.2415 -0.5108 0.8251
vn -0.4725 -0.5960 0.6493
vn -0.3550 -0.7509 0.5568
vn -0.6517 -0.7485 0.1222
vn -0.4245 -0.8980 0.1156
vn -0.7139 -0.5677 0.4100
vn -0.5951 -0.7019 0.3913
vn -0.4010 -0.8482 0.3461
vn 0.0143 -0.9119 0.4101
vn -0.0029 -0.7137 0.7004
vn -0.1649 -0.9787 0.1222
vn -0.1647 -0.9054 0.3913
vn -0.1608 -0.7433 0.6493
vn -0.0878 -0.0415 -0.9953
vn -0.1277 -0.9821 -0.1381
vn -0.8401 0.5246 -0.1381
vn -0.1052 -0.3304 -0.9380
vn -0.1086 -0.6707 -0.7338
vn -0.3221 0.1284 -0.9380
vn -0.3428 -0.1621 -0.9253
vn -0.3250 -0.5334 -0.7809
vn -0.5954 -0.2815 -0.7525
vn -0.4413 -0.8806 -0.1726
vn -0.8869 -0.4193 -0.1939
vn -0.1228 -0.8930 -0.4331
vn -0.3966 -0.7687 -0.5018
vn -0.7720 -0.3650 -0.5205
vn -0.7680 0.4718 -0.4331
vn -0.5872 0.3417 -0.7338
vn -0.9606 0.2178 -0.1726
vn -0.8458 0.1814 -0.5018
vn -0.6185 0.0874 -0.7809
vn 0.0727 -0.1537 -0.9854
vn 0.7793 -0.6142 -0.1244
vn -0.0199 -0.9920 -0.1245
vn 0.2935 -0.2962 -0.9089
vn 0.5497 -0.4552 -0.7004
vn 0.0426 -0.4148 -0.9089
vn 0.2415 -0.5108 -0.8251
vn 0.4725 -0.5960 -0.6493
vn 0.3550 -0.7509 -0.5568
vn 0.6517 -0.7485 -0.1222
vn 0.4246 -0.8980 -0.1156
vn 0.7139 -0.5677 -0.4100
vn 0.5951 -0.7019 -0.3913
vn 0.4010 -0.8482 -0.3461
vn -0.0144 -0.9119 -0.4101
vn 0.0029 -0.7137 -0.7004
vn 0.1649 -0.9787 -0.1222
vn 0.1648 -0.9054 -0.3913
vn 0.1608 -0.7433 -0.6493
vn 0.7793 -0.6142 0.1244
vn 0.0727 -0.1537 0.9854
vn -0.0199 -0.9920 0.1245
vn 0.7139 -0.5677 0.4101
vn 0.5497 -0.4552 0.7005
vn 0.6517 -0.7486 0.1222
vn 0.5951 -0.7019 0.3913
vn 0.4724 -0.5960 0.6493
vn 0.3550 -0.7509 0.5568
vn 0.0426 -0.4148 0.9089
vn 0.0029 -0.7137 0.7004
vn 0.2935 -0.2962 0.9089
vn 0.2415 -0.5108 0.8251
vn 0.1608 -0.7433 0.6493
vn 0.1649 -0.9787 0.1222
vn 0.4246 -0.8980 0.1156
vn -0.0143 -0.9119 0.4101
vn 0.1648 -0.9054 0.3913
vn 0.4010 -0.8482 0.3461
vn -0.0878 -0.0415 0.9953
vn -0.8401 0.5246 0.1381
vn -0.1277 -0.9822 0.1381
vn -0.3221 0.1284 0.9380
vn -0.5872 0.3417 0.7338
vn -0.1052 -0.3304 0.9380
vn -0.3428 -0.1621 0.9253
vn -0.6185 0.0874 0.7809
vn -0.5954 -0.2815 0.7525
vn -0.9606 0.2178 0.1726
vn -0.8869 -0.4193 0.1939
vn -0.7680 0.4718 0.4331
vn -0.8458 0.1814 0.5018
vn -0.7720 -0.3650 0.5205
vn -0.1227 -0.8929 0.4331
vn -0.1086 -0.6707 0.7338
vn -0.4413 -0.8806 0.1726
vn -0.3966 -0.7687 0.5018
vn -0.3250 -0.5334 0.7809
vt 0.616767 0.757438
vt 0.382438 0.991767
vt 0.383176 0.758176
vt 0.367528 0.500000
vt 0.133565 0.500000
vt 0.366512 0.500000
vt 0.133565 0.750000
vt 0.367528 0.750000
vt 0.366512 0.750000
vt 0.382438 0.258233
vt 0.616767 0.492562
vt 0.383176 0.491824
vt 0.368678 0.508397
vt 0.163072 0.741603
vt 0.163072 0.508397
vt 0.381322 0.508397
vt 0.586928 0.741603
vt 0.381322 0.741603
vt 0.616436 0.500000
vt 0.382472 0.500000
vt 0.383488 0.500000
vt 0.624933 0.741603
vt 0.593317 0.508397
vt 0.624933 0.508397
vt 0.382472 0.750000
vt 0.616436 0.750000
vt 0.383488 0.750000
vt 0.375000 0.741603
vt 0.375000 0.508397
vt 0.375000 0.741603
vt 0.375000 0.741603
vt 0.632114 0.508397
vt 0.867887 0.741603
vt 0.632114 0.741603
vt 0.617887 0.008397
vt 0.382113 0.241603
vt 0.382113 0.008397
vt 0.125067 0.741603
vt 0.125036 0.744860
vt 0.125034 0.741603
vt 0.125070 0.744817
vt 0.125038 0.750000
vt 0.125000 0.744860
vt 0.125000 0.741603
vt 0.125004 0.750000
vt 0.133576 0.750000
vt 0.130312 0.750000
vt 0.133592 0.750000
vt 0.130266 0.750000
vt 0.125073 0.750000
vt 0.130283 0.750000
vt 0.378647 0.994902
vt 0.378754 0.991623
vt 0.382198 0.994948
vt 0.378167 1.000000
vt 0.375000 0.994717
vt 0.375000 0.991409
vt 0.375000 1.000000
vt 0.378557 0.008397
vt 0.381895 0.005183
vt 0.375000 0.008397
vt 0.378380 0.005140
vt 0.381638 0.000000
vt 0.375000 0.005140
vt 0.378167 0.000000
vt 0.620281 0.992559
vt 0.617559 0.995281
vt 0.617458 0.992458
vt 0.625000 0.992105
vt 0.620444 0.995444
vt 0.617105 1.000000
vt 0.625000 0.994724
vt 0.619724 1.000000
vt 0.870307 0.744897
vt 0.867645 0.744816
vt 0.870515 0.741603
vt 0.875000 0.744730
vt 0.869724 0.750000
vt 0.867105 0.750000
vt 0.875000 0.746451
vt 0.620307 0.005103
vt 0.620515 0.008397
vt 0.617645 0.005183
vt 0.619724 0.000000
vt 0.625000 0.005270
vt 0.625000 0.008397
vt 0.621063 0.000000
vt 0.125067 0.508397
vt 0.125036 0.505140
vt 0.125070 0.505184
vt 0.125034 0.508397
vt 0.125000 0.505140
vt 0.125038 0.500000
vt 0.125073 0.500000
vt 0.125000 0.502462
vt 0.381895 0.244817
vt 0.378557 0.241603
vt 0.381638 0.250000
vt 0.378380 0.244860
vt 0.375000 0.241603
vt 0.378167 0.250000
vt 0.375000 0.244860
vt 0.378647 0.255098
vt 0.382198 0.255052
vt 0.378754 0.258377
vt 0.375000 0.255283
vt 0.378167 0.250000
vt 0.381638 0.250000
vt 0.375000 0.252566
vt 0.130312 0.500000
vt 0.133576 0.500000
vt 0.130266 0.500000
vt 0.133591 0.500000
vt 0.130283 0.500000
vt 0.867886 0.508397
vt 0.870307 0.505103
vt 0.870515 0.508397
vt 0.867645 0.505183
vt 0.869724 0.500000
vt 0.875000 0.505270
vt 0.875000 0.508397
vt 0.871063 0.500000
vt 0.617559 0.254719
vt 0.620281 0.257441
vt 0.617458 0.257542
vt 0.617105 0.250000
vt 0.620444 0.254556
vt 0.625000 0.257895
vt 0.619724 0.250000
vt 0.625000 0.255276
vt 0.617886 0.241603
vt 0.620307 0.244897
vt 0.617645 0.244816
vt 0.620515 0.241603
vt 0.625000 0.244730
vt 0.617105 0.250000
vt 0.625000 0.246451
vt 0.375000 0.744817
vt 0.375000 0.744955
vt 0.375000 0.750000
vt 0.375000 0.745001
vt 0.375000 0.750000
vt 0.375000 0.744817
vt 0.375000 0.744955
vt 0.383380 0.750000
vt 0.380237 0.750000
vt 0.383021 0.750000
vt 0.379588 0.750000
vt 0.378937 0.750000
vt 0.379187 0.758154
vt 0.383154 0.754187
vt 0.375000 0.758021
vt 0.378872 0.753872
vt 0.383021 0.750000
vt 0.375000 0.753937
vt 0.369763 0.750000
vt 0.366620 0.750000
vt 0.370412 0.750000
vt 0.366979 0.750000
vt 0.371063 0.750000
vt 0.624964 0.744861
vt 0.624930 0.744817
vt 0.624966 0.741603
vt 0.625000 0.744860
vt 0.624962 0.750000
vt 0.624927 0.750000
vt 0.624358 0.749385
vt 0.631895 0.744817
vt 0.628557 0.741603
vt 0.631638 0.750000
vt 0.628380 0.744861
vt 0.625000 0.741603
vt 0.628167 0.750000
vt 0.619902 0.753647
vt 0.619948 0.757198
vt 0.616623 0.753754
vt 0.619717 0.750000
vt 0.625000 0.753167
vt 0.625000 0.756638
vt 0.619688 0.750000
vt 0.616424 0.750000
vt 0.624927 0.750000
vt 0.619734 0.750000
vt 0.616409 0.750000
vt 0.619717 0.750000
vt 0.366620 0.500000
vt 0.369763 0.500000
vt 0.366979 0.500000
vt 0.370412 0.500000
vt 0.375000 0.500000
vt 0.371063 0.500000
vt 0.375000 0.500000
vt 0.383154 0.495813
vt 0.379187 0.491846
vt 0.383021 0.500000
vt 0.378872 0.496128
vt 0.375000 0.491979
vt 0.378937 0.500000
vt 0.375000 0.496063
vt 0.380237 0.500000
vt 0.383380 0.500000
vt 0.379588 0.500000
vt 0.378937 0.500000
vt 0.375000 0.505184
vt 0.375000 0.505045
vt 0.375000 0.504999
vt 0.375000 0.505184
vt 0.628557 0.508397
vt 0.631895 0.505183
vt 0.625000 0.508397
vt 0.628380 0.505140
vt 0.631638 0.500000
vt 0.625000 0.505140
vt 0.628167 0.500000
vt 0.624964 0.505140
vt 0.624966 0.508397
vt 0.624930 0.505184
vt 0.624962 0.500000
vt 0.624358 0.500616
vt 0.616424 0.500000
vt 0.619688 0.500000
vt 0.616409 0.500000
vt 0.619734 0.500000
vt 0.624927 0.500000
vt 0.619717 0.500000
vt 0.619902 0.496353
vt 0.616623 0.496246
vt 0.619948 0.492802
vt 0.625000 0.496833
vt 0.616409 0.500000
vt 0.379447 0.500000
vt 0.379788 0.500000
vt 0.382207 0.500000
vt 0.377990 0.500000
vt 0.375459 0.501183
vt 0.378569 0.508397
vt 0.381189 0.505184
vt 0.378328 0.505103
vt 0.380612 0.500000
vt 0.375000 0.505184
vt 0.375000 0.508397
vt 0.375000 0.505103
vt 0.375000 0.505270
vt 0.588562 0.500000
vt 0.586117 0.500000
vt 0.585888 0.500000
vt 0.593337 0.500000
vt 0.588869 0.500000
vt 0.585109 0.500000
vt 0.593310 0.500000
vt 0.587609 0.500000
vt 0.593298 0.505103
vt 0.593324 0.505183
vt 0.593292 0.508397
vt 0.593250 0.505270
vt 0.591788 0.501183
vt 0.586928 0.508397
vt 0.588708 0.505103
vt 0.589354 0.508397
vt 0.586287 0.505183
vt 0.593250 0.508397
vt 0.593317 0.741603
vt 0.593299 0.744897
vt 0.593292 0.741603
vt 0.593324 0.744816
vt 0.593310 0.750000
vt 0.593250 0.744730
vt 0.593250 0.741603
vt 0.591788 0.748817
vt 0.586117 0.750000
vt 0.588562 0.750000
vt 0.585888 0.750000
vt 0.585109 0.750000
vt 0.588869 0.750000
vt 0.593337 0.750000
vt 0.587609 0.750000
vt 0.588708 0.744897
vt 0.586287 0.744816
vt 0.589354 0.741603
vt 0.585109 0.750000
vt 0.379447 0.750000
vt 0.382207 0.750000
vt 0.379788 0.750000
vt 0.377990 0.750000
vt 0.380612 0.750000
vt 0.375460 0.748817
vt 0.375000 0.741603
vt 0.375000 0.744897
vt 0.381190 0.744816
vt 0.378569 0.741603
vt 0.380612 0.750000
vt 0.378328 0.744897
vt 0.375000 0.744730
vt 0.163884 0.500000
vt 0.161439 0.500000
vt 0.164112 0.500000
vt 0.164891 0.500000
vt 0.161132 0.500000
vt 0.156663 0.500000
vt 0.162391 0.500000
vt 0.156690 0.500000
vt 0.161293 0.505103
vt 0.163713 0.505184
vt 0.160647 0.508397
vt 0.156750 0.505270
vt 0.158212 0.501183
vt 0.156683 0.508397
vt 0.156702 0.505103
vt 0.156708 0.508397
vt 0.156676 0.505183
vt 0.156750 0.508397
vt 0.370553 0.500000
vt 0.367793 0.500000
vt 0.370212 0.500000
vt 0.372009 0.500000
vt 0.369388 0.500000
vt 0.374540 0.501183
vt 0.375000 0.505184
vt 0.375000 0.508397
vt 0.375000 0.505103
vt 0.368811 0.505184
vt 0.371431 0.508397
vt 0.369388 0.500000
vt 0.371672 0.505103
vt 0.375000 0.744816
vt 0.375000 0.741603
vt 0.375000 0.744897
vt 0.375000 0.741603
vt 0.374541 0.748817
vt 0.370553 0.750000
vt 0.370212 0.750000
vt 0.367793 0.750000
vt 0.372009 0.750000
vt 0.375000 0.750000
vt 0.371431 0.741603
vt 0.368810 0.744816
vt 0.368678 0.741603
vt 0.371672 0.744897
vt 0.369388 0.750000
vt 0.161438 0.750000
vt 0.163883 0.750000
vt 0.164112 0.750000
vt 0.156663 0.750000
vt 0.161131 0.750000
vt 0.164891 0.750000
vt 0.156690 0.750000
vt 0.162391 0.750000
vt 0.156683 0.741603
vt 0.156702 0.744897
vt 0.156676 0.744817
vt 0.156708 0.741603
vt 0.156750 0.744730
vt 0.158212 0.748817
vt 0.161292 0.744897
vt 0.160646 0.741603
vt 0.163713 0.744816
vt 0.156750 0.741603
vt 0.125000 0.508397
vt 0.381638 1.000000
vt 0.617105 0.000000
vt 0.875000 0.741603
vt 0.625000 0.241603
vt 0.381638 0.250000
vt 0.375000 0.258591
vt 0.867105 0.500000
vt 0.625000 0.493362
vt 0.616409 0.750000
vt 0.383021 0.750000
vt 0.585109 0.500000
vt 0.380612 0.500000
vt 0.593250 0.741603
vt 0.593250 0.508397
vt 0.585109 0.750000
vt 0.380612 0.750000
vt 0.593337 0.750000
vt 0.369388 0.500000
vt 0.164891 0.750000
vt 0.369388 0.750000
vt 0.156750 0.508397
vt 0.156663 0.500000
vt 0.125073 0.750000
vt 0.127566 0.750000
vt 0.375000 0.002462
vt 0.625000 0.996063
vt 0.375000 0.250000
vt 0.125004 0.500000
vt 0.621063 0.250000
vt 0.375000 0.749634
vt 0.375000 0.500366
vt 0.380612 0.500000
vt 0.585109 0.500000
vt 0.369388 0.750000
s 1
f 122/1/122 3/2/3 92/3/92
f 296/4/296 48/5/48 145/6/145
f 2/7/2 316/8/316 93/9/93
f 47/10/47 179/11/179 146/12/146
f 298/13/298 336/14/336 278/15/278
f 202/16/202 241/17/241 260/18/260
f 178/19/178 201/20/201 147/21/147
f 120/22/120 221/23/221 177/24/177
f 258/25/258 123/26/123 91/27/91
f 315/28/315 149/29/149 89/30/89
f 203/29/203 90/31/90 148/29/148
f 176/32/176 27/33/27 121/34/121
f 28/35/28 46/36/46 4/37/4
f 1/38/1 8/39/8 7/40/7
f 5/41/5 9/42/9 8/39/8
f 7/40/7 25/43/25 22/44/22
f 8/39/8 10/45/10 25/43/25
f 11/46/11 13/47/13 2/7/2
f 12/48/12 14/49/14 11/46/11
f 14/49/14 6/50/6 13/47/13
f 15/51/15 9/42/9 14/49/14
f 3/2/3 19/52/19 18/53/18
f 16/54/16 20/55/20 19/52/19
f 18/53/18 15/56/15 12/57/12
f 19/52/19 10/58/10 15/56/15
f 21/59/21 23/60/23 4/37/4
f 22/61/22 24/62/24 21/59/21
f 24/62/24 17/63/17 23/60/23
f 25/64/25 20/65/20 24/62/24
f 29/66/29 31/67/31 26/68/26
f 30/69/30 32/70/32 29/66/29
f 32/70/32 41/71/41 31/67/31
f 33/72/33 44/73/44 32/70/32
f 27/33/27 38/74/38 37/75/37
f 35/76/35 39/77/39 38/74/38
f 37/75/37 33/78/33 30/79/30
f 38/74/38 34/80/34 33/78/33
f 28/35/28 43/81/43 42/82/42
f 40/83/40 44/84/44 43/81/43
f 42/82/42 39/85/39 36/86/36
f 43/81/43 34/87/34 39/85/39
f 45/88/45 52/89/52 51/90/51
f 49/91/49 53/92/53 52/89/52
f 51/90/51 69/93/69 66/94/66
f 52/89/52 54/95/54 69/93/69
f 55/96/55 57/97/57 46/36/46
f 56/98/56 58/99/58 55/96/55
f 58/99/58 50/100/50 57/97/57
f 59/101/59 53/102/53 58/99/58
f 47/10/47 63/103/63 62/104/62
f 60/105/60 64/106/64 63/103/63
f 62/104/62 59/107/59 56/108/56
f 63/103/63 54/109/54 59/107/59
f 65/110/65 67/111/67 48/5/48
f 66/94/66 68/112/68 65/110/65
f 68/112/68 61/113/61 67/111/67
f 69/93/69 64/114/64 68/112/68
f 70/115/70 76/116/76 75/117/75
f 73/118/73 77/119/77 76/116/76
f 75/117/75 88/120/88 85/121/85
f 76/116/76 78/122/78 88/120/88
f 79/123/79 81/124/81 71/125/71
f 80/126/80 82/127/82 79/123/79
f 82/127/82 74/128/74 81/124/81
f 83/129/83 77/130/77 82/127/82
f 72/131/72 87/132/87 86/133/86
f 84/134/84 88/135/88 87/132/87
f 86/133/86 83/129/83 80/136/80
f 87/132/87 78/137/78 83/129/83
f 94/31/94 96/138/96 89/30/89
f 95/31/95 97/139/97 94/31/94
f 97/139/97 116/140/116 96/138/96
f 98/141/98 119/142/119 97/139/97
f 100/143/100 102/31/102 90/31/90
f 101/142/101 103/144/103 100/143/100
f 103/144/103 95/31/95 102/31/102
f 104/142/104 98/141/98 103/144/103
f 105/145/105 107/146/107 91/27/91
f 106/147/106 108/148/108 105/145/105
f 108/148/108 101/140/101 107/146/107
f 109/149/109 104/142/104 108/148/108
f 110/150/110 112/151/112 92/3/92
f 111/152/111 113/153/113 110/150/110
f 113/153/113 106/154/106 112/151/112
f 114/155/114 109/149/109 113/153/113
f 115/156/115 117/157/117 93/9/93
f 116/142/116 118/158/118 115/156/115
f 118/158/118 111/159/111 117/157/117
f 119/142/119 114/160/114 118/158/118
f 120/22/120 127/161/127 126/162/126
f 124/163/124 128/164/128 127/161/127
f 126/162/126 144/165/144 141/166/141
f 127/161/127 129/167/129 144/165/144
f 130/168/130 132/169/132 121/34/121
f 131/170/131 133/171/133 130/168/130
f 133/171/133 125/172/125 132/169/132
f 134/173/134 128/164/128 133/171/133
f 122/1/122 138/174/138 137/175/137
f 135/176/135 139/177/139 138/174/138
f 137/175/137 134/178/134 131/179/131
f 138/174/138 129/167/129 134/178/134
f 140/180/140 142/181/142 123/26/123
f 141/182/141 143/183/143 140/180/140
f 143/183/143 136/184/136 142/181/142
f 144/165/144 139/185/139 143/183/143
f 150/186/150 152/187/152 145/6/145
f 151/188/151 153/189/153 150/186/150
f 153/189/153 172/190/172 152/187/152
f 154/191/154 175/192/175 153/189/153
f 156/193/156 158/194/158 146/12/146
f 157/195/157 159/196/159 156/193/156
f 159/196/159 151/197/151 158/194/158
f 160/198/160 154/199/154 159/196/159
f 161/200/161 163/201/163 147/21/147
f 162/192/162 164/202/164 161/200/161
f 164/202/164 157/195/157 163/201/163
f 165/192/165 160/203/160 164/202/164
f 166/29/166 168/204/168 148/29/148
f 167/29/167 169/205/169 166/29/166
f 169/205/169 162/192/162 168/204/168
f 170/206/170 165/192/165 169/205/169
f 171/207/171 173/29/173 149/29/149
f 172/192/172 174/205/174 171/207/171
f 174/205/174 167/29/167 173/29/173
f 175/192/175 170/206/170 174/205/174
f 180/208/180 182/209/182 176/32/176
f 181/210/181 183/211/183 180/208/180
f 183/211/183 197/212/197 182/209/182
f 184/213/184 200/214/200 183/211/183
f 177/24/177 189/215/189 188/216/188
f 186/217/186 190/218/190 189/215/189
f 188/216/188 184/213/184 181/210/181
f 189/215/189 185/219/185 184/213/184
f 191/220/191 193/221/193 178/19/178
f 192/222/192 194/223/194 191/220/191
f 194/223/194 187/224/187 193/221/193
f 195/225/195 190/218/190 194/223/194
f 179/11/179 199/226/199 198/227/198
f 196/228/196 200/229/200 199/226/199
f 198/227/198 195/225/195 192/230/192
f 199/226/199 185/219/185 195/225/195
f 201/20/201 207/231/207 206/232/206
f 204/233/204 208/234/208 207/231/207
f 206/232/206 219/192/219 216/192/216
f 207/231/207 209/235/209 219/192/219
f 210/236/210 212/237/212 202/16/202
f 211/29/211 213/238/213 210/236/210
f 213/238/213 205/239/205 212/237/212
f 213/238/213 209/235/209 208/234/208
f 215/240/215 217/241/217 203/29/203
f 216/192/216 218/242/218 215/240/215
f 218/242/218 211/29/211 217/241/217
f 218/242/218 209/235/209 214/243/214
f 223/244/223 225/245/225 220/246/220
f 224/247/224 226/248/226 223/244/223
f 226/248/226 235/249/235 225/245/225
f 227/250/227 238/251/238 226/248/226
f 221/23/221 232/252/232 231/253/231
f 229/254/229 233/255/233 232/252/232
f 231/253/231 227/250/227 224/247/224
f 232/252/232 228/256/228 227/250/227
f 222/257/222 237/258/237 236/259/236
f 234/260/234 238/251/238 237/258/237
f 236/259/236 233/255/233 230/261/230
f 237/258/237 228/256/228 233/255/233
f 239/262/239 245/263/245 244/264/244
f 242/265/242 246/266/246 245/263/245
f 244/264/244 257/267/257 254/268/254
f 245/263/245 247/269/247 257/267/257
f 248/270/248 250/271/250 240/272/240
f 249/273/249 251/274/251 248/270/248
f 251/274/251 243/275/243 250/271/250
f 252/276/252 246/266/246 251/274/251
f 241/17/241 256/277/256 255/278/255
f 253/279/253 257/267/257 256/277/256
f 255/278/255 252/276/252 249/280/249
f 256/277/256 247/269/247 252/276/252
f 258/25/258 264/281/264 263/282/263
f 261/283/261 265/142/265 264/281/264
f 263/282/263 276/284/276 273/285/273
f 264/281/264 266/286/266 276/284/276
f 267/31/267 269/143/269 259/287/259
f 268/31/268 270/288/270 267/31/267
f 270/288/270 262/142/262 269/143/269
f 270/288/270 266/286/266 265/142/265
f 272/289/272 274/290/274 260/18/260
f 273/291/273 275/292/275 272/289/272
f 275/292/275 268/31/268 274/290/274
f 275/292/275 266/286/266 271/293/271
f 280/294/280 282/295/282 277/296/277
f 281/297/281 283/298/283 280/294/280
f 283/298/283 292/299/292 282/295/282
f 284/300/284 295/301/295 283/298/283
f 278/15/278 289/302/289 288/303/288
f 286/304/286 290/305/290 289/302/289
f 288/303/288 284/300/284 281/297/281
f 289/302/289 285/306/285 284/300/284
f 279/307/279 294/308/294 293/309/293
f 291/310/291 295/301/295 294/308/294
f 293/309/293 290/305/290 287/311/287
f 294/308/294 285/306/285 290/305/290
f 296/4/296 302/312/302 301/313/301
f 299/314/299 303/192/303 302/312/302
f 301/313/301 314/315/314 311/316/311
f 302/312/302 304/317/304 314/315/314
f 305/241/305 307/318/307 297/319/297
f 306/29/306 308/320/308 305/241/305
f 308/320/308 300/190/300 307/318/307
f 308/320/308 304/317/304 303/192/303
f 310/321/310 312/322/312 298/13/298
f 311/323/311 313/324/313 310/321/310
f 313/324/313 306/29/306 312/322/312
f 313/324/313 304/317/304 309/243/309
f 318/325/318 320/326/320 315/28/315
f 319/142/319 321/327/321 318/325/318
f 321/327/321 330/328/330 320/326/320
f 321/327/321 323/329/323 333/293/333
f 316/8/316 327/330/327 326/331/326
f 324/332/324 328/333/328 327/330/327
f 326/331/326 322/142/322 319/334/319
f 327/330/327 323/329/323 322/142/322
f 329/335/329 331/336/331 317/337/317
f 330/31/330 332/338/332 329/335/329
f 332/338/332 325/339/325 331/336/331
f 332/338/332 323/329/323 328/333/328
f 337/340/337 339/341/339 334/342/334
f 338/343/338 340/344/340 337/340/337
f 340/344/340 349/345/349 339/341/339
f 341/346/341 352/347/352 340/344/340
f 335/348/335 346/349/346 345/350/345
f 343/351/343 347/352/347 346/349/346
f 345/350/345 341/346/341 338/343/338
f 346/349/346 342/353/342 341/346/341
f 336/14/336 351/354/351 350/355/350
f 348/356/348 352/347/352 351/354/351
f 350/355/350 347/352/347 344/357/344
f 351/354/351 342/353/342 347/352/347
f 1/38/1 49/91/49 45/88/45
f 7/40/7 50/358/50 49/91/49
f 22/61/22 57/97/57 50/100/50
f 21/59/21 46/36/46 57/97/57
f 26/68/26 16/54/16 3/2/3
f 31/67/31 17/359/17 16/54/16
f 41/360/41 23/60/23 17/63/17
f 40/83/40 4/37/4 23/60/23
f 70/115/70 35/76/35 27/33/27
f 75/117/75 36/361/36 35/76/35
f 85/362/85 42/82/42 36/86/36
f 84/134/84 28/35/28 42/82/42
f 71/125/71 62/104/62 79/123/79
f 79/123/79 56/363/56 80/136/80
f 80/136/80 55/96/55 86/133/86
f 86/133/86 46/36/46 72/131/72
f 48/5/48 150/186/150 145/6/145
f 67/111/67 151/188/151 150/186/150
f 61/364/61 158/194/158 151/197/151
f 60/105/60 146/12/146 158/194/158
f 176/32/176 73/118/73 70/115/70
f 182/209/182 74/365/74 73/118/73
f 197/366/197 81/124/81 74/128/74
f 196/228/196 71/125/71 81/124/81
f 178/19/178 163/201/163 191/220/191
f 191/220/191 157/195/157 192/222/192
f 192/222/192 156/193/156 198/227/198
f 198/227/198 146/12/146 179/11/179
f 149/29/149 94/31/94 89/30/89
f 173/29/173 95/31/95 94/31/94
f 167/29/167 102/31/102 95/31/95
f 166/29/166 90/31/90 102/31/102
f 121/34/121 180/208/180 176/32/176
f 132/169/132 181/210/181 180/208/180
f 125/172/125 188/216/188 181/210/181
f 124/163/124 177/24/177 188/216/188
f 92/3/92 135/176/135 122/1/122
f 112/151/112 136/367/136 135/176/135
f 106/368/106 142/181/142 136/367/136
f 105/145/105 123/26/123 142/181/142
f 2/7/2 117/157/117 11/46/11
f 11/46/11 111/159/111 12/48/12
f 12/57/12 110/150/110 18/53/18
f 18/53/18 92/3/92 3/2/3
f 121/34/121 37/75/37 130/168/130
f 130/168/130 30/79/30 131/170/131
f 131/179/131 29/66/29 137/175/137
f 137/175/137 26/68/26 122/1/122
f 202/16/202 234/260/234 222/257/222
f 212/237/212 235/369/235 234/260/234
f 205/370/205 225/245/225 235/369/235
f 204/233/204 220/246/220 225/245/225
f 241/17/241 236/259/236 253/279/253
f 236/259/236 254/371/254 253/279/253
f 230/372/230 244/264/244 254/371/254
f 229/254/229 239/262/239 244/264/244
f 260/18/260 255/278/255 272/289/272
f 272/289/272 249/373/249 273/374/273
f 273/374/273 248/270/248 263/282/263
f 263/282/263 240/272/240 258/25/258
f 260/18/260 210/236/210 202/16/202
f 210/236/210 268/31/268 211/29/211
f 268/31/268 217/241/217 211/29/211
f 267/31/267 203/29/203 217/241/217
f 177/24/177 231/253/231 186/217/186
f 186/217/186 224/247/224 187/224/187
f 187/224/187 223/244/223 193/221/193
f 193/221/193 220/246/220 178/19/178
f 148/29/148 215/240/215 203/29/203
f 215/240/215 162/192/162 216/192/216
f 216/192/216 161/200/161 206/232/206
f 206/232/206 147/21/147 201/20/201
f 240/272/240 140/180/140 123/26/123
f 250/271/250 141/182/141 140/180/140
f 243/375/243 126/162/126 141/182/141
f 242/265/242 120/22/120 126/162/126
f 90/31/90 269/143/269 100/143/100
f 269/143/269 101/142/101 100/143/100
f 262/142/262 107/146/107 101/142/101
f 261/283/261 91/27/91 107/146/107
f 298/13/298 288/303/288 310/321/310
f 310/321/310 281/297/281 311/376/311
f 311/376/311 280/294/280 301/313/301
f 301/313/301 277/296/277 296/4/296
f 298/13/298 329/335/329 317/337/317
f 312/322/312 330/31/330 329/335/329
f 306/29/306 320/326/320 330/31/330
f 305/241/305 315/28/315 320/326/320
f 317/337/317 348/356/348 336/14/336
f 331/336/331 349/377/349 348/356/348
f 325/378/325 339/341/339 349/377/349
f 324/332/324 334/342/334 339/341/339
f 336/14/336 286/304/286 278/15/278
f 350/355/350 287/379/287 286/304/286
f 344/357/344 293/309/293 287/379/287
f 343/351/343 279/307/279 293/309/293
f 149/29/149 307/318/307 171/207/171
f 307/318/307 172/192/172 171/207/171
f 300/192/300 152/187/152 172/192/172
f 299/314/299 145/6/145 152/187/152
f 45/88/45 291/310/291 279/307/279
f 51/90/51 292/380/292 291/310/291
f 66/94/66 282/295/282 292/380/292
f 65/110/65 277/296/277 282/295/282
f 93/9/93 326/331/326 115/156/115
f 115/156/115 319/142/319 116/142/116
f 116/142/116 318/325/318 96/138/96
f 318/325/318 89/30/89 96/138/96
f 1/38/1 345/350/345 5/41/5
f 5/41/5 338/343/338 6/381/6
f 6/381/6 337/340/337 13/47/13
f 13/47/13 334/342/334 2/7/2
f 279/307/279 1/38/1 45/88/45
f 122/1/122 26/68/26 3/2/3
f 296/4/296 277/296/277 48/5/48
f 2/7/2 334/342/334 316/8/316
f 47/10/47 71/125/71 179/11/179
f 298/13/298 317/337/317 336/14/336
f 202/16/202 222/257/222 241/17/241
f 178/19/178 220/246/220 201/20/201
f 120/22/120 239/262/239 221/23/221
f 258/25/258 240/272/240 123/26/123
f 315/28/315 297/319/297 149/29/149
f 203/29/203 259/287/259 90/31/90
f 176/32/176 70/115/70 27/33/27
f 28/35/28 72/131/72 46/36/46
f 1/38/1 5/41/5 8/39/8
f 5/41/5 6/381/6 9/42/9
f 7/40/7 8/39/8 25/43/25
f 8/39/8 9/42/9 10/45/10
f 11/46/11 14/49/14 13/47/13
f 12/48/12 15/51/15 14/49/14
f 14/49/14 9/42/9 6/50/6
f 15/51/15 10/382/10 9/42/9
f 3/2/3 16/54/16 19/52/19
f 16/54/16 17/359/17 20/55/20
f 18/53/18 19/52/19 15/56/15
f 19/52/19 20/55/20 10/58/10
f 21/59/21 24/62/24 23/60/23
f 22/61/22 25/64/25 24/62/24
f 24/62/24 20/65/20 17/63/17
f 25/64/25 10/383/10 20/65/20
f 29/66/29 32/70/32 31/67/31
f 30/69/30 33/72/33 32/70/32
f 32/70/32 44/73/44 41/71/41
f 33/72/33 34/384/34 44/73/44
f 27/33/27 35/76/35 38/74/38
f 35/76/35 36/361/36 39/77/39
f 37/75/37 38/74/38 33/78/33
f 38/74/38 39/77/39 34/80/34
f 28/35/28 40/83/40 43/81/43
f 40/83/40 41/360/41 44/84/44
f 42/82/42 43/81/43 39/85/39
f 43/81/43 44/84/44 34/87/34
f 45/88/45 49/91/49 52/89/52
f 49/91/49 50/358/50 53/92/53
f 51/90/51 52/89/52 69/93/69
f 52/89/52 53/92/53 54/95/54
f 55/96/55 58/99/58 57/97/57
f 56/98/56 59/101/59 58/99/58
f 58/99/58 53/102/53 50/100/50
f 59/101/59 54/385/54 53/102/53
f 47/10/47 60/105/60 63/103/63
f 60/105/60 61/364/61 64/106/64
f 62/104/62 63/103/63 59/107/59
f 63/103/63 64/106/64 54/109/54
f 65/110/65 68/112/68 67/111/67
f 66/94/66 69/93/69 68/112/68
f 68/112/68 64/114/64 61/113/61
f 69/93/69 54/386/54 64/114/64
f 70/115/70 73/118/73 76/116/76
f 73/118/73 74/365/74 77/119/77
f 75/117/75 76/116/76 88/120/88
f 76/116/76 77/119/77 78/122/78
f 79/123/79 82/127/82 81/124/81
f 80/126/80 83/129/83 82/127/82
f 82/127/82 77/130/77 74/128/74
f 83/129/83 78/387/78 77/130/77
f 72/131/72 84/134/84 87/132/87
f 84/134/84 85/362/85 88/135/88
f 86/133/86 87/132/87 83/129/83
f 87/132/87 88/135/88 78/137/78
f 94/31/94 97/139/97 96/138/96
f 95/31/95 98/141/98 97/139/97
f 97/139/97 119/142/119 116/140/116
f 98/141/98 99/388/99 119/142/119
f 100/143/100 103/144/103 102/31/102
f 101/142/101 104/142/104 103/144/103
f 103/144/103 98/141/98 95/31/95
f 104/142/104 99/388/99 98/141/98
f 105/145/105 108/148/108 107/146/107
f 106/147/106 109/149/109 108/148/108
f 108/148/108 104/142/104 101/140/101
f 109/149/109 99/388/99 104/142/104
f 110/150/110 113/153/113 112/151/112
f 111/152/111 114/155/114 113/153/113
f 113/153/113 109/149/109 106/154/106
f 114/155/114 99/388/99 109/149/109
f 115/156/115 118/158/118 117/157/117
f 116/142/116 119/142/119 118/158/118
f 118/158/118 114/160/114 111/159/111
f 119/142/119 99/388/99 114/160/114
f 120/22/120 124/163/124 127/161/127
f 124/163/124 125/172/125 128/164/128
f 126/162/126 127/161/127 144/165/144
f 127/161/127 128/164/128 129/167/129
f 130/168/130 133/171/133 132/169/132
f 131/170/131 134/173/134 133/171/133
f 133/171/133 128/164/128 125/172/125
f 134/173/134 129/167/129 128/164/128
f 122/1/122 135/176/135 138/174/138
f 135/176/135 136/367/136 139/177/139
f 137/175/137 138/174/138 134/178/134
f 138/174/138 139/177/139 129/167/129
f 140/180/140 143/183/143 142/181/142
f 141/182/141 144/165/144 143/183/143
f 143/183/143 139/185/139 136/184/136
f 144/165/144 129/167/129 139/185/139
f 150/186/150 153/189/153 152/187/152
f 151/188/151 154/191/154 153/189/153
f 153/189/153 175/192/175 172/190/172
f 154/191/154 155/389/155 175/192/175
f 156/193/156 159/196/159 158/194/158
f 157/195/157 160/198/160 159/196/159
f 159/196/159 154/199/154 151/197/151
f 160/198/160 155/389/155 154/199/154
f 161/200/161 164/202/164 163/201/163
f 162/192/162 165/192/165 164/202/164
f 164/202/164 160/203/160 157/195/157
f 165/192/165 155/389/155 160/203/160
f 166/29/166 169/205/169 168/204/168
f 167/29/167 170/206/170 169/205/169
f 169/205/169 165/192/165 162/192/162
f 170/206/170 155/389/155 165/192/165
f 171/207/171 174/205/174 173/29/173
f 172/192/172 175/192/175 174/205/174
f 174/205/174 170/206/170 167/29/167
f 175/192/175 155/389/155 170/206/170
f 180/208/180 183/211/183 182/209/182
f 181/210/181 184/213/184 183/211/183
f 183/211/183 200/214/200 197/212/197
f 184/213/184 185/219/185 200/214/200
f 177/24/177 186/217/186 189/215/189
f 186/217/186 187/224/187 190/218/190
f 188/216/188 189/215/189 184/213/184
f 189/215/189 190/218/190 185/219/185
f 191/220/191 194/223/194 193/221/193
f 192/222/192 195/225/195 194/223/194
f 194/223/194 190/218/190 187/224/187
f 195/225/195 185/219/185 190/218/190
f 179/11/179 196/228/196 199/226/199
f 196/228/196 197/366/197 200/229/200
f 198/227/198 199/226/199 195/225/195
f 199/226/199 200/229/200 185/219/185
f 201/20/201 204/233/204 207/231/207
f 204/233/204 205/390/205 208/234/208
f 206/232/206 207/231/207 219/192/219
f 207/231/207 208/234/208 209/235/209
f 210/236/210 213/238/213 212/237/212
f 211/29/211 214/243/214 213/238/213
f 213/238/213 208/234/208 205/239/205
f 213/238/213 214/243/214 209/235/209
f 215/240/215 218/242/218 217/241/217
f 216/192/216 219/192/219 218/242/218
f 218/242/218 214/243/214 211/29/211
f 218/242/218 219/192/219 209/235/209
f 223/244/223 226/248/226 225/245/225
f 224/247/224 227/250/227 226/248/226
f 226/248/226 238/251/238 235/249/235
f 227/250/227 228/256/228 238/251/238
f 221/23/221 229/254/229 232/252/232
f 229/254/229 230/372/230 233/255/233
f 231/253/231 232/252/232 227/250/227
f 232/252/232 233/255/233 228/256/228
f 222/257/222 234/260/234 237/258/237
f 234/260/234 235/391/235 238/251/238
f 236/259/236 237/258/237 233/255/233
f 237/258/237 238/251/238 228/256/228
f 239/262/239 242/265/242 245/263/245
f 242/265/242 243/375/243 246/266/246
f 244/264/244 245/263/245 257/267/257
f 245/263/245 246/266/246 247/269/247
f 248/270/248 251/274/251 250/271/250
f 249/273/249 252/276/252 251/274/251
f 251/274/251 246/266/246 243/275/243
f 252/276/252 247/269/247 246/266/246
f 241/17/241 253/279/253 256/277/256
f 253/279/253 254/371/254 257/267/257
f 255/278/255 256/277/256 252/276/252
f 256/277/256 257/267/257 247/269/247
f 258/25/258 261/283/261 264/281/264
f 261/283/261 262/142/262 265/142/265
f 263/282/263 264/281/264 276/284/276
f 264/281/264 265/142/265 266/286/266
f 267/31/267 270/288/270 269/143/269
f 268/31/268 271/293/271 270/288/270
f 270/288/270 265/142/265 262/142/262
f 270/288/270 271/293/271 266/286/266
f 272/289/272 275/292/275 274/290/274
f 273/291/273 276/284/276 275/292/275
f 275/292/275 271/293/271 268/31/268
f 275/292/275 276/284/276 266/286/266
f 280/294/280 283/298/283 282/295/282
f 281/297/281 284/300/284 283/298/283
f 283/298/283 295/301/295 292/299/292
f 284/300/284 285/306/285 295/301/295
f 278/15/278 286/304/286 289/302/289
f 286/304/286 287/379/287 290/305/290
f 288/303/288 289/302/289 284/300/284
f 289/302/289 290/305/290 285/306/285
f 279/307/279 291/310/291 294/308/294
f 291/310/291 292/380/292 295/301/295
f 293/309/293 294/308/294 290/305/290
f 294/308/294 295/301/295 285/306/285
f 296/4/296 299/314/299 302/312/302
f 299/314/299 300/192/300 303/192/303
f 301/313/301 302/312/302 314/315/314
f 302/312/302 303/192/303 304/317/304
f 305/241/305 308/320/308 307/318/307
f 306/29/306 309/243/309 308/320/308
f 308/320/308 303/192/303 300/190/300
f 308/320/308 309/243/309 304/317/304
f 310/321/310 313/324/313 312/322/312
f 311/323/311 314/315/314 313/324/313
f 313/324/313 309/243/309 306/29/306
f 313/324/313 314/315/314 304/317/304
f 318/325/318 321/327/321 320/326/320
f 319/142/319 322/142/322 321/327/321
f 321/327/321 333/293/333 330/328/330
f 321/327/321 322/142/322 323/329/323
f 316/8/316 324/332/324 327/330/327
f 324/332/324 325/392/325 328/333/328
f 326/331/326 327/330/327 322/142/322
f 327/330/327 328/333/328 323/329/323
f 329/335/329 332/338/332 331/336/331
f 330/31/330 333/293/333 332/338/332
f 332/338/332 328/333/328 325/339/325
f 332/338/332 333/293/333 323/329/323
f 337/340/337 340/344/340 339/341/339
f 338/343/338 341/346/341 340/344/340
f 340/344/340 352/347/352 349/345/349
f 341/346/341 342/353/342 352/347/352
f 335/348/335 343/351/343 346/349/346
f 343/351/343 344/357/344 347/352/347
f 345/350/345 346/349/346 341/346/341
f 346/349/346 347/352/347 342/353/342
f 336/14/336 348/356/348 351/354/351
f 348/356/348 349/377/349 352/347/352
f 350/355/350 351/354/351 347/352/347
f 351/354/351 352/347/352 342/353/342
f 1/38/1 7/40/7 49/91/49
f 7/40/7 22/44/22 50/358/50
f 22/61/22 21/59/21 57/97/57
f 21/59/21 4/37/4 46/36/46
f 26/68/26 31/67/31 16/54/16
f 31/67/31 41/71/41 17/359/17
f 41/360/41 40/83/40 23/60/23
f 40/83/40 28/35/28 4/37/4
f 70/115/70 75/117/75 35/76/35
f 75/117/75 85/121/85 36/361/36
f 85/362/85 84/134/84 42/82/42
f 84/134/84 72/131/72 28/35/28
f 71/125/71 47/10/47 62/104/62
f 79/123/79 62/104/62 56/363/56
f 80/136/80 56/363/56 55/96/55
f 86/133/86 55/96/55 46/36/46
f 48/5/48 67/111/67 150/186/150
f 67/111/67 61/113/61 151/188/151
f 61/364/61 60/105/60 158/194/158
f 60/105/60 47/10/47 146/12/146
f 176/32/176 182/209/182 73/118/73
f 182/209/182 197/212/197 74/365/74
f 197/366/197 196/228/196 81/124/81
f 196/228/196 179/11/179 71/125/71
f 178/19/178 147/21/147 163/201/163
f 191/220/191 163/201/163 157/195/157
f 192/222/192 157/195/157 156/193/156
f 198/227/198 156/193/156 146/12/146
f 149/29/149 173/29/173 94/31/94
f 173/29/173 167/29/167 95/31/95
f 167/29/167 166/29/166 102/31/102
f 166/29/166 148/29/148 90/31/90
f 121/34/121 132/169/132 180/208/180
f 132/169/132 125/172/125 181/210/181
f 125/172/125 124/163/124 188/216/188
f 124/163/124 120/22/120 177/24/177
f 92/3/92 112/151/112 135/176/135
f 112/151/112 106/368/106 136/367/136
f 106/368/106 105/145/105 142/181/142
f 105/145/105 91/27/91 123/26/123
f 2/7/2 93/9/93 117/157/117
f 11/46/11 117/157/117 111/159/111
f 12/57/12 111/152/111 110/150/110
f 18/53/18 110/150/110 92/3/92
f 121/34/121 27/33/27 37/75/37
f 130/168/130 37/75/37 30/79/30
f 131/179/131 30/69/30 29/66/29
f 137/175/137 29/66/29 26/68/26
f 202/16/202 212/237/212 234/260/234
f 212/237/212 205/370/205 235/369/235
f 205/370/205 204/233/204 225/245/225
f 204/233/204 201/20/201 220/246/220
f 241/17/241 222/257/222 236/259/236
f 236/259/236 230/372/230 254/371/254
f 230/372/230 229/254/229 244/264/244
f 229/254/229 221/23/221 239/262/239
f 260/18/260 241/17/241 255/278/255
f 272/289/272 255/278/255 249/373/249
f 273/374/273 249/373/249 248/270/248
f 263/282/263 248/270/248 240/272/240
f 260/18/260 274/290/274 210/236/210
f 210/236/210 274/290/274 268/31/268
f 268/31/268 267/31/267 217/241/217
f 267/31/267 259/287/259 203/29/203
f 177/24/177 221/23/221 231/253/231
f 186/217/186 231/253/231 224/247/224
f 187/224/187 224/247/224 223/244/223
f 193/221/193 223/244/223 220/246/220
f 148/29/148 168/204/168 215/240/215
f 215/240/215 168/204/168 162/192/162
f 216/192/216 162/192/162 161/200/161
f 206/232/206 161/200/161 147/21/147
f 240/272/240 250/271/250 140/180/140
f 250/271/250 243/375/243 141/182/141
f 243/375/243 242/265/242 126/162/126
f 242/265/242 239/262/239 120/22/120
f 90/31/90 259/287/259 269/143/269
f 269/143/269 262/142/262 101/142/101
f 262/142/262 261/283/261 107/146/107
f 261/283/261 258/25/258 91/27/91
f 298/13/298 278/15/278 288/303/288
f 310/321/310 288/303/288 281/297/281
f 311/376/311 281/297/281 280/294/280
f 301/313/301 280/294/280 277/296/277
f 298/13/298 312/322/312 329/335/329
f 312/322/312 306/29/306 330/31/330
f 306/29/306 305/241/305 320/326/320
f 305/241/305 297/319/297 315/28/315
f 317/337/317 331/336/331 348/356/348
f 331/336/331 325/378/325 349/377/349
f 325/378/325 324/332/324 339/341/339
f 324/332/324 316/8/316 334/342/334
f 336/14/336 350/355/350 286/304/286
f 350/355/350 344/357/344 287/379/287
f 344/357/344 343/351/343 293/309/293
f 343/351/343 335/348/335 279/307/279
f 149/29/149 297/319/297 307/318/307
f 307/318/307 300/192/300 172/192/172
f 300/192/300 299/314/299 152/187/152
f 299/314/299 296/4/296 145/6/145
f 45/88/45 51/90/51 291/310/291
f 51/90/51 66/94/66 292/380/292
f 66/94/66 65/110/65 282/295/282
f 65/110/65 48/5/48 277/296/277
f 93/9/93 316/8/316 326/331/326
f 115/156/115 326/331/326 319/142/319
f 116/142/116 319/142/319 318/325/318
f 318/325/318 315/28/315 89/30/89
f 1/38/1 335/348/335 345/350/345
f 5/41/5 345/350/345 338/343/338
f 6/381/6 338/343/338 337/340/337
f 13/47/13 337/340/337 334/342/334
f 279/307/279 335/348/335 1/38/1
