# Blender 5.0.1
# www.blender.org
o seatstand
v -3.074676 -0.002363 0.849672
v -2.499585 0.278279 1.015332
v -3.074850 0.000697 0.849685
v -2.502156 0.282616 1.014117
v -3.074455 0.006604 0.848210
v -2.504366 0.286785 1.011967
v -3.073814 0.012047 0.845815
v -2.506129 0.290628 1.008965
v -3.072951 0.016818 0.842593
v -2.507377 0.293996 1.005225
v -3.071899 0.020734 0.838666
v -2.508063 0.296760 1.000891
v -3.064187 0.020734 0.809873
v -2.500458 0.296760 0.972500
v -3.063135 0.016818 0.805946
v -2.497698 0.293996 0.969089
v -3.062272 0.012047 0.802724
v -2.494748 0.290628 0.966474
v -3.061631 0.006604 0.800329
v -2.491720 0.286785 0.964754
v -3.061236 0.000697 0.798854
v -2.488732 0.282616 0.963996
v -3.061091 -0.002363 0.798952
v -2.485898 0.278279 0.964229
v -3.051443 -0.002363 0.802059
v -2.483327 0.273943 0.965444
v -3.042427 -0.002363 0.806020
v -2.481117 0.269774 0.967594
v -3.034389 -0.002363 0.810685
v -2.479355 0.265931 0.970597
v -3.027638 -0.002363 0.815873
v -2.478107 0.262563 0.974337
v -3.022434 -0.002363 0.821385
v -2.477421 0.259799 0.978670
v -3.018976 -0.002363 0.827010
v -2.477324 0.257745 0.983431
v -3.017398 -0.002363 0.832532
v -2.477819 0.256480 0.988435
v -3.017760 -0.002363 0.837737
v -2.478888 0.256053 0.993491
v -3.020049 -0.002363 0.842427
v -2.480489 0.256480 0.998405
v -3.024175 -0.002363 0.846420
v -2.482562 0.257745 1.002987
v -3.029981 -0.002363 0.849564
v -2.485025 0.259799 1.007061
v -3.037244 -0.002363 0.851737
v -2.487785 0.262563 1.010472
v -3.045684 -0.002363 0.852857
v -2.490736 0.265931 1.013087
v -3.054977 -0.002363 0.852879
v -2.493763 0.269774 1.014807
v -3.064767 -0.002363 0.851804
v -2.496751 0.273943 1.015565
v -2.372833 -0.002363 0.372878
v -2.487740 0.278279 0.960218
v -2.372860 0.000697 0.372705
v -2.486754 0.282616 0.957550
v -2.371357 0.006604 0.372969
v -2.484804 0.286785 0.955162
v -2.368915 0.012047 0.373400
v -2.481967 0.290628 0.953144
v -2.365630 0.016818 0.373979
v -2.478350 0.293996 0.951575
v -2.361626 0.020734 0.374684
v -2.474093 0.296760 0.950514
v -2.332271 0.020734 0.379857
v -2.445147 0.296760 0.955615
v -2.328267 0.016818 0.380563
v -2.441509 0.293996 0.958067
v -2.324982 0.012047 0.381142
v -2.438646 0.290628 0.960778
v -2.322540 0.006604 0.381572
v -2.436669 0.286785 0.963644
v -2.321037 0.000697 0.381837
v -2.435653 0.282616 0.966555
v -2.321122 -0.002363 0.381990
v -2.435639 0.278279 0.969399
v -2.323375 -0.002363 0.391872
v -2.436625 0.273943 0.972066
v -2.326536 -0.002363 0.401199
v -2.438574 0.269774 0.974455
v -2.330482 -0.002363 0.409613
v -2.441412 0.265931 0.976472
v -2.335063 -0.002363 0.416790
v -2.445029 0.262563 0.978042
v -2.340100 -0.002363 0.422455
v -2.449286 0.259799 0.979102
v -2.345403 -0.002363 0.426390
v -2.454020 0.257745 0.979614
v -2.350765 -0.002363 0.428443
v -2.459048 0.256480 0.979557
v -2.355983 -0.002363 0.428536
v -2.464178 0.256053 0.978932
v -2.360854 -0.002363 0.426665
v -2.469213 0.256480 0.977765
v -2.365191 -0.002363 0.422902
v -2.473958 0.257745 0.976100
v -2.368829 -0.002363 0.417392
v -2.478232 0.259799 0.974002
v -2.371628 -0.002363 0.410347
v -2.481870 0.262563 0.971549
v -2.373478 -0.002363 0.402036
v -2.484732 0.265931 0.968838
v -2.374311 -0.002363 0.392780
v -2.486709 0.269774 0.965972
v -2.374093 -0.002363 0.382935
v -2.487725 0.273943 0.963061
v -2.554346 -0.002363 1.615599
v -2.439438 0.278279 1.028259
v -2.554318 0.000697 1.615772
v -2.440424 0.282616 1.030927
v -2.555821 0.006604 1.615507
v -2.442374 0.286785 1.033315
v -2.558263 0.012047 1.615077
v -2.445211 0.290628 1.035333
v -2.561548 0.016818 1.614498
v -2.448828 0.293996 1.036902
v -2.565552 0.020734 1.613793
v -2.453086 0.296760 1.037963
v -2.594908 0.020734 1.608620
v -2.482032 0.296760 1.032862
v -2.598911 0.016818 1.607914
v -2.485670 0.293996 1.030410
v -2.602196 0.012047 1.607335
v -2.488532 0.290628 1.027699
v -2.604638 0.006603 1.606905
v -2.490509 0.286785 1.024832
v -2.606141 0.000697 1.606640
v -2.491525 0.282616 1.021922
v -2.606056 -0.002363 1.606487
v -2.491540 0.278279 1.019078
v -2.603803 -0.002363 1.596605
v -2.490554 0.273943 1.016411
v -2.600642 -0.002363 1.587278
v -2.488604 0.269774 1.014022
v -2.596696 -0.002363 1.578864
v -2.485767 0.265931 1.012005
v -2.592116 -0.002363 1.571687
v -2.482150 0.262563 1.010435
v -2.587078 -0.002363 1.566022
v -2.477893 0.259799 1.009374
v -2.581776 -0.002363 1.562087
v -2.473159 0.257745 1.008863
v -2.576413 -0.002363 1.560034
v -2.468130 0.256480 1.008920
v -2.571196 -0.002363 1.559941
v -2.463000 0.256053 1.009544
v -2.566325 -0.002363 1.561812
v -2.457966 0.256480 1.010712
v -2.561987 -0.002363 1.565574
v -2.453220 0.257745 1.012376
v -2.558349 -0.002363 1.571084
v -2.448946 0.259799 1.014475
v -2.555551 -0.002363 1.578130
v -2.445308 0.262563 1.016927
v -2.553700 -0.002363 1.586441
v -2.442446 0.265931 1.019639
v -2.552867 -0.002363 1.595697
v -2.440469 0.269774 1.022505
v -2.553086 -0.002363 1.605542
v -2.439453 0.273943 1.025416
v -1.852503 -0.002363 1.138805
v -2.427593 0.278279 0.973145
v -1.852328 0.000697 1.138792
v -2.425022 0.282616 0.974360
v -1.852723 0.006603 1.140267
v -2.422812 0.286785 0.976510
v -1.853364 0.012047 1.142661
v -2.421050 0.290628 0.979512
v -1.854227 0.016818 1.145884
v -2.419801 0.293996 0.983252
v -1.855279 0.020734 1.149811
v -2.419116 0.296760 0.987586
v -1.862991 0.020734 1.178604
v -2.426720 0.296760 1.015977
v -1.864043 0.016818 1.182531
v -2.429480 0.293996 1.019387
v -1.864906 0.012047 1.185753
v -2.432430 0.290628 1.022003
v -1.865547 0.006603 1.188148
v -2.435458 0.286785 1.023723
v -1.865942 0.000697 1.189622
v -2.438446 0.282616 1.024481
v -1.866087 -0.002363 1.189524
v -2.441280 0.278279 1.024248
v -1.875736 -0.002363 1.186418
v -2.443851 0.273943 1.023033
v -1.884752 -0.002363 1.182456
v -2.446061 0.269774 1.020883
v -1.892789 -0.002363 1.177792
v -2.447823 0.265931 1.017880
v -1.899540 -0.002363 1.172604
v -2.449072 0.262563 1.014140
v -1.904744 -0.002363 1.167091
v -2.449757 0.259799 1.009807
v -1.908202 -0.002363 1.161466
v -2.449854 0.257745 1.005046
v -1.909780 -0.002363 1.155945
v -2.449359 0.256480 1.000042
v -1.909418 -0.002363 1.150740
v -2.448290 0.256053 0.994986
v -1.907130 -0.002363 1.146050
v -2.446689 0.256480 0.990072
v -1.903003 -0.002363 1.142057
v -2.444617 0.257745 0.985490
v -1.897197 -0.002363 1.138913
v -2.442153 0.259799 0.981415
v -1.889934 -0.002363 1.136739
v -2.439393 0.262563 0.978005
v -1.881494 -0.002363 1.135620
v -2.436443 0.265931 0.975389
v -1.872201 -0.002363 1.135598
v -2.433415 0.269774 0.973670
v -1.862412 -0.002363 1.136673
v -2.430427 0.273943 0.972912
v -2.449903 0.246165 0.943140
v -2.449903 0.391039 0.943141
v -2.440197 0.246165 0.946792
v -2.440197 0.391039 0.946792
v -2.431391 0.246165 0.952267
v -2.431391 0.391039 0.952268
v -2.423821 0.246165 0.959356
v -2.423821 0.391039 0.959356
v -2.417780 0.246165 0.967784
v -2.417780 0.391039 0.967784
v -2.413499 0.246165 0.977229
v -2.413499 0.391039 0.977229
v -2.411143 0.246165 0.987328
v -2.411143 0.391039 0.987328
v -2.410803 0.246165 0.997693
v -2.410803 0.391039 0.997693
v -2.412491 0.246165 1.007925
v -2.412491 0.391039 1.007925
v -2.416143 0.246165 1.017630
v -2.416143 0.391039 1.017630
v -2.421618 0.246165 1.026437
v -2.421618 0.391039 1.026437
v -2.428706 0.246165 1.034007
v -2.428706 0.391039 1.034007
v -2.437135 0.246165 1.040048
v -2.437135 0.391039 1.040048
v -2.446580 0.246165 1.044329
v -2.446580 0.391039 1.044329
v -2.456679 0.246165 1.046684
v -2.456679 0.391039 1.046685
v -2.467043 0.246165 1.047025
v -2.467043 0.391039 1.047025
v -2.477275 0.246165 1.045337
v -2.477275 0.391039 1.045337
v -2.486981 0.246165 1.041685
v -2.486981 0.391039 1.041685
v -2.495788 0.246165 1.036210
v -2.495788 0.391039 1.036210
v -2.503357 0.246165 1.029122
v -2.503357 0.391039 1.029122
v -2.509398 0.246165 1.020693
v -2.509398 0.391039 1.020693
v -2.513679 0.246165 1.011248
v -2.513679 0.391039 1.011248
v -2.516035 0.246165 1.001149
v -2.516035 0.391039 1.001149
v -2.516375 0.246165 0.990784
v -2.516375 0.391039 0.990784
v -2.514687 0.246165 0.980553
v -2.514687 0.391039 0.980553
v -2.511035 0.246165 0.970847
v -2.511035 0.391039 0.970847
v -2.505560 0.246165 0.962040
v -2.505560 0.391039 0.962040
v -2.498472 0.246165 0.954470
v -2.498472 0.391039 0.954471
v -2.490043 0.246165 0.948429
v -2.490043 0.391039 0.948429
v -2.480598 0.246165 0.944149
v -2.480598 0.391039 0.944149
v -2.470499 0.246165 0.941793
v -2.470499 0.391039 0.941793
v -2.460135 0.246165 0.941452
v -2.460135 0.391039 0.941452
vn -0.6508 -0.6802 0.3375
vn 0.6202 0.4778 0.6221
vn -0.9925 -0.0220 -0.1204
vn 0.6032 0.5567 0.5711
vn -0.9939 0.0356 -0.1046
vn 0.5836 0.6207 0.5235
vn -0.9895 0.0736 -0.1246
vn 0.5611 0.6770 0.4762
vn -0.9853 0.0973 -0.1406
vn 0.5344 0.7302 0.4257
vn -0.9669 0.1735 -0.1872
vn 0.3200 0.9250 0.2048
vn -0.6101 0.6189 -0.4948
vn 0.0593 0.8625 -0.5026
vn -0.7847 0.2885 -0.5486
vn 0.4405 0.7859 -0.4340
vn -0.8524 0.1504 -0.5008
vn 0.6137 0.7012 -0.3629
vn -0.8784 0.0790 -0.4714
vn 0.7247 0.6213 -0.2981
vn -0.8955 0.0153 -0.4448
vn 0.7980 0.5514 -0.2433
vn -0.9002 -0.2358 -0.3662
vn 0.8496 0.4897 -0.1960
vn 0.1666 -0.8530 -0.4947
vn 0.8882 0.4330 -0.1533
vn 0.1844 -0.8971 -0.4015
vn 0.9187 0.3784 -0.1128
vn 0.1977 -0.9252 -0.3239
vn 0.9437 0.3228 -0.0723
vn 0.2091 -0.9441 -0.2547
vn 0.9644 0.2629 -0.0292
vn 0.2209 -0.9570 -0.1881
vn 0.9807 0.1946 0.0192
vn 0.2363 -0.9646 -0.1172
vn 0.9908 0.1117 0.0770
vn 0.2573 -0.9659 -0.0288
vn 0.9887 0.0050 0.1500
vn 0.2637 -0.9604 0.0905
vn 0.9594 -0.1384 0.2457
vn 0.2432 -0.9431 0.2267
vn 0.8706 -0.3265 0.3681
vn 0.2154 -0.8981 0.3834
vn 0.6856 -0.5282 0.5010
vn 0.1558 -0.8486 0.5056
vn 0.4770 -0.6157 0.6272
vn 0.0764 -0.8388 0.5390
vn 0.5163 -0.3797 0.7677
vn 0.0067 -0.8387 0.5446
vn 0.6074 -0.0319 0.7938
vn -0.0539 -0.8384 0.5424
vn 0.6353 0.2153 0.7417
vn -0.1092 -0.8367 0.5367
vn 0.6330 0.3719 0.6790
vn -0.9503 -0.1761 -0.2567
vn -0.9983 0.0204 -0.0555
vn -0.8970 0.1657 -0.4098
vn -0.9710 0.1955 -0.1378
vn -0.8057 0.3434 -0.4826
vn -0.9062 0.3685 -0.2073
vn -0.6968 0.4791 -0.5338
vn -0.8061 0.5311 -0.2608
vn -0.5647 0.5947 -0.5723
vn -0.6744 0.6761 -0.2967
vn -0.1738 0.7824 -0.5981
vn -0.3500 0.8705 -0.3461
vn 0.3953 0.7764 -0.4909
vn 0.4042 0.8918 -0.2032
vn 0.7336 0.5932 -0.3316
vn 0.7184 0.6953 -0.0221
vn 0.8435 0.4774 -0.2461
vn 0.8311 0.5530 0.0591
vn 0.9262 0.3430 -0.1567
vn 0.9092 0.3906 0.1440
vn 0.9858 0.1616 -0.0451
vn 0.9492 0.2153 0.2296
vn 0.9804 -0.1610 0.1137
vn 0.9490 0.0362 0.3131
vn 0.9169 -0.3281 0.2273
vn 0.9095 -0.1389 0.3917
vn 0.8123 -0.5036 0.2941
vn 0.8336 -0.3026 0.4622
vn 0.6755 -0.6551 0.3384
vn 0.7253 -0.4494 0.5215
vn 0.5229 -0.7722 0.3609
vn 0.5899 -0.5749 0.5670
vn 0.3691 -0.8543 0.3661
vn 0.4329 -0.6759 0.5964
vn 0.2213 -0.9068 0.3588
vn 0.2602 -0.7499 0.6083
vn 0.0814 -0.9359 0.3428
vn 0.0782 -0.7948 0.6018
vn -0.0522 -0.9460 0.3198
vn -0.1068 -0.8097 0.5770
vn -0.1827 -0.9392 0.2906
vn -0.2891 -0.7942 0.5345
vn -0.3118 -0.9154 0.2545
vn -0.4609 -0.7489 0.4761
vn -0.4423 -0.8720 0.2098
vn -0.6174 -0.6752 0.4035
vn -0.5741 -0.8042 0.1541
vn -0.7529 -0.5752 0.3197
vn -0.7036 -0.7055 0.0850
vn -0.8625 -0.4518 0.2279
vn -0.8212 -0.5706 0.0009
vn -0.9420 -0.3086 0.1318
vn -0.9112 -0.4006 -0.0961
vn -0.9881 -0.1496 0.0359
vn 0.4502 -0.7044 0.5488
vn 0.9733 0.2230 -0.0552
vn 0.9394 -0.0119 0.3426
vn 0.8759 0.4530 -0.1660
vn 0.7874 0.2417 0.5671
vn 0.7306 0.6223 -0.2810
vn 0.6252 0.3636 0.6906
vn 0.5855 0.7246 -0.3634
vn 0.4541 0.4472 0.7706
vn 0.4596 0.7833 -0.4187
vn 0.2019 0.6002 0.7740
vn 0.2433 0.8391 -0.4866
vn -0.4663 0.6070 0.6435
vn -0.0586 0.8395 -0.5402
vn -0.7038 0.4587 0.5424
vn -0.2868 0.7837 -0.5510
vn -0.8397 0.3728 0.3950
vn -0.4234 0.7256 -0.5425
vn -0.9460 0.2490 0.2074
vn -0.5869 0.6242 -0.5156
vn -0.9993 -0.0064 -0.0375
vn -0.7615 0.4571 -0.4595
vn -0.6200 -0.6990 0.3563
vn -0.8878 0.2328 -0.3971
vn -0.9191 -0.3307 -0.2141
vn -0.8662 0.0767 -0.4937
vn -0.7218 -0.6445 -0.2524
vn -0.6967 0.0400 -0.7162
vn -0.5099 -0.8230 -0.2504
vn -0.4891 0.0399 -0.8713
vn -0.3478 -0.9071 -0.2372
vn -0.3072 0.0456 -0.9505
vn -0.2259 -0.9484 -0.2227
vn -0.1591 0.0499 -0.9860
vn -0.1286 -0.9695 -0.2086
vn -0.0356 0.0521 -0.9980
vn -0.0453 -0.9798 -0.1950
vn 0.0729 0.0527 -0.9959
vn 0.0314 -0.9830 -0.1810
vn 0.1740 0.0517 -0.9834
vn 0.1069 -0.9803 -0.1659
vn 0.2739 0.0492 -0.9605
vn 0.1864 -0.9712 -0.1487
vn 0.3785 0.0451 -0.9245
vn 0.2764 -0.9526 -0.1275
vn 0.4937 0.0388 -0.8688
vn 0.3855 -0.9174 -0.0991
vn 0.6252 0.0298 -0.7799
vn 0.5265 -0.8482 -0.0577
vn 0.7735 0.0190 -0.6335
vn 0.7100 -0.7042 0.0080
vn 0.9153 0.0148 -0.4026
vn 0.8975 -0.4276 0.1076
vn 0.9899 0.0538 -0.1314
vn 0.9740 -0.1616 0.1589
vn -0.6957 0.5138 -0.5019
vn 0.9904 -0.0191 0.1372
vn -0.6413 0.5623 -0.5221
vn 0.9967 0.0739 0.0327
vn -0.5637 0.6218 -0.5436
vn 0.9893 0.1454 -0.0085
vn -0.4408 0.6982 -0.5641
vn 0.9590 0.2719 -0.0802
vn -0.2334 0.7891 -0.5681
vn 0.7448 0.6245 -0.2348
vn 0.1829 0.8639 -0.4692
vn 0.9321 0.1751 0.3170
vn -0.5641 0.8236 -0.0591
vn 0.9251 0.0947 0.3677
vn -0.7315 0.6818 0.0011
vn 0.9203 0.0721 0.3845
vn -0.7638 0.6451 0.0233
vn 0.9146 0.0494 0.4013
vn -0.7937 0.6066 0.0459
vn 0.9098 -0.0360 0.4136
vn -0.8235 0.5629 0.0705
vn 0.3674 -0.7418 0.5610
vn -0.8553 0.5085 0.0999
vn -0.1755 -0.8333 0.5242
vn -0.8905 0.4334 0.1383
vn -0.2295 -0.8305 0.5076
vn -0.9294 0.3142 0.1937
vn -0.2880 -0.8256 0.4851
vn -0.9558 0.0941 0.2784
vn -0.3527 -0.8201 0.4506
vn -0.8828 -0.2967 0.3642
vn -0.4081 -0.8304 0.3793
vn -0.8200 -0.5046 0.2703
vn -0.3802 -0.8974 0.2239
vn -0.9474 -0.3171 0.0436
vn -0.3189 -0.9452 0.0695
vn -0.9859 -0.0824 -0.1459
vn -0.2603 -0.9639 -0.0559
vn -0.9625 0.0799 -0.2591
vn -0.1902 -0.9711 -0.1445
vn -0.9274 0.1840 -0.3257
vn -0.1334 -0.9699 -0.2035
vn -0.8935 0.2560 -0.3688
vn -0.0894 -0.9633 -0.2530
vn -0.8623 0.3105 -0.4000
vn -0.0495 -0.9523 -0.3010
vn -0.8327 0.3555 -0.4246
vn -0.0085 -0.9362 -0.3513
vn -0.8032 0.3954 -0.4455
vn 0.0380 -0.9123 -0.4078
vn -0.7722 0.4334 -0.4646
vn 0.0957 -0.8745 -0.4755
vn -0.7375 0.4720 -0.4831
vn 0.1514 -0.8166 -0.5570
vn 0.1415 0.8342 -0.5329
vn 0.2689 -0.8048 -0.5292
vn 0.2459 0.8254 -0.5081
vn 0.3930 -0.7777 -0.4907
vn 0.3545 0.8056 -0.4746
vn 0.5286 -0.7287 -0.4354
vn 0.4705 0.7711 -0.4290
vn 0.6763 -0.6464 -0.3532
vn 0.5955 0.7151 -0.3660
vn 0.8249 -0.5165 -0.2297
vn 0.7271 0.6278 -0.2780
vn 0.9376 -0.3430 -0.0570
vn 0.8522 0.4989 -0.1576
vn 0.9651 -0.2208 0.1409
vn 0.9424 0.3344 -0.0029
vn 0.8970 -0.3161 0.3091
vn 0.9593 0.2205 0.1767
vn 0.7640 -0.4819 0.4290
vn 0.8765 0.3235 0.3564
vn 0.6059 -0.6156 0.5038
vn 0.7168 0.4988 0.4873
vn 0.4510 -0.7071 0.5446
vn 0.5346 0.6345 0.5582
vn 0.3102 -0.7661 0.5629
vn 0.3654 0.7215 0.5882
vn 0.1841 -0.8026 0.5673
vn 0.2170 0.7735 0.5955
vn 0.0696 -0.8238 0.5626
vn 0.0856 0.8026 0.5904
vn -0.0376 -0.8337 0.5509
vn -0.0351 0.8159 0.5771
vn -0.1415 -0.8342 0.5329
vn -0.1514 0.8166 0.5570
vn -0.2459 -0.8254 0.5081
vn -0.2689 0.8048 0.5292
vn -0.3545 -0.8056 0.4746
vn -0.3931 0.7776 0.4907
vn -0.4705 -0.7711 0.4291
vn -0.5285 0.7287 0.4354
vn -0.5955 -0.7151 0.3660
vn -0.6763 0.6464 0.3532
vn -0.7271 -0.6277 0.2780
vn -0.8249 0.5165 0.2297
vn -0.8522 -0.4989 0.1576
vn -0.9376 0.3430 0.0570
vn -0.9424 -0.3344 0.0029
vn -0.9651 0.2208 -0.1409
vn -0.9593 -0.2205 -0.1767
vn -0.8970 0.3161 -0.3091
vn -0.8765 -0.3235 -0.3564
vn -0.7640 0.4819 -0.4290
vn -0.7167 -0.4989 -0.4873
vn -0.6060 0.6156 -0.5039
vn -0.5346 -0.6345 -0.5582
vn -0.4510 0.7072 -0.5446
vn -0.3654 -0.7215 -0.5882
vn -0.3101 0.7661 -0.5629
vn -0.2170 -0.7735 -0.5955
vn -0.1841 0.8026 -0.5673
vn -0.0856 -0.8026 -0.5903
vn -0.0696 0.8238 -0.5626
vn 0.0351 -0.8159 -0.5771
vn 0.0376 0.8337 -0.5509
s 1
f 2//2 3//3 1//1
f 4//4 5//5 3//3
f 6//6 7//7 5//5
f 8//8 9//9 7//7
f 10//10 11//11 9//9
f 5//5 13//13 21//21
f 14//14 15//15 13//13
f 16//16 17//17 15//15
f 18//18 19//19 17//17
f 20//20 21//21 19//19
f 22//22 23//23 21//21
f 24//24 25//25 23//23
f 26//26 27//27 25//25
f 28//28 29//29 27//27
f 30//30 31//31 29//29
f 32//32 33//33 31//31
f 34//34 35//35 33//33
f 36//36 37//37 35//35
f 37//37 40//40 39//39
f 39//39 42//42 41//41
f 41//41 44//44 43//43
f 43//43 46//46 45//45
f 45//45 48//48 47//47
f 47//47 50//50 49//49
f 49//49 52//52 51//51
f 50//50 34//34 18//18
f 53//53 2//2 1//1
f 51//51 54//54 53//53
f 12//12 13//13 11//11
f 23//23 39//39 47//47
f 55//55 58//58 57//57
f 57//57 60//60 59//59
f 59//59 62//62 61//61
f 61//61 64//64 63//63
f 63//63 66//66 65//65
f 59//59 67//67 75//75
f 68//68 69//69 67//67
f 70//70 71//71 69//69
f 72//72 73//73 71//71
f 74//74 75//75 73//73
f 76//76 77//77 75//75
f 78//78 79//79 77//77
f 80//80 81//81 79//79
f 82//82 83//83 81//81
f 84//84 85//85 83//83
f 86//86 87//87 85//85
f 88//88 89//89 87//87
f 90//90 91//91 89//89
f 92//92 93//93 91//91
f 94//94 95//95 93//93
f 95//95 98//98 97//97
f 97//97 100//100 99//99
f 99//99 102//102 101//101
f 101//101 104//104 103//103
f 103//103 106//106 105//105
f 104//104 88//88 72//72
f 107//107 56//56 55//55
f 105//105 108//108 107//107
f 68//68 65//65 66//66
f 77//77 93//93 101//101
f 110//110 111//111 109//109
f 112//112 113//113 111//111
f 114//114 115//115 113//113
f 116//116 117//117 115//115
f 118//118 119//119 117//117
f 113//113 121//121 129//129
f 121//121 124//124 123//123
f 123//123 126//126 125//125
f 125//125 128//128 127//127
f 127//127 130//130 129//129
f 129//129 132//132 131//131
f 132//132 133//133 131//131
f 134//134 135//135 133//133
f 136//136 137//137 135//135
f 138//138 139//139 137//137
f 140//140 141//141 139//139
f 142//142 143//143 141//141
f 144//144 145//145 143//143
f 146//146 147//147 145//145
f 147//147 150//150 149//149
f 149//149 152//152 151//151
f 151//151 154//154 153//153
f 153//153 156//156 155//155
f 155//155 158//158 157//157
f 157//157 160//160 159//159
f 158//158 142//142 126//126
f 161//161 110//110 109//109
f 159//159 162//162 161//161
f 122//122 119//119 120//120
f 131//131 147//147 155//155
f 164//164 165//165 163//163
f 166//166 167//167 165//165
f 168//168 169//169 167//167
f 169//169 172//172 171//171
f 171//171 174//174 173//173
f 167//167 175//175 183//183
f 175//175 178//178 177//177
f 177//177 180//180 179//179
f 179//179 182//182 181//181
f 181//181 184//184 183//183
f 183//183 186//186 185//185
f 186//186 187//187 185//185
f 188//188 189//189 187//187
f 190//190 191//191 189//189
f 192//192 193//193 191//191
f 194//194 195//195 193//193
f 196//196 197//197 195//195
f 198//198 199//199 197//197
f 200//200 201//201 199//199
f 202//202 203//203 201//201
f 203//203 206//206 205//205
f 205//205 208//208 207//207
f 207//207 210//210 209//209
f 209//209 212//212 211//211
f 211//211 214//214 213//213
f 212//212 196//196 180//180
f 215//215 164//164 163//163
f 213//213 216//216 215//215
f 176//176 173//173 174//174
f 185//185 201//201 209//209
f 217//217 220//220 219//219
f 219//219 222//222 221//221
f 221//221 224//224 223//223
f 223//223 226//226 225//225
f 225//225 228//228 227//227
f 227//227 230//230 229//229
f 229//229 232//232 231//231
f 231//231 234//234 233//233
f 233//233 236//236 235//235
f 235//235 238//238 237//237
f 237//237 240//240 239//239
f 239//239 242//242 241//241
f 241//241 244//244 243//243
f 243//243 246//246 245//245
f 245//245 248//248 247//247
f 247//247 250//250 249//249
f 250//250 251//251 249//249
f 252//252 253//253 251//251
f 254//254 255//255 253//253
f 256//256 257//257 255//255
f 258//258 259//259 257//257
f 260//260 261//261 259//259
f 262//262 263//263 261//261
f 264//264 265//265 263//263
f 266//266 267//267 265//265
f 268//268 269//269 267//267
f 270//270 271//271 269//269
f 272//272 273//273 271//271
f 274//274 275//275 273//273
f 276//276 277//277 275//275
f 254//254 238//238 222//222
f 280//280 217//217 279//279
f 278//278 279//279 277//277
f 247//247 263//263 279//279
f 2//2 4//4 3//3
f 4//4 6//6 5//5
f 6//6 8//8 7//7
f 8//8 10//10 9//9
f 10//10 12//12 11//11
f 21//21 23//23 1//1
f 1//1 3//3 5//5
f 5//5 7//7 9//9
f 9//9 11//11 13//13
f 13//13 15//15 17//17
f 17//17 19//19 21//21
f 21//21 1//1 5//5
f 5//5 9//9 13//13
f 13//13 17//17 21//21
f 14//14 16//16 15//15
f 16//16 18//18 17//17
f 18//18 20//20 19//19
f 20//20 22//22 21//21
f 22//22 24//24 23//23
f 24//24 26//26 25//25
f 26//26 28//28 27//27
f 28//28 30//30 29//29
f 30//30 32//32 31//31
f 32//32 34//34 33//33
f 34//34 36//36 35//35
f 36//36 38//38 37//37
f 37//37 38//38 40//40
f 39//39 40//40 42//42
f 41//41 42//42 44//44
f 43//43 44//44 46//46
f 45//45 46//46 48//48
f 47//47 48//48 50//50
f 49//49 50//50 52//52
f 8//8 6//6 4//4
f 4//4 2//2 54//54
f 54//54 52//52 50//50
f 50//50 48//48 46//46
f 46//46 44//44 42//42
f 42//42 40//40 38//38
f 38//38 36//36 34//34
f 34//34 32//32 30//30
f 30//30 28//28 26//26
f 26//26 24//24 22//22
f 22//22 20//20 18//18
f 18//18 16//16 14//14
f 14//14 12//12 10//10
f 10//10 8//8 4//4
f 4//4 54//54 50//50
f 50//50 46//46 42//42
f 42//42 38//38 34//34
f 34//34 30//30 26//26
f 26//26 22//22 18//18
f 18//18 14//14 10//10
f 10//10 4//4 50//50
f 50//50 42//42 34//34
f 34//34 26//26 18//18
f 18//18 10//10 50//50
f 53//53 54//54 2//2
f 51//51 52//52 54//54
f 12//12 14//14 13//13
f 53//53 1//1 23//23
f 23//23 25//25 27//27
f 27//27 29//29 31//31
f 31//31 33//33 35//35
f 35//35 37//37 39//39
f 39//39 41//41 43//43
f 43//43 45//45 47//47
f 47//47 49//49 51//51
f 51//51 53//53 23//23
f 23//23 27//27 31//31
f 31//31 35//35 39//39
f 39//39 43//43 47//47
f 47//47 51//51 23//23
f 23//23 31//31 39//39
f 55//55 56//56 58//58
f 57//57 58//58 60//60
f 59//59 60//60 62//62
f 61//61 62//62 64//64
f 63//63 64//64 66//66
f 75//75 77//77 55//55
f 55//55 57//57 59//59
f 59//59 61//61 63//63
f 63//63 65//65 67//67
f 67//67 69//69 71//71
f 71//71 73//73 75//75
f 75//75 55//55 59//59
f 59//59 63//63 67//67
f 67//67 71//71 75//75
f 68//68 70//70 69//69
f 70//70 72//72 71//71
f 72//72 74//74 73//73
f 74//74 76//76 75//75
f 76//76 78//78 77//77
f 78//78 80//80 79//79
f 80//80 82//82 81//81
f 82//82 84//84 83//83
f 84//84 86//86 85//85
f 86//86 88//88 87//87
f 88//88 90//90 89//89
f 90//90 92//92 91//91
f 92//92 94//94 93//93
f 94//94 96//96 95//95
f 95//95 96//96 98//98
f 97//97 98//98 100//100
f 99//99 100//100 102//102
f 101//101 102//102 104//104
f 103//103 104//104 106//106
f 62//62 60//60 58//58
f 58//58 56//56 108//108
f 108//108 106//106 104//104
f 104//104 102//102 100//100
f 100//100 98//98 96//96
f 96//96 94//94 92//92
f 92//92 90//90 88//88
f 88//88 86//86 84//84
f 84//84 82//82 80//80
f 80//80 78//78 76//76
f 76//76 74//74 72//72
f 72//72 70//70 68//68
f 68//68 66//66 64//64
f 64//64 62//62 58//58
f 58//58 108//108 104//104
f 104//104 100//100 96//96
f 96//96 92//92 88//88
f 88//88 84//84 80//80
f 80//80 76//76 72//72
f 72//72 68//68 64//64
f 64//64 58//58 104//104
f 104//104 96//96 88//88
f 88//88 80//80 72//72
f 72//72 64//64 104//104
f 107//107 108//108 56//56
f 105//105 106//106 108//108
f 68//68 67//67 65//65
f 107//107 55//55 77//77
f 77//77 79//79 81//81
f 81//81 83//83 85//85
f 85//85 87//87 89//89
f 89//89 91//91 93//93
f 93//93 95//95 97//97
f 97//97 99//99 101//101
f 101//101 103//103 105//105
f 105//105 107//107 77//77
f 77//77 81//81 85//85
f 85//85 89//89 93//93
f 93//93 97//97 101//101
f 101//101 105//105 77//77
f 77//77 85//85 93//93
f 110//110 112//112 111//111
f 112//112 114//114 113//113
f 114//114 116//116 115//115
f 116//116 118//118 117//117
f 118//118 120//120 119//119
f 129//129 131//131 109//109
f 109//109 111//111 113//113
f 113//113 115//115 117//117
f 117//117 119//119 121//121
f 121//121 123//123 125//125
f 125//125 127//127 129//129
f 129//129 109//109 113//113
f 113//113 117//117 121//121
f 121//121 125//125 129//129
f 121//121 122//122 124//124
f 123//123 124//124 126//126
f 125//125 126//126 128//128
f 127//127 128//128 130//130
f 129//129 130//130 132//132
f 132//132 134//134 133//133
f 134//134 136//136 135//135
f 136//136 138//138 137//137
f 138//138 140//140 139//139
f 140//140 142//142 141//141
f 142//142 144//144 143//143
f 144//144 146//146 145//145
f 146//146 148//148 147//147
f 147//147 148//148 150//150
f 149//149 150//150 152//152
f 151//151 152//152 154//154
f 153//153 154//154 156//156
f 155//155 156//156 158//158
f 157//157 158//158 160//160
f 116//116 114//114 112//112
f 112//112 110//110 162//162
f 162//162 160//160 158//158
f 158//158 156//156 154//154
f 154//154 152//152 150//150
f 150//150 148//148 146//146
f 146//146 144//144 142//142
f 142//142 140//140 138//138
f 138//138 136//136 134//134
f 134//134 132//132 130//130
f 130//130 128//128 126//126
f 126//126 124//124 122//122
f 122//122 120//120 118//118
f 118//118 116//116 112//112
f 112//112 162//162 158//158
f 158//158 154//154 150//150
f 150//150 146//146 142//142
f 142//142 138//138 134//134
f 134//134 130//130 126//126
f 126//126 122//122 118//118
f 118//118 112//112 158//158
f 158//158 150//150 142//142
f 142//142 134//134 126//126
f 126//126 118//118 158//158
f 161//161 162//162 110//110
f 159//159 160//160 162//162
f 122//122 121//121 119//119
f 161//161 109//109 131//131
f 131//131 133//133 135//135
f 135//135 137//137 139//139
f 139//139 141//141 143//143
f 143//143 145//145 147//147
f 147//147 149//149 151//151
f 151//151 153//153 155//155
f 155//155 157//157 159//159
f 159//159 161//161 131//131
f 131//131 135//135 139//139
f 139//139 143//143 147//147
f 147//147 151//151 155//155
f 155//155 159//159 131//131
f 131//131 139//139 147//147
f 164//164 166//166 165//165
f 166//166 168//168 167//167
f 168//168 170//170 169//169
f 169//169 170//170 172//172
f 171//171 172//172 174//174
f 183//183 185//185 163//163
f 163//163 165//165 167//167
f 167//167 169//169 171//171
f 171//171 173//173 175//175
f 175//175 177//177 179//179
f 179//179 181//181 183//183
f 183//183 163//163 167//167
f 167//167 171//171 175//175
f 175//175 179//179 183//183
f 175//175 176//176 178//178
f 177//177 178//178 180//180
f 179//179 180//180 182//182
f 181//181 182//182 184//184
f 183//183 184//184 186//186
f 186//186 188//188 187//187
f 188//188 190//190 189//189
f 190//190 192//192 191//191
f 192//192 194//194 193//193
f 194//194 196//196 195//195
f 196//196 198//198 197//197
f 198//198 200//200 199//199
f 200//200 202//202 201//201
f 202//202 204//204 203//203
f 203//203 204//204 206//206
f 205//205 206//206 208//208
f 207//207 208//208 210//210
f 209//209 210//210 212//212
f 211//211 212//212 214//214
f 170//170 168//168 166//166
f 166//166 164//164 216//216
f 216//216 214//214 212//212
f 212//212 210//210 208//208
f 208//208 206//206 204//204
f 204//204 202//202 200//200
f 200//200 198//198 196//196
f 196//196 194//194 192//192
f 192//192 190//190 188//188
f 188//188 186//186 184//184
f 184//184 182//182 180//180
f 180//180 178//178 176//176
f 176//176 174//174 172//172
f 172//172 170//170 166//166
f 166//166 216//216 212//212
f 212//212 208//208 204//204
f 204//204 200//200 196//196
f 196//196 192//192 188//188
f 188//188 184//184 180//180
f 180//180 176//176 172//172
f 172//172 166//166 212//212
f 212//212 204//204 196//196
f 196//196 188//188 180//180
f 180//180 172//172 212//212
f 215//215 216//216 164//164
f 213//213 214//214 216//216
f 176//176 175//175 173//173
f 215//215 163//163 185//185
f 185//185 187//187 189//189
f 189//189 191//191 193//193
f 193//193 195//195 197//197
f 197//197 199//199 201//201
f 201//201 203//203 205//205
f 205//205 207//207 209//209
f 209//209 211//211 213//213
f 213//213 215//215 185//185
f 185//185 189//189 193//193
f 193//193 197//197 201//201
f 201//201 205//205 209//209
f 209//209 213//213 185//185
f 185//185 193//193 201//201
f 217//217 218//218 220//220
f 219//219 220//220 222//222
f 221//221 222//222 224//224
f 223//223 224//224 226//226
f 225//225 226//226 228//228
f 227//227 228//228 230//230
f 229//229 230//230 232//232
f 231//231 232//232 234//234
f 233//233 234//234 236//236
f 235//235 236//236 238//238
f 237//237 238//238 240//240
f 239//239 240//240 242//242
f 241//241 242//242 244//244
f 243//243 244//244 246//246
f 245//245 246//246 248//248
f 247//247 248//248 250//250
f 250//250 252//252 251//251
f 252//252 254//254 253//253
f 254//254 256//256 255//255
f 256//256 258//258 257//257
f 258//258 260//260 259//259
f 260//260 262//262 261//261
f 262//262 264//264 263//263
f 264//264 266//266 265//265
f 266//266 268//268 267//267
f 268//268 270//270 269//269
f 270//270 272//272 271//271
f 272//272 274//274 273//273
f 274//274 276//276 275//275
f 276//276 278//278 277//277
f 222//222 220//220 218//218
f 218//218 280//280 278//278
f 278//278 276//276 274//274
f 274//274 272//272 270//270
f 270//270 268//268 266//266
f 266//266 264//264 262//262
f 262//262 260//260 258//258
f 258//258 256//256 254//254
f 254//254 252//252 250//250
f 250//250 248//248 246//246
f 246//246 244//244 242//242
f 242//242 240//240 238//238
f 238//238 236//236 234//234
f 234//234 232//232 230//230
f 230//230 228//228 226//226
f 226//226 224//224 222//222
f 222//222 218//218 278//278
f 278//278 274//274 270//270
f 270//270 266//266 262//262
f 262//262 258//258 254//254
f 254//254 250//250 246//246
f 246//246 242//242 238//238
f 238//238 234//234 230//230
f 230//230 226//226 222//222
f 222//222 278//278 270//270
f 270//270 262//262 254//254
f 254//254 246//246 238//238
f 238//238 230//230 222//222
f 222//222 270//270 254//254
f 280//280 218//218 217//217
f 278//278 280//280 279//279
f 279//279 217//217 219//219
f 219//219 221//221 223//223
f 223//223 225//225 227//227
f 227//227 229//229 231//231
f 231//231 233//233 235//235
f 235//235 237//237 239//239
f 239//239 241//241 243//243
f 243//243 245//245 247//247
f 247//247 249//249 251//251
f 251//251 253//253 255//255
f 255//255 257//257 259//259
f 259//259 261//261 263//263
f 263//263 265//265 267//267
f 267//267 269//269 271//271
f 271//271 273//273 275//275
f 275//275 277//277 279//279
f 279//279 219//219 223//223
f 223//223 227//227 231//231
f 231//231 235//235 239//239
f 239//239 243//243 247//247
f 247//247 251//251 255//255
f 255//255 259//259 263//263
f 263//263 267//267 271//271
f 271//271 275//275 279//279
f 279//279 223//223 231//231
f 231//231 239//239 247//247
f 247//247 255//255 263//263
f 263//263 271//271 279//279
f 279//279 231//231 247//247
