# Blender 5.0.1
# www.blender.org
o Sommier_Tissus_Matelass__001
v 0.337723 0.361191 5.802441
v 3.708837 0.361191 5.802442
v 3.708836 0.670783 5.802443
v 0.337722 0.670783 5.802440
v 0.303325 0.361191 3.084909
v 0.303324 0.361191 5.768042
v 0.303323 0.670783 5.768041
v 0.303325 0.670783 3.084909
v 3.708838 0.361191 3.050511
v 0.337724 0.361191 3.050510
v 0.337724 0.670783 3.050510
v 3.708837 0.670783 3.050511
v 3.743236 0.670783 3.084910
v 3.743235 0.670783 5.768043
v 3.743236 0.361191 5.768043
v 3.743237 0.361191 3.084910
vn -0.3827 -0.0000 0.9239
vn 0.3827 -0.0000 0.9239
vn -0.9239 -0.0000 -0.3827
vn -0.9239 -0.0000 0.3827
vn 0.3827 -0.0000 -0.9239
vn -0.3827 -0.0000 -0.9239
vn 0.9239 -0.0000 -0.3827
vn 0.9239 -0.0000 0.3827
vt 0.068202 0.324454
vt -11.803054 3.273845
vt 0.068201 3.273847
vt -11.887844 0.324452
vt -21.360706 3.273844
vt -11.887844 3.273845
vt 21.581858 0.324445
vt 9.710727 3.273847
vt 21.581858 3.273837
vt 0.152992 3.273847
vt 9.625938 0.324455
vt 0.152992 0.324454
vt -21.360706 0.324452
vt -21.445496 3.273844
vt -11.803054 0.324452
vt 9.710727 0.324455
vt 9.625938 3.273847
vt -21.445496 0.324452
s 1
f 3/1/2 1/2/1 2/3/2
f 7/4/4 5/5/3 6/6/4
f 11/7/6 9/8/5 10/9/6
f 15/10/8 13/11/7 14/12/8
f 8/13/3 10/14/6 5/5/3
f 4/15/1 6/6/4 1/2/1
f 13/11/7 9/8/5 12/16/5
f 14/12/8 2/3/2 15/10/8
f 3/1/2 4/15/1 1/2/1
f 7/4/4 8/13/3 5/5/3
f 11/7/6 12/16/5 9/8/5
f 15/10/8 16/17/7 13/11/7
f 8/13/3 11/18/6 10/14/6
f 4/15/1 7/4/4 6/6/4
f 13/11/7 16/17/7 9/8/5
f 14/12/8 3/1/2 2/3/2
