# Blender 5.0.1
# www.blender.org
o Sommier_Tissus_blanc_001
v 3.708838 0.343991 3.084910
v 3.708837 0.343991 5.768043
v 0.337723 0.343991 5.768042
v 0.337724 0.343991 3.084909
v 0.337722 0.687983 5.768041
v 3.708836 0.687983 5.768043
v 3.708837 0.687983 3.084910
v 0.337724 0.687983 3.084909
v 0.337723 0.361191 5.802441
v 3.708837 0.361191 5.802442
v 3.708836 0.670783 5.802443
v 0.337722 0.670783 5.802440
v 0.303325 0.361191 3.084909
v 0.303324 0.361191 5.768042
v 0.303323 0.670783 5.768041
v 0.303325 0.670783 3.084909
v 3.708838 0.361191 3.050511
v 0.337724 0.361191 3.050510
v 0.337724 0.670783 3.050510
v 3.708837 0.670783 3.050511
v 3.743236 0.670783 3.084910
v 3.743235 0.670783 5.768043
v 3.743236 0.361191 5.768043
v 3.743237 0.361191 3.084910
vn 0.2924 -0.9105 -0.2924
vn 0.2924 -0.9105 0.2924
vn -0.2924 -0.9105 0.2924
vn -0.2924 -0.9105 -0.2924
vn -0.2182 0.9512 0.2182
vn 0.2182 0.9512 0.2182
vn 0.2182 0.9512 -0.2182
vn -0.2182 0.9512 -0.2182
vn -0.1503 -0.8843 0.4421
vn 0.1503 -0.8843 0.4421
vn 0.1503 0.8843 0.4421
vn -0.1503 0.8843 0.4421
vn -0.4421 -0.8843 -0.1503
vn -0.4421 -0.8843 0.1503
vn -0.4421 0.8843 0.1503
vn -0.4421 0.8843 -0.1503
vn 0.1503 -0.8843 -0.4421
vn -0.1503 -0.8843 -0.4421
vn -0.1503 0.8843 -0.4421
vn 0.1503 0.8843 -0.4421
vn 0.4421 0.8843 -0.1503
vn 0.4421 0.8843 0.1503
vn 0.4421 -0.8843 0.1503
vn 0.4421 -0.8843 -0.1503
vt 0.895000 0.995000
vt 0.105000 0.005000
vt 0.895000 0.005000
vt 0.900000 0.005000
vt 0.895000 0.000000
vt 0.895000 0.005000
vt 0.105000 0.000000
vt 0.100000 0.005000
vt 0.105000 0.005000
vt 0.895000 0.995000
vt 0.895000 1.000000
vt 0.900000 0.995000
vt 0.100000 0.995000
vt 0.105000 1.000000
vt 0.105000 0.995000
vt 0.100000 0.995000
vt 0.105000 0.995000
vt 0.105000 1.000000
vt 0.105000 2.796226
vt 0.100000 3.586221
vt 0.105000 3.586221
vt 0.031361 1.792073
vt 0.036361 1.002071
vt 0.031361 1.002071
vt 0.105000 1.002071
vt 0.100000 1.792073
vt 0.105000 1.792073
vt 0.895000 -0.000000
vt 0.900000 0.005000
vt 0.036360 0.005000
vt 0.031361 0.995000
vt 0.036361 0.995000
vt 0.031361 2.789155
vt 0.036361 1.799144
vt 0.031361 1.799144
vt 0.100000 0.005000
vt 0.105000 0.000000
vt 0.895000 1.000000
vt 0.900000 0.995000
vt 0.031361 3.586221
vt 0.036361 2.796226
vt 0.031361 2.796226
vt 0.105000 1.799144
vt 0.100000 2.789155
vt 0.105000 2.789155
vt 0.100000 2.796226
vt 0.036361 1.792073
vt 0.100000 1.002071
vt 0.031360 0.005000
vt 0.036361 2.789155
vt 0.036361 3.586221
vt 0.100000 1.799144
s 1
f 6/1/6 8/2/8 5/3/5
f 9/4/9 14/5/14 3/6/3
f 13/7/13 18/8/18 4/9/4
f 2/10/2 23/11/23 10/12/10
f 17/13/17 24/14/24 1/15/1
f 20/16/20 7/17/7 21/18/21
f 3/19/3 13/20/13 4/21/4
f 6/22/6 21/23/21 7/24/7
f 1/25/1 23/26/23 2/27/2
f 5/3/5 15/28/15 12/29/12
f 17/13/17 4/9/4 18/8/18
f 19/30/19 7/31/7 20/32/20
f 5/33/5 11/34/11 6/35/6
f 19/36/19 16/37/16 8/2/8
f 22/38/22 6/1/6 11/39/11
f 8/40/8 15/41/15 5/42/5
f 2/43/2 9/44/9 3/45/3
f 6/1/6 7/17/7 8/2/8
f 3/19/3 14/46/14 13/20/13
f 6/22/6 22/47/22 21/23/21
f 1/25/1 24/48/24 23/26/23
f 17/13/17 1/15/1 4/9/4
f 19/30/19 8/49/8 7/31/7
f 5/33/5 12/50/12 11/34/11
f 8/40/8 16/51/16 15/41/15
f 2/43/2 10/52/10 9/44/9
